SplineFontDB: 2.0
FontName: Garuda-Oblique
FullName: Garuda Oblique
FamilyName: Garuda
Weight: Book
Copyright: Generated by NECTEC for Public Domain\n\nModified under GNU General Public License by TLWG
Version: 2.56: 2008-01-19
ItalicAngle: -12
UnderlinePosition: -27
UnderlineWidth: 10
Ascent: 840
Descent: 160
NeedsXUIDChange: 1
FSType: 0
OS2Version: 0
OS2_WeightWidthSlopeOnly: 0
OS2_UseTypoMetrics: 0
CreationTime: 1153661469
ModificationTime: 1200709066
PfmFamily: 33
TTFWeight: 400
TTFWidth: 5
LineGap: 0
VLineGap: 0
Panose: 2 11 6 4 2 2 2 2 2 4
OS2TypoAscent: 0
OS2TypoAOffset: 1
OS2TypoDescent: 0
OS2TypoDOffset: 1
OS2TypoLinegap: 0
OS2WinAscent: 1284
OS2WinAOffset: 0
OS2WinDescent: 591
OS2WinDOffset: 0
HheadAscent: 1284
HheadAOffset: 0
HheadDescent: -591
HheadDOffset: 0
OS2Vendor: 'PfEd'
Lookup: 6 0 0 "'ccmp' Thai General Composition"  {"'ccmp' Thai Below Vowel Tone Reordering"  "'ccmp' Thai General Composition"  } ['ccmp' ('thai' <'KUY ' 'PAL ' 'THA ' 'dflt' > ) ]
Lookup: 6 0 0 "'ccmp' Thai Conditional Descender Removal"  {"'ccmp' Thai Conditional Descender Removal"  } ['ccmp' ('thai' <'KUY ' 'PAL ' 'THA ' 'dflt' > ) ]
Lookup: 5 0 0 "Required Thai Descender Removal"  {"Required Thai Descender Removal"  } [' RQD' ('thai' <'PAL ' > ) ]
Lookup: 1 0 0 "Thai Descender Removal Single Substitution"  {"Thai Descender Removal Single Substitution" ("descless" ) } []
Lookup: 2 0 0 "Thai Sara Am Decomposition"  {"Thai Sara Am Decomposition"  } []
Lookup: 2 0 0 "Thai Tone Nikhahit Attachment"  {"Thai Tone Nikhahit Attachment"  } []
Lookup: 1 0 0 "Thai Sara Am Lakkhang"  {"Thai Sara Am Lakkhang"  } []
Lookup: 1 0 0 "Thai Tone Low Variant"  {"Thai Tone Low Variant" ("low" ) } []
Lookup: 1 0 0 "Thai Mark High Variant"  {"Thai Mark High Variant" ("high" ) } []
Lookup: 1 0 0 "Thai Sara U Mai Ek Reordering"  {"Thai Sara U Mai Ek Reordering"  } []
Lookup: 1 0 0 "Thai Sara U Mai Tho Reordering"  {"Thai Sara U Mai Tho Reordering"  } []

StartChar: .notdef
Encoding: 0 -1 0
Width: 766
VWidth: 2048
Flags: W
HStem: 0 95<212 595> 1193 95<445 828>
Fore
95 0 m 1
 369 1288 l 1
 946 1288 l 1
 671 0 l 1
 95 0 l 1
212 95 m 1
 595 95 l 1
 828 1193 l 1
 445 1193 l 1
 212 95 l 1
EndSplineSet
EndChar
StartChar: exclam
Encoding: 33 33 2
Width: 277
VWidth: 2048
Flags: W
HStem: 0 100<112 192> 696 20G<233.696 346>
VStem: 90 256<0 716>
Fore
152 178 m 1
 204 558 l 1
 238 716 l 1
 346 716 l 1
 313 558 l 1
 208 178 l 1
 152 178 l 1
90 0 m 1
 112 100 l 1
 213 100 l 1
 192 0 l 1
 90 0 l 1
EndSplineSet
EndChar
StartChar: quotedbl
Encoding: 34 34 3
Width: 354
VWidth: 2048
Flags: W
HStem: 696 20G<193.727 297 355.897 460>
VStem: 169 291<463 716>
Fore
169 463 m 1
 173 599 l 1
 198 716 l 1
 297 716 l 1
 273 599 l 1
 222 463 l 1
 169 463 l 1
330 463 m 1
 336 599 l 1
 360 716 l 1
 460 716 l 1
 435 599 l 1
 383 463 l 1
 330 463 l 1
EndSplineSet
EndChar
StartChar: numbersign
Encoding: 35 35 4
Width: 556
VWidth: 2048
Flags: W
HStem: -12 21G<48 129.269 274 356.365> 196 72<67 135 238 360 464 586> 446 72<121 239 342 466 570 639> 708 20G<347.81 429 573.714 656>
Fore
48 -12 m 1
 135 196 l 1
 52 196 l 1
 67 268 l 1
 164 268 l 1
 239 446 l 1
 106 446 l 1
 121 518 l 1
 270 518 l 1
 356 728 l 1
 429 728 l 1
 342 518 l 1
 495 518 l 1
 582 728 l 1
 656 728 l 1
 570 518 l 1
 655 518 l 1
 639 446 l 1
 540 446 l 1
 464 268 l 1
 601 268 l 1
 586 196 l 1
 435 196 l 1
 348 -12 l 1
 274 -12 l 1
 360 196 l 1
 207 196 l 1
 121 -12 l 1
 48 -12 l 1
238 268 m 1
 391 268 l 1
 466 446 l 1
 313 446 l 1
 238 268 l 1
EndSplineSet
EndChar
StartChar: dollar
Encoding: 36 36 5
Width: 556
VWidth: 2048
Flags: W
VStem: 75 94<99.9533 198.922> 161 90<463.347 588.922> 463 96<153.08 284.537> 518 94<564 635.211>
Fore
228 -103 m 1x20
 247 -15 l 1
 132 0 75 57 75 155 c 0
 75 169 77 184 78 199 c 1
 170 216 l 1
 169 207 169 198 169 189 c 0xa0
 169 110 199 67 262 60 c 1
 322 339 l 1
 215 363 161 415 161 495 c 0
 161 554 194 720 408 740 c 1
 415 782 l 1
 466 782 l 1
 458 740 l 1
 561 730 612 677 612 584 c 2
 612 564 l 1
 518 550 l 1
 518 561 l 2x50
 518 621 494 655 441 667 c 1
 388 412 l 1
 501 388 559 334 559 251 c 0
 559 142 470 -6 297 -14 c 1
 279 -103 l 1
 228 -103 l 1x20
391 667 m 1
 303 655 251 579 251 521 c 0x40
 251 475 281 443 340 423 c 1
 391 667 l 1
313 60 m 1
 420 71 463 172 463 225 c 0x20
 463 273 432 307 369 326 c 1
 313 60 l 1
EndSplineSet
EndChar
StartChar: percent
Encoding: 37 37 6
Width: 889
VWidth: 2048
Flags: W
HStem: -26 60<636.875 732.937> 291 62<683.467 781.052> 349 62<254.259 350.354> 668 60<300.536 398.259>
VStem: 166 76<421.615 587.257> 411 76<531.788 656.591> 549 76<44.8851 211.829> 794 75<153.138 279.78>
Fore
166 480 m 0xbf
 166 617 254 728 363 728 c 0
 462 728 487 652 487 601 c 0
 487 484 410 349 284 349 c 0
 190 349 166 417 166 480 c 0xbf
299 411 m 0
 395 411 411 578 411 599 c 0
 411 645 391 668 354 668 c 0
 264 668 242 525 242 480 c 0
 242 434 261 411 299 411 c 0
205 -26 m 1
 759 728 l 1
 829 728 l 1
 279 -26 l 1
 205 -26 l 1
549 104 m 0
 549 244 641 353 746 353 c 0xdf
 844 353 869 283 869 221 c 0
 869 100 791 -26 667 -26 c 0
 567 -26 549 57 549 104 c 0
682 34 m 0
 778 34 794 202 794 222 c 0
 794 268 774 291 736 291 c 0
 644 291 625 139 625 104 c 0
 625 58 644 34 682 34 c 0
EndSplineSet
EndChar
StartChar: ampersand
Encoding: 38 38 7
Width: 666
VWidth: 2048
Flags: W
HStem: -12 76<218.168 369.444> 656 72<381.977 496.375>
VStem: 80 98<105.881 243.616> 251 94<500.647 617.658> 512 92<532.691 641.431>
Fore
604 609 m 0
 604 527 546 458 428 402 c 1
 521 238 l 1
 543 267 559 299 576 337 c 1
 664 317 l 1
 635 254 602 204 569 162 c 1
 592 120 619 83 655 54 c 1
 582 -17 l 1
 552 6 523 40 494 84 c 1
 422 20 346 -12 267 -12 c 0
 157 -12 80 50 80 158 c 0
 80 310 248 389 300 412 c 1
 268 463 251 506 251 544 c 0
 251 622 334 728 466 728 c 0
 576 728 604 657 604 609 c 0
446 656 m 0
 396 656 345 619 345 559 c 0
 345 522 378 486 394 458 c 1
 476 502 512 545 512 596 c 0
 512 617 499 656 446 656 c 0
178 170 m 0
 178 118 215 64 285 64 c 0
 346 64 402 95 452 155 c 1
 334 354 l 1
 182 273 178 207 178 170 c 0
EndSplineSet
EndChar
StartChar: quotesingle
Encoding: 39 39 8
Width: 190
VWidth: 2048
Flags: W
HStem: 696 20G<192 296>
VStem: 164 132<463 716>
Fore
164 463 m 1
 172 596 l 1
 196 716 l 1
 296 716 l 1
 271 596 l 1
 219 463 l 1
 164 463 l 1
EndSplineSet
EndChar
StartChar: parenleft
Encoding: 40 40 9
Width: 332
VWidth: 2048
Flags: W
HStem: 708 20G<255 452>
VStem: 101 89<-49.2698 276.252>
Fore
452 728 m 1
 282 523 190 314 190 98 c 0
 190 -5 210 -107 253 -210 c 1
 190 -210 l 1
 130 -107 101 0 101 112 c 0
 101 223 121 451 389 728 c 1
 452 728 l 1
EndSplineSet
EndChar
StartChar: parenright
Encoding: 41 41 10
Width: 332
VWidth: 2048
Flags: W
HStem: 708 20G<216 308>
VStem: 281 87<249.271 559.39>
Fore
368 397 m 0
 368 303 348 60 80 -210 c 1
 17 -210 l 1
 189 -4 281 212 281 429 c 0
 281 527 262 605 216 728 c 1
 279 728 l 1
 337 619 368 509 368 397 c 0
EndSplineSet
EndChar
StartChar: asterisk
Encoding: 42 42 11
Width: 387
VWidth: 2048
Flags: W
HStem: 423 305<313 348>
VStem: 156 322<584 584>
Fore
156 584 m 1
 193 655 l 1
 241 636 276 621 296 607 c 1
 302 665 308 707 313 728 c 1
 382 728 l 1
 376 696 362 656 345 607 c 1
 383 624 425 639 471 655 c 1
 478 584 l 1
 434 572 392 563 351 558 c 1
 368 540 389 509 415 464 c 1
 348 423 l 1
 334 449 319 484 303 529 c 1
 270 483 241 448 218 423 c 1
 167 464 l 1
 216 512 250 543 270 558 c 1
 228 566 192 575 156 584 c 1
EndSplineSet
EndChar
StartChar: plus
Encoding: 43 43 12
Width: 583
VWidth: 2048
Flags: W
HStem: 313 81<139 317 418 595> 569 20G<372.795 460>
VStem: 121 492<313 394>
Fore
276 116 m 1
 317 313 l 1
 121 313 l 1
 139 394 l 1
 336 394 l 1
 377 589 l 1
 460 589 l 1
 418 394 l 1
 613 394 l 1
 595 313 l 1
 400 313 l 1
 359 116 l 1
 276 116 l 1
EndSplineSet
EndChar
StartChar: comma
Encoding: 44 44 13
Width: 277
VWidth: 2048
Flags: W
VStem: 61 151<-104 100>
Fore
89 0 m 1
 110 100 l 1
 212 100 l 1
 190 0 l 2
 175 -71 138 -118 77 -141 c 1
 61 -104 l 1
 100 -89 126 -54 138 0 c 1
 89 0 l 1
EndSplineSet
EndChar
StartChar: hyphen
Encoding: 45 45 14
AltUni2: 002010.ffffffff.0
Width: 332
VWidth: 2048
Flags: W
HStem: 215 88<97 348>
VStem: 78 288<215 303>
Fore
78 215 m 1
 97 303 l 1
 366 303 l 1
 348 215 l 1
 78 215 l 1
EndSplineSet
EndChar
StartChar: period
Encoding: 46 46 15
Width: 277
VWidth: 2048
Flags: W
HStem: 0 100<112 192>
VStem: 90 123<0 100>
Fore
90 0 m 1
 112 100 l 1
 213 100 l 1
 192 0 l 1
 90 0 l 1
EndSplineSet
EndChar
StartChar: slash
Encoding: 47 47 16
Width: 277
VWidth: 2048
Flags: W
HStem: -12 21G<-3 76.8649> 708 20G<352.135 432>
VStem: -3 435<-12 728>
Fore
-3 -12 m 1
 362 728 l 1
 432 728 l 1
 67 -12 l 1
 -3 -12 l 1
EndSplineSet
EndChar
StartChar: zero
Encoding: 48 48 17
Width: 556
VWidth: 2048
Flags: W
HStem: -12 72<226.206 355.308> 647 72<345.64 475.154>
VStem: 97 92<99.3192 304.279> 512 92<400.817 604.958>
Fore
116 353 m 0
 169 598 273 719 429 719 c 0
 546 719 604 651 604 513 c 0
 604 468 598 414 584 353 c 0
 532 110 428 -12 273 -12 c 0
 156 -12 97 57 97 193 c 0
 97 239 104 291 116 353 c 0
412 647 m 0
 234 647 189 287 189 201 c 0
 189 107 221 60 288 60 c 0
 467 60 512 420 512 504 c 0
 512 599 480 647 412 647 c 0
EndSplineSet
EndChar
StartChar: one
Encoding: 49 49 18
Width: 556
VWidth: 2048
Flags: W
HStem: 0 21G<285 376.246> 696 20G<443 524>
VStem: 205 319<451 716 451 451>
Back
372 0 m 1
 285 0 l 1
 405 561 l 1
 346 515 282 480 205 454 c 1
 224 540 l 1
 336 587 418 647 469 719 c 1
 526 719 l 1
 372 0 l 1
EndSplineSet
Fore
372 0 m 1
 285 0 l 1
 404 558 l 1
 347 512 280 477 205 451 c 1
 223 537 l 1
 336 584 418 644 468 716 c 1
 524 716 l 1
 372 0 l 1
EndSplineSet
EndChar
StartChar: two
Encoding: 50 50 19
Width: 556
VWidth: 2048
Flags: W
HStem: 0 84<169 501> 647 72<327.527 486.893>
VStem: 524 94<478.036 611.136>
Fore
431 719 m 0
 547 719 618 658 618 567 c 0
 618 414 449 303 336 222 c 0
 218 139 198 122 169 84 c 1
 520 84 l 1
 501 0 l 1
 28 0 l 1
 57 145 313 287 380 348 c 0
 512 452 524 512 524 553 c 0
 524 601 487 647 414 647 c 0
 336 647 262 602 242 503 c 1
 153 512 l 1
 195 650 288 719 431 719 c 0
EndSplineSet
EndChar
StartChar: three
Encoding: 51 51 20
Width: 556
VWidth: 2048
Flags: W
HStem: -12 72<215.898 363.472> 349 66<314 358.694> 518 21G<136 264.5> 647 72<326.776 472.888>
VStem: 80 93<104.016 190> 466 95<165.253 309.915> 501 94<486.826 619.468>
Fore
267 -12 m 0xfc
 117 -12 80 85 80 166 c 0
 80 173 81 182 81 190 c 1
 173 201 l 1
 173 108 208 59 282 60 c 0
 401 60 466 171 466 245 c 0xfc
 466 285 443 349 351 349 c 0
 334 349 314 345 288 339 c 1
 314 415 l 1
 341 415 352 416 380 422 c 0
 468 441 501 504 501 564 c 0
 501 614 464 647 406 647 c 0
 333 647 281 604 248 518 c 1
 164 533 l 1
 213 658 299 719 420 719 c 0
 557 719 595 633 595 575 c 0xfa
 595 517 569 433 460 388 c 1
 527 372 561 331 561 265 c 0
 561 116 435 -12 267 -12 c 0xfc
EndSplineSet
EndChar
StartChar: four
Encoding: 52 52 21
Width: 556
VWidth: 2048
Flags: W
HStem: 0 21G<323 416.302> 172 81<153 360 466 546> 696 20G<473.598 564>
Fore
323 0 m 1
 360 172 l 1
 49 172 l 1
 66 253 l 1
 492 716 l 1
 564 716 l 1
 466 253 l 1
 563 253 l 1
 546 172 l 1
 449 172 l 1
 412 0 l 1
 323 0 l 1
377 253 m 1
 446 575 l 1
 153 253 l 1
 377 253 l 1
EndSplineSet
EndChar
StartChar: five
Encoding: 53 53 22
Width: 556
VWidth: 2048
Flags: W
HStem: -12 72<211.968 363.739> 401 78<297.138 434.05> 631 85<330 617>
VStem: 79 95<99.4144 188.532> 478 98<192.565 357.87>
Back
268 -12 m 0
 153 -12 80 51 80 156 c 0
 80 167 80 178 81 189 c 1
 175 195 l 1
 175 104 204 60 284 60 c 0
 392 60 478 167 478 279 c 0
 478 337 453 397 354 397 c 0
 297 397 250 374 208 328 c 1
 129 339 l 1
 277 707 l 1
 633 707 l 1
 615 622 l 1
 328 622 l 1
 251 429 l 1
 300 460 348 475 394 475 c 0
 539 475 575 371 575 297 c 0
 575 152 452 -12 268 -12 c 0
EndSplineSet
Fore
284 60 m 0
 397 60 478 176 478 283 c 0
 478 342 451 401 355 401 c 0
 298 401 250 378 210 332 c 1
 130 343 l 1
 279 716 l 1
 635 716 l 1
 617 631 l 1
 330 631 l 1
 251 433 l 1
 301 464 349 479 395 479 c 0
 514 479 576 406 576 304 c 0
 576 155 454 -12 268 -12 c 0
 150 -12 79 51 79 160 c 0
 79 170 80 179 81 189 c 1
 174 195 l 1
 174 182 l 2
 174 102 210 60 284 60 c 0
EndSplineSet
EndChar
StartChar: six
Encoding: 54 54 23
Width: 556
VWidth: 2048
Flags: W
HStem: -12 72<227.893 373.514> 386 78<297.881 436.322> 647 72<348.831 491.622>
VStem: 92 90<108.885 258.497> 474 93<178.856 347.691> 524 89<541 611.612>
Fore
448 719 m 0xf8
 531 719 613 687 613 558 c 2
 613 541 l 1
 524 535 l 1xf4
 523 609 492 647 426 647 c 0
 301 647 233 505 204 369 c 1
 259 434 323 464 397 464 c 0
 511 464 567 383 567 294 c 0
 567 192 523 117 464 60 c 0
 414 12 353 -12 284 -12 c 0
 156 -12 92 57 92 195 c 0
 92 235 97 282 109 336 c 0
 162 592 276 719 448 719 c 0xf8
365 386 m 0
 246 386 182 276 182 185 c 0
 182 141 205 60 297 60 c 0
 415 60 474 190 474 277 c 0xf8
 474 323 452 386 365 386 c 0
EndSplineSet
EndChar
StartChar: seven
Encoding: 55 55 24
Width: 556
VWidth: 2048
Flags: W
HStem: 0 21G<147 253.5> 631 85<200 533>
VStem: 147 91<21.6782 203.705>
Back
179 622 m 1
 198 707 l 1
 661 707 l 1
 647 639 l 1
 553 558 471 458 395 343 c 0
 320 227 270 112 238 0 c 1
 147 0 l 1
 173 106 221 216 293 331 c 0
 362 443 441 541 530 622 c 1
 179 622 l 1
EndSplineSet
Fore
182 631 m 1
 200 716 l 1
 662 716 l 1
 648 648 l 1
 556 567 470 462 396 347 c 0
 322 231 269 112 238 0 c 1
 147 0 l 1
 173 106 222 220 293 335 c 0
 363 447 443 550 533 631 c 1
 182 631 l 1
EndSplineSet
EndChar
StartChar: eight
Encoding: 56 56 25
Width: 556
VWidth: 2048
Flags: W
HStem: -12 72<214.823 372.895> 351 71<298.704 425.208> 647 72<337.872 478.333>
VStem: 78 92<103.029 249.461> 178 93<448.399 582.462> 471 90<158.241 306.207> 509 92<488.253 616.616>
Fore
78 155 m 0xfc
 78 232 117 354 259 388 c 1
 207 411 178 446 178 498 c 0
 178 592 264 719 429 719 c 0
 572 719 601 626 601 576 c 0xfa
 601 512 571 428 461 388 c 1
 527 365 561 320 561 256 c 0
 561 122 446 -12 273 -12 c 0
 153 -12 78 55 78 155 c 0xfc
414 647 m 0
 356 647 271 606 271 507 c 0
 271 453 309 422 366 422 c 0
 462 422 509 501 509 559 c 0
 509 604 478 647 414 647 c 0
471 241 m 0xfc
 471 287 440 351 349 351 c 0
 245 351 170 255 170 170 c 0
 170 123 199 60 290 60 c 0
 405 60 471 159 471 241 c 0xfc
EndSplineSet
EndChar
StartChar: nine
Encoding: 57 57 26
Width: 556
VWidth: 2048
Flags: W
HStem: -12 72<206.142 350.99> 242 78<271.909 402.927> 647 72<340.542 479.021>
VStem: 89 87<88.4062 166> 136 92<364.203 528.909> 523 87<452.178 603.283>
Fore
253 -12 m 0xec
 122 -12 89 75 89 139 c 0
 89 147 89 156 90 166 c 1
 176 173 l 1xf4
 176 98 203 60 270 60 c 0
 410 60 477 226 497 337 c 1
 443 274 380 242 307 242 c 0
 242 242 195 267 162 313 c 0
 146 342 136 377 136 417 c 0
 136 557 241 719 420 719 c 0
 572 719 610 602 610 521 c 0
 610 481 604 432 592 372 c 0
 536 116 425 -12 253 -12 c 0xec
343 320 m 0
 459 320 523 437 523 526 c 0
 523 572 501 647 415 647 c 0
 315 647 228 545 228 434 c 0xec
 228 383 258 320 343 320 c 0
EndSplineSet
EndChar
StartChar: colon
Encoding: 58 58 27
Width: 277
VWidth: 2048
Flags: W
HStem: 0 100<112 192> 418 100<201 281>
VStem: 90 212<0 518>
Fore
179 418 m 1
 201 518 l 1
 302 518 l 1
 281 418 l 1
 179 418 l 1
90 0 m 1
 112 100 l 1
 213 100 l 1
 192 0 l 1
 90 0 l 1
EndSplineSet
EndChar
StartChar: semicolon
Encoding: 59 59 28
Width: 277
VWidth: 2048
Flags: W
HStem: 418 100<199 279>
VStem: 61 239<-104 518>
Fore
178 418 m 1
 199 518 l 1
 300 518 l 1
 279 418 l 1
 178 418 l 1
89 0 m 1
 110 100 l 1
 212 100 l 1
 190 0 l 2
 175 -71 138 -118 77 -141 c 1
 61 -104 l 1
 100 -89 126 -54 138 0 c 1
 89 0 l 1
EndSplineSet
EndChar
StartChar: less
Encoding: 60 60 29
Width: 583
VWidth: 2048
Flags: W
HStem: 110 486<552 656>
Fore
121 313 m 1
 139 395 l 1
 656 596 l 1
 638 509 l 1
 228 354 l 1
 570 198 l 1
 552 110 l 1
 121 313 l 1
EndSplineSet
EndChar
StartChar: equal
Encoding: 61 61 30
Width: 583
VWidth: 2048
Flags: W
HStem: 204 83<116 572> 422 81<162 618>
Fore
618 422 m 1
 144 422 l 1
 162 503 l 1
 636 503 l 1
 618 422 l 1
572 204 m 1
 98 204 l 1
 116 287 l 1
 590 287 l 1
 572 204 l 1
EndSplineSet
EndChar
StartChar: greater
Encoding: 62 62 31
Width: 583
VWidth: 2048
Flags: W
HStem: 110 486<78 182>
Fore
595 313 m 1
 78 110 l 1
 97 198 l 1
 506 354 l 1
 164 509 l 1
 182 596 l 1
 613 395 l 1
 595 313 l 1
EndSplineSet
EndChar
StartChar: question
Encoding: 63 63 32
Width: 556
VWidth: 2048
Flags: W
HStem: 0 100<247 325> 656 72<334.753 490.643>
VStem: 530 94<489.336 618.276>
Fore
431 728 m 0
 586 728 624 636 624 576 c 0
 624 499 580 450 538 414 c 0
 494 377 454 342 418 308 c 0
 389 279 368 236 353 176 c 1
 267 176 l 1
 276 241 317 323 353 349 c 0
 392 377 441 418 503 475 c 0
 519 490 530 528 530 556 c 0
 530 616 486 656 417 656 c 0
 337 656 279 609 244 510 c 1
 155 521 l 1
 201 659 293 728 431 728 c 0
225 0 m 1
 247 100 l 1
 346 100 l 1
 325 0 l 1
 225 0 l 1
EndSplineSet
EndChar
StartChar: at
Encoding: 64 64 33
Width: 1014
VWidth: 2048
Flags: W
HStem: -210 72<363.68 671.789> -2 82<636 764.018> -2 73<396.117 500.483> 457 73<525.173 655.448> 658 72<536.823 808.956>
VStem: 89 77<24.8813 210.137> 279 92<98.2943 265.353> 964 75<302.359 516.13>
Fore
981 9 m 1xdf
 881 -140 679 -210 504 -210 c 0
 302 -210 173 -146 116 -15 c 0
 98 23 89 67 89 116 c 0
 89 162 99 399 319 595 c 0
 423 685 546 730 693 730 c 0
 811 730 903 696 966 628 c 0
 1015 576 1039 512 1039 437 c 0
 1039 308 986 207 897 115 c 0
 822 37 743 -2 662 -2 c 0
 610 -2 582 18 582 58 c 0
 582 64 582 72 584 80 c 1xdf
 527 26 471 -2 417 -2 c 0xbf
 300 -2 279 110 279 156 c 0
 279 330 457 530 607 530 c 0
 670 530 711 500 734 440 c 1
 766 515 l 1
 854 515 l 1
 714 189 l 2
 696 144 685 118 685 112 c 1
 684 107 684 104 684 101 c 0
 684 87 693 80 711 80 c 0
 746 80 791 104 846 155 c 0
 928 227 964 329 964 420 c 0
 964 534 884 658 674 658 c 0
 379 658 166 394 166 133 c 0
 166 -84 365 -138 518 -138 c 0
 679 -138 805 -89 894 9 c 1
 981 9 l 1xdf
685 360 m 0
 685 418 653 457 596 457 c 0
 546 457 497 428 452 369 c 0
 388 289 371 209 371 169 c 0
 371 128 387 71 451 71 c 0xbf
 573 71 685 246 685 360 c 0
EndSplineSet
EndChar
StartChar: A
Encoding: 65 65 34
Width: 666
VWidth: 2048
Flags: W
HStem: 0 21G<-2 111.376 557.606 670> 218 76<268 510> 696 20G<414.045 530.994>
Fore
-2 0 m 1
 426 716 l 1
 527 716 l 1
 670 0 l 1
 561 0 l 1
 524 218 l 1
 224 218 l 1
 100 0 l 1
 -2 0 l 1
268 294 m 1
 510 294 l 1
 478 492 l 2
 468 558 461 607 458 641 c 1
 441 596 417 550 391 504 c 2
 268 294 l 1
EndSplineSet
EndChar
StartChar: B
Encoding: 66 66 35
Width: 666
VWidth: 2048
Flags: W
HStem: 0 84<187 477.316> 331 84<258 524.149> 632 84<303 575.471>
VStem: 563 101<159.845 296.614> 601 96<484.713 607.367>
Fore
697 576 m 0xe8
 697 498 657 425 559 382 c 1
 628 359 664 316 664 251 c 0xf0
 664 90 541 0 346 0 c 2
 74 0 l 1
 225 716 l 1
 494 716 l 2
 603 716 697 676 697 576 c 0xe8
601 555 m 0xe8
 601 617 556 632 446 632 c 2
 303 632 l 1
 258 415 l 1
 412 415 l 2
 577 415 601 495 601 555 c 0xe8
563 239 m 0xf0
 563 294 531 331 405 331 c 2
 239 331 l 1
 187 84 l 1
 365 84 l 2
 487 84 563 137 563 239 c 0xf0
EndSplineSet
EndChar
StartChar: C
Encoding: 67 67 36
Width: 721
VWidth: 2048
Flags: W
HStem: -12 81<295.591 499.643> 647 81<411.118 613.303>
VStem: 115 98<153.557 399.073> 684 98<510.779 587.986>
Fore
213 261 m 0
 213 107 304 69 394 69 c 0
 507 69 590 130 642 251 c 1
 731 227 l 1
 656 67 540 -12 383 -12 c 0
 169 -12 115 123 115 248 c 0
 115 380 161 525 270 625 c 0
 343 694 435 728 543 728 c 0
 691 728 769 659 782 520 c 1
 684 498 l 1
 673 598 619 647 524 647 c 0
 275 647 213 389 213 261 c 0
EndSplineSet
EndChar
StartChar: D
Encoding: 68 68 37
Width: 721
VWidth: 2048
Flags: W
HStem: 0 84<190 469.587> 632 84<307 582.634>
VStem: 661 99<425.752 558.419>
Fore
475 716 m 2
 640 716 760 669 760 480 c 0
 760 445 756 405 746 362 c 0
 696 121 558 0 336 0 c 2
 77 0 l 1
 228 716 l 1
 475 716 l 2
661 463 m 0
 661 598 579 632 457 632 c 2
 307 632 l 1
 190 84 l 1
 343 84 l 2
 404 84 518 87 589 205 c 0
 650 306 661 432 661 463 c 0
EndSplineSet
EndChar
StartChar: E
Encoding: 69 69 38
Width: 666
VWidth: 2048
Flags: W
HStem: 0 84<192 613> 328 84<261 639> 632 84<308 733>
Fore
80 0 m 1
 231 716 l 1
 750 716 l 1
 733 632 l 1
 308 632 l 1
 261 412 l 1
 658 412 l 1
 639 328 l 1
 242 328 l 1
 192 84 l 1
 632 84 l 1
 613 0 l 1
 80 0 l 1
EndSplineSet
EndChar
StartChar: F
Encoding: 70 70 39
Width: 610
VWidth: 2048
Flags: W
HStem: 0 21G<83 180.246> 325 86<264 581> 632 84<311 700>
Fore
83 0 m 1
 235 716 l 1
 717 716 l 1
 700 632 l 1
 311 632 l 1
 264 411 l 1
 599 411 l 1
 581 325 l 1
 245 325 l 1
 176 0 l 1
 83 0 l 1
EndSplineSet
EndChar
StartChar: G
Encoding: 71 71 40
Width: 777
VWidth: 2048
Flags: W
HStem: -12 86<315.901 554.598> 281 84<490 682> 647 81<429.414 650.19>
VStem: 118 100<170.074 396.244> 723 91<515 571.006>
Fore
218 271 m 0
 218 176 260 74 429 74 c 0
 512 74 589 98 653 147 c 1
 682 281 l 1
 472 281 l 1
 490 365 l 1
 794 365 l 1
 737 100 l 1
 627 25 520 -12 415 -12 c 0
 300 -12 219 20 172 86 c 0
 135 133 118 190 118 256 c 0
 118 380 170 531 281 625 c 0
 359 694 454 728 567 728 c 0
 728 728 811 658 814 515 c 1
 723 492 l 1
 717 596 659 647 550 647 c 0
 284 647 218 392 218 271 c 0
EndSplineSet
EndChar
StartChar: H
Encoding: 72 72 41
Width: 721
VWidth: 2048
Flags: W
HStem: 0 21G<80 179.273 547 646.246> 337 85<264 619> 696 20G<226.782 326 694.714 794>
Fore
80 0 m 1
 231 716 l 1
 326 716 l 1
 264 422 l 1
 636 422 l 1
 699 716 l 1
 794 716 l 1
 642 0 l 1
 547 0 l 1
 619 337 l 1
 247 337 l 1
 175 0 l 1
 80 0 l 1
EndSplineSet
EndChar
StartChar: I
Encoding: 73 73 42
Width: 277
VWidth: 2048
Flags: W
HStem: 0 21G<94 193.218> 696 20G<240.782 340>
VStem: 94 246<0 716>
Fore
94 0 m 1
 245 716 l 1
 340 716 l 1
 189 0 l 1
 94 0 l 1
EndSplineSet
EndChar
StartChar: J
Encoding: 74 74 43
Width: 499
VWidth: 2048
Flags: W
HStem: -12 84<174.748 308.69> 696 20G<472.732 572>
VStem: 60 93<94.9919 179.086>
Fore
71 204 m 1
 158 215 l 1
 155 196 153 179 153 166 c 0
 153 103 179 72 235 72 c 0
 344 72 360 165 372 224 c 2
 477 716 l 1
 572 716 l 1
 469 228 l 2
 434 67 351 -12 216 -12 c 0
 112 -12 60 34 60 124 c 0
 60 147 63 175 71 204 c 1
EndSplineSet
EndChar
StartChar: K
Encoding: 75 75 44
Width: 666
VWidth: 2048
Flags: W
HStem: 0 21G<74 173.194 531.11 665> 696 20G<220.782 320 651.786 803>
Fore
74 0 m 1
 225 716 l 1
 320 716 l 1
 245 360 l 1
 676 716 l 1
 803 716 l 1
 441 426 l 1
 665 0 l 1
 541 0 l 1
 362 362 l 1
 221 248 l 1
 169 0 l 1
 74 0 l 1
EndSplineSet
EndChar
StartChar: L
Encoding: 76 76 45
Width: 556
VWidth: 2048
Flags: W
HStem: 0 84<187 521> 696 20G<220.782 320>
VStem: 74 466<0 84>
Fore
74 0 m 1
 225 716 l 1
 320 716 l 1
 187 84 l 1
 540 84 l 1
 521 0 l 1
 74 0 l 1
EndSplineSet
EndChar
StartChar: M
Encoding: 77 77 46
Width: 832
VWidth: 2048
Flags: W
HStem: 0 21G<74 170.262 369.508 469.219 667 761.246> 696 20G<220.782 371.349 770.874 909>
Fore
74 0 m 1
 225 716 l 1
 369 716 l 1
 441 103 l 1
 782 716 l 1
 909 716 l 1
 757 0 l 1
 667 0 l 1
 794 599 l 1
 458 0 l 1
 372 0 l 1
 296 610 l 1
 166 0 l 1
 74 0 l 1
EndSplineSet
EndChar
StartChar: N
Encoding: 78 78 47
Width: 721
VWidth: 2048
Flags: W
HStem: 0 21G<77 171.263 533.906 645.218> 696 20G<223.782 334.127 695.758 792>
Fore
77 0 m 1
 228 716 l 1
 325 716 l 1
 581 155 l 1
 700 716 l 1
 792 716 l 1
 641 0 l 1
 543 0 l 1
 287 563 l 1
 167 0 l 1
 77 0 l 1
EndSplineSet
EndChar
StartChar: O
Encoding: 79 79 48
Width: 777
VWidth: 2048
Flags: W
HStem: -12 81<306.88 516.515> 647 83<425.817 629.624>
VStem: 113 97<166.244 395.43> 723 99<316.589 552.727>
Fore
388 -12 m 0
 222 -12 113 90 113 262 c 0
 113 542 336 730 546 730 c 0
 721 730 822 609 822 458 c 0
 822 228 656 -12 388 -12 c 0
530 647 m 0
 274 647 210 372 210 265 c 0
 210 145 283 69 406 69 c 0
 624 69 723 290 723 449 c 0
 723 572 654 647 530 647 c 0
EndSplineSet
EndChar
StartChar: P
Encoding: 80 80 49
Width: 666
VWidth: 2048
Flags: W
HStem: 0 21G<77 176.192> 291 85<251 548.738> 632 84<307 602.734>
VStem: 638 101<457.536 601.83>
Fore
77 0 m 1
 228 716 l 1
 500 716 l 2
 655 716 739 678 739 561 c 0
 739 403 628 291 417 291 c 2
 233 291 l 1
 172 0 l 1
 77 0 l 1
638 544 m 0
 638 606 599 632 490 632 c 2
 307 632 l 1
 251 376 l 1
 437 376 l 2
 566 376 638 435 638 544 c 0
EndSplineSet
EndChar
StartChar: Q
Encoding: 81 81 50
Width: 777
VWidth: 2048
Flags: W
HStem: -12 81<303.335 469.486> 647 83<412.334 623.113>
VStem: 107 100<167.698 399.272> 716 103<327.934 554.705>
Fore
380 -12 m 0
 162 -12 107 149 107 256 c 0
 107 502 282 730 541 730 c 0
 713 730 819 631 819 471 c 0
 819 314 745 165 636 77 c 1
 673 46 710 25 743 11 c 1
 702 -55 l 1
 655 -37 610 -8 566 32 c 1
 507 3 445 -12 380 -12 c 0
207 270 m 0
 207 179 246 69 402 69 c 0
 435 69 468 75 500 89 c 1
 475 107 448 121 415 129 c 1
 454 198 l 1
 504 182 544 159 573 129 c 1
 671 204 716 335 716 448 c 0
 716 576 646 647 524 647 c 0
 270 647 207 376 207 270 c 0
EndSplineSet
EndChar
StartChar: R
Encoding: 82 82 51
Width: 721
VWidth: 2048
Flags: W
HStem: 0 21G<78 177.263 581.812 710> 319 81<258 435.266> 638 78<308 632.008>
VStem: 667 101<474.732 607.332>
Fore
78 0 m 1
 230 716 l 1
 547 716 l 2
 721 716 768 666 768 569 c 0
 768 430 675 348 518 325 c 1
 563 305 598 261 627 195 c 2
 710 0 l 1
 590 0 l 1
 529 149 l 2
 485 240 468 319 351 319 c 2
 241 319 l 1
 173 0 l 1
 78 0 l 1
461 400 m 2
 636 400 667 491 667 552 c 0
 667 609 624 638 535 638 c 2
 308 638 l 1
 258 400 l 1
 461 400 l 2
EndSplineSet
EndChar
StartChar: S
Encoding: 83 83 52
Width: 666
VWidth: 2048
Flags: W
HStem: -12 84<250.894 471.562> 645 83<350.995 563.748>
VStem: 89 95<135.632 224.725> 181 95<470.485 580.785> 569 93<152.581 269.145> 612 95<518.969 600.135>
Fore
348 -12 m 0xd8
 201 -12 89 43 89 179 c 0
 89 196 90 212 94 230 c 1
 185 238 l 1
 185 230 184 222 184 216 c 0
 184 120 244 72 362 72 c 0
 436 72 569 104 569 218 c 0xe8
 569 286 492 305 376 331 c 0
 212 373 181 429 181 494 c 0
 181 634 315 728 478 728 c 0
 605 728 707 679 707 558 c 0
 707 544 705 529 702 513 c 1
 610 507 l 1
 612 515 612 524 612 530 c 0xd4
 612 607 563 645 464 645 c 0
 362 645 276 604 276 518 c 0
 276 427 427 435 538 391 c 0
 635 357 662 303 662 245 c 0
 662 112 539 -12 348 -12 c 0xd8
EndSplineSet
EndChar
StartChar: T
Encoding: 84 84 53
Width: 610
VWidth: 2048
Flags: W
HStem: 0 21G<259 358.272> 632 84<175 394 489 727>
Fore
259 0 m 1
 394 632 l 1
 158 632 l 1
 175 716 l 1
 743 716 l 1
 727 632 l 1
 489 632 l 1
 354 0 l 1
 259 0 l 1
EndSplineSet
EndChar
StartChar: U
Encoding: 85 85 54
Width: 721
VWidth: 2048
Flags: W
HStem: -12 86<276.298 483.212> 696 20G<225.797 325 694.787 794>
VStem: 127 98<121.948 236.839>
Fore
225 204 m 0
 225 126 259 74 369 74 c 0
 531 74 583 162 612 303 c 2
 699 716 l 1
 794 716 l 1
 707 302 l 2
 667 113 578 -12 359 -12 c 0
 180 -12 127 64 127 178 c 0
 127 215 132 256 143 302 c 2
 230 716 l 1
 325 716 l 1
 238 303 l 2
 230 265 225 231 225 204 c 0
EndSplineSet
EndChar
StartChar: V
Encoding: 86 86 55
Width: 666
VWidth: 2048
Flags: W
HStem: 0 21G<278.508 392.039> 696 20G<157 261.968 703.258 811>
Fore
282 0 m 1
 157 716 l 1
 259 716 l 1
 351 96 l 1
 715 716 l 1
 811 716 l 1
 380 0 l 1
 282 0 l 1
EndSplineSet
EndChar
StartChar: W
Encoding: 87 87 56
Width: 944
VWidth: 2048
Flags: W
HStem: 0 21G<200.939 308.746 643.762 745.749> 696 20G<164 261.582 559.034 685.164 980.685 1085>
VStem: 164 97<659.474 716>
Fore
202 0 m 1
 164 716 l 1
 261 716 l 1
 278 132 l 1
 569 716 l 1
 684 716 l 1
 718 132 l 1
 990 716 l 1
 1085 716 l 1
 736 0 l 1
 645 0 l 1
 606 630 l 1
 299 0 l 1
 202 0 l 1
EndSplineSet
EndChar
StartChar: X
Encoding: 88 88 57
Width: 666
VWidth: 2048
Flags: W
HStem: 0 21G<5 136.658 534.067 661> 696 20G<189 311.738 650 793>
Fore
5 0 m 1
 361 374 l 1
 189 716 l 1
 302 716 l 1
 432 449 l 1
 432 449 610 632 690 716 c 1
 793 716 l 1
 470 379 l 1
 661 0 l 1
 544 0 l 1
 396 298 l 1
 118 0 l 1
 5 0 l 1
EndSplineSet
EndChar
StartChar: Y
Encoding: 89 89 58
Width: 666
VWidth: 2048
Flags: W
HStem: 0 21G<279 378.224> 696 20G<155 278.93 683.569 811>
Fore
279 0 m 1
 343 303 l 1
 155 716 l 1
 270 716 l 1
 416 389 l 1
 701 716 l 1
 811 716 l 1
 438 303 l 1
 374 0 l 1
 279 0 l 1
EndSplineSet
EndChar
StartChar: Z
Encoding: 90 90 59
Width: 610
VWidth: 2048
Flags: W
HStem: 0 84<147 586> 632 84<213 589>
Fore
20 0 m 1
 39 89 l 1
 589 632 l 1
 195 632 l 1
 213 716 l 1
 727 716 l 1
 709 632 l 1
 147 84 l 1
 604 84 l 1
 586 0 l 1
 20 0 l 1
EndSplineSet
EndChar
StartChar: bracketleft
Encoding: 91 91 60
Width: 277
VWidth: 2048
Flags: W
HStem: -199 73<130 219> 644 72<293 399>
VStem: 25 389<-199 716>
Fore
25 -199 m 1
 219 716 l 1
 414 716 l 1
 399 644 l 1
 293 644 l 1
 130 -126 l 1
 236 -126 l 1
 219 -199 l 1
 25 -199 l 1
EndSplineSet
EndChar
StartChar: backslash
Encoding: 92 92 61
Width: 277
VWidth: 2048
Flags: W
HStem: -12 21G<202.676 274> 708 20G<155 226.324>
VStem: 155 119<-12 728> 204 70<-12 724.995>
Fore
204 -12 m 1xd0
 155 728 l 1
 225 728 l 1
 274 -12 l 1xe0
 204 -12 l 1xd0
EndSplineSet
EndChar
StartChar: bracketright
Encoding: 93 93 62
Width: 277
VWidth: 2048
Flags: W
HStem: -199 73<-8 100> 644 72<170 262>
VStem: -25 390<-199 716>
Fore
170 -199 m 1
 -25 -199 l 1
 -8 -126 l 1
 100 -126 l 1
 262 644 l 1
 155 644 l 1
 170 716 l 1
 365 716 l 1
 170 -199 l 1
EndSplineSet
EndChar
StartChar: asciicircum
Encoding: 94 94 63
Width: 469
VWidth: 2048
Flags: W
HStem: 337 391<189 354>
VStem: 98 417<337 337>
Fore
189 337 m 1
 98 337 l 1
 354 728 l 1
 425 728 l 1
 515 337 l 1
 426 337 l 1
 368 628 l 1
 189 337 l 1
EndSplineSet
EndChar
StartChar: underscore
Encoding: 95 95 64
Width: 556
VWidth: 2048
Flags: W
HStem: -199 64<-44 526>
Fore
-58 -199 m 1
 -44 -135 l 1
 540 -135 l 1
 526 -199 l 1
 -58 -199 l 1
EndSplineSet
EndChar
StartChar: grave
Encoding: 96 96 65
Width: 332
VWidth: 2048
Flags: W
HStem: 700 20G<196 319.362>
VStem: 196 155<582 720>
Fore
351 582 m 1
 281 582 l 1
 196 720 l 1
 314 720 l 1
 351 582 l 1
EndSplineSet
EndChar
StartChar: a
Encoding: 97 97 66
Width: 556
VWidth: 2048
Flags: W
HStem: -12 69<173.333 318.319> 458 72<275.77 451.397>
VStem: 60 97<73.3567 175.423> 418 86<15.0099 62.5169> 475 92<361.405 435.054>
Fore
370 458 m 0xe8
 281 458 247 427 212 359 c 1
 131 371 l 1
 175 477 265 530 398 530 c 0
 510 530 567 507 567 414 c 0xe8
 567 391 564 365 557 334 c 2
 509 106 l 2
 506 90 504 74 504 59 c 0
 504 39 507 19 513 0 c 1
 422 0 l 1
 419 12 418 26 418 41 c 0xf0
 418 48 418 56 419 64 c 1
 348 14 278 -12 210 -12 c 0
 122 -12 60 29 60 103 c 0
 60 142 77 217 166 264 c 0
 233 302 362 296 467 330 c 1
 472 344 475 364 475 383 c 0
 475 433 440 458 370 458 c 0xe8
452 261 m 1
 343 219 157 240 157 117 c 0
 157 77 188 57 247 57 c 0
 377 57 427 142 445 228 c 2
 452 261 l 1
EndSplineSet
EndChar
StartChar: b
Encoding: 98 98 67
Width: 556
VWidth: 2048
Flags: W
HStem: -12 73<229.554 368.279> 458 72<316.692 450.961> 696 20G<211.754 305>
VStem: 490 91<218.759 416.565>
Fore
581 351 m 0
 581 176 466 -12 288 -12 c 0
 227 -12 184 14 161 64 c 1
 147 0 l 1
 64 0 l 1
 216 716 l 1
 305 716 l 1
 251 461 l 1
 297 507 351 530 409 530 c 0
 547 530 581 430 581 351 c 0
386 458 m 0
 263 458 193 310 193 182 c 0
 193 104 228 61 297 61 c 0
 420 61 490 213 490 334 c 0
 490 390 469 458 386 458 c 0
EndSplineSet
EndChar
StartChar: c
Encoding: 99 99 68
Width: 499
VWidth: 2048
Flags: W
HStem: -12 73<212.954 367.449> 458 72<295.113 443.022>
VStem: 84 91<98.5391 303.231> 472 89<366 428.366>
Fore
84 176 m 0
 84 282 145 530 389 530 c 0
 504 530 561 478 561 369 c 0
 561 366 l 1
 472 353 l 1
 472 423 439 458 376 458 c 0
 244 458 175 321 175 181 c 0
 175 101 212 61 287 61 c 0
 362 61 414 104 445 190 c 1
 528 179 l 1
 486 66 394 -12 273 -12 c 0
 147 -12 84 61 84 176 c 0
EndSplineSet
EndChar
StartChar: d
Encoding: 100 100 69
Width: 556
VWidth: 2048
Flags: W
HStem: -12 73<214.079 348.231> 458 72<282.195 425.49> 696 20G<544.781 636>
VStem: 80 92<103.854 263.514>
Fore
254 -12 m 0
 143 -12 80 63 80 179 c 0
 80 204 83 230 89 259 c 0
 116 387 201 530 368 530 c 0
 428 530 469 507 495 460 c 1
 549 716 l 1
 636 716 l 1
 484 0 l 1
 403 0 l 1
 417 64 l 1
 372 14 319 -12 254 -12 c 0
360 458 m 0
 210 458 172 271 172 189 c 0
 172 113 207 61 279 61 c 0
 419 61 468 245 468 325 c 0
 468 386 446 458 360 458 c 0
EndSplineSet
EndChar
StartChar: e
Encoding: 101 101 70
Width: 556
VWidth: 2048
Flags: W
HStem: -12 73<224.555 377.664> 238 72<198 487> 458 72<297.459 453.543>
VStem: 81 94<108.943 237.557> 490 89<310.483 422.43>
Fore
175 193 m 0
 175 106 220 61 299 61 c 0
 365 61 415 97 457 167 c 1
 546 156 l 1
 490 44 403 -12 281 -12 c 0
 121 -12 81 90 81 175 c 0
 81 274 143 530 392 530 c 0
 476 530 579 493 579 346 c 0
 579 303 574 280 564 238 c 1
 178 238 l 1
 175 222 175 207 175 193 c 0
198 310 m 1
 487 310 l 1
 489 323 490 336 490 346 c 0
 490 420 452 458 379 458 c 0
 287 458 220 388 198 310 c 1
EndSplineSet
EndChar
StartChar: f
Encoding: 102 102 71
Width: 277
VWidth: 2048
Flags: W
HStem: 0 21G<87 179.213> 451 67<120 182 285 371> 648 80<321.25 427.818>
VStem: 87 379<0 720>
Fore
87 0 m 1
 182 451 l 1
 104 451 l 1
 120 518 l 1
 198 518 l 1
 210 575 l 2
 229 669 275 728 385 728 c 0
 411 728 438 725 466 720 c 1
 435 642 l 1
 420 647 402 648 386 648 c 0
 327 648 308 626 296 567 c 2
 285 518 l 1
 386 518 l 1
 371 451 l 1
 270 451 l 1
 175 0 l 1
 87 0 l 1
EndSplineSet
EndChar
StartChar: g
Encoding: 103 103 72
Width: 556
VWidth: 2048
Flags: W
HStem: -210 72<145.242 320.999> 0 72<207.589 346.838> 458 72<286.082 430.591>
VStem: 35 88<-114.836 -57.638> 80 90<111.231 309.534>
Fore
212 -210 m 0xe8
 63 -210 35 -137 35 -89 c 0
 35 -75 37 -60 41 -43 c 1
 123 -55 l 1
 123 -61 l 2xf0
 123 -112 156 -138 225 -138 c 0
 350 -138 384 -72 414 67 c 1
 366 23 314 0 256 0 c 0
 147 0 80 68 80 189 c 0
 80 344 183 530 369 530 c 0
 432 530 477 506 506 457 c 1
 520 518 l 1
 599 518 l 1
 504 71 l 2
 468 -98 403 -210 212 -210 c 0xe8
362 458 m 0
 238 458 170 311 170 190 c 0xe8
 170 112 207 72 281 72 c 0
 420 72 472 244 472 330 c 0
 472 386 450 458 362 458 c 0
EndSplineSet
EndChar
StartChar: h
Encoding: 104 104 73
Width: 556
VWidth: 2048
Flags: W
HStem: 0 21G<66 159.225 400 493.268> 455 75<325.391 452.01> 696 20G<213.754 307>
VStem: 475.298 93.271<353.741 433.718>
Fore
388 455 m 0
 279 455 237 385 215 284 c 2
 155 0 l 1
 66 0 l 1
 218 716 l 1
 307 716 l 1
 253 460 l 1
 303 507 360 530 423 530 c 0
 527 530 568.569 489.431 568.569 407.823 c 0
 568.569 384.555 565 358 559 328 c 2
 489 0 l 1
 400 0 l 1
 470 328 l 2
 474 345 475.298 359.428 475.298 372.752 c 0
 475.298 427.238 446 455 388 455 c 0
EndSplineSet
EndChar
StartChar: i
Encoding: 105 105 74
Width: 222
VWidth: 2048
Flags: W
HStem: 0 21G<66 159.247> 498 20G<171.753 265> 615 101<218 285>
VStem: 66 241<0 716>
Fore
196 615 m 1
 218 716 l 1
 307 716 l 1
 285 615 l 1
 196 615 l 1
66 0 m 1
 176 518 l 1
 265 518 l 1
 155 0 l 1
 66 0 l 1
EndSplineSet
EndChar
StartChar: j
Encoding: 106 106 75
Width: 222
VWidth: 2048
Flags: W
HStem: -210 77<-49.7344 30.8466> 498 20G<170.699 264> 615 101<216 284>
VStem: -89 394<-201 716>
Fore
195 615 m 1
 216 716 l 1
 305 716 l 1
 284 615 l 1
 195 615 l 1
-89 -201 m 1
 -57 -127 l 1
 -40 -130 -26 -133 -15 -133 c 0
 29 -133 47 -102 58 -26 c 2
 175 518 l 1
 264 518 l 1
 147 -29 l 2
 113 -185 49 -210 -21 -210 c 0
 -44 -210 -67 -207 -89 -201 c 1
EndSplineSet
EndChar
StartChar: k
Encoding: 107 107 76
Width: 499
VWidth: 2048
Flags: W
HStem: 0 21G<66 159.195 379.321 497> 498 20G<448.095 587> 696 20G<213.754 307>
Fore
66 0 m 1
 218 716 l 1
 307 716 l 1
 221 308 l 1
 472 518 l 1
 587 518 l 1
 346 326 l 1
 497 0 l 1
 388 0 l 1
 273 265 l 1
 198 205 l 1
 155 0 l 1
 66 0 l 1
EndSplineSet
EndChar
StartChar: l
Encoding: 108 108 77
Width: 222
VWidth: 2048
Flags: W
HStem: 0 21G<64 156.218> 696 20G<211.754 303>
VStem: 64 239<0 716>
Fore
64 0 m 1
 216 716 l 1
 303 716 l 1
 152 0 l 1
 64 0 l 1
EndSplineSet
EndChar
StartChar: m
Encoding: 109 109 78
Width: 832
VWidth: 2048
Flags: W
HStem: 0 21G<66 159.222 374 467.238 682 773.27> 454 76<318.506 436.12 630.513 741.558>
VStem: 757 95<365.263 438.734>
Fore
66 0 m 1
 176 518 l 1
 254 518 l 1
 239 446 l 1
 288 503 346 530 415 530 c 0
 492 530 532 500 541 440 c 1
 595 500 656 530 722 530 c 0
 809 530 852 492 852 415 c 0
 852 397 849 377 845 356 c 2
 769 0 l 1
 682 0 l 1
 751 326 l 2
 756 346 757 363 757 379 c 0
 757 429 734 454 685 454 c 0
 601 454 549 403 527 302 c 2
 463 0 l 1
 374 0 l 1
 446 337 l 2
 449 354 451 368 451 382 c 0
 451 429 428 454 379 454 c 0
 277 454 235 377 212 270 c 2
 155 0 l 1
 66 0 l 1
EndSplineSet
EndChar
StartChar: n
Encoding: 110 110 79
Width: 556
VWidth: 2048
Flags: W
HStem: 0 21G<66 159.225 400 491.211> 454 76<321.626 451.414>
VStem: 474 93<355.125 432.052>
Fore
66 0 m 1
 176 518 l 1
 256 518 l 1
 241 446 l 1
 290 503 351 530 425 530 c 0
 520 530 567 489 567 406 c 0
 567 386 564 365 559 342 c 2
 487 0 l 1
 400 0 l 1
 468 316 l 2
 472 336 474 353 474 368 c 0
 474 425 445 454 388 454 c 0
 297 454 239 397 215 284 c 2
 155 0 l 1
 66 0 l 1
EndSplineSet
EndChar
StartChar: o
Encoding: 111 111 80
Width: 556
VWidth: 2048
Flags: W
HStem: -12 73<217.631 372.232> 458 72<294.578 447.54>
VStem: 78 92<107.392 302.088> 492 92<218.206 409.217>
Fore
273 -12 m 0
 117 -12 78 92 78 181 c 0
 78 318 167 530 389 530 c 0
 510 530 584 462 584 342 c 0
 584 214 503 -12 273 -12 c 0
374 458 m 0
 211 458 170 257 170 187 c 0
 170 109 212 61 290 61 c 0
 452 61 492 260 492 325 c 0
 492 387 468 458 374 458 c 0
EndSplineSet
EndChar
StartChar: p
Encoding: 112 112 81
Width: 556
VWidth: 2048
Flags: W
HStem: -12 73<229.928 372.159> 461 69<318.91 450.977>
VStem: 490 92<220.386 420.735>
Fore
582 345 m 0
 582 201 482 -12 287 -12 c 0
 231 -12 190 11 166 54 c 1
 112 -199 l 1
 23 -199 l 1
 176 518 l 1
 256 518 l 1
 241 451 l 1
 291 504 348 530 409 530 c 0
 547 530 582 429 582 345 c 0
386 461 m 0
 268 461 192 310 192 185 c 0
 192 125 213 61 299 61 c 0
 425 61 490 220 490 333 c 0
 490 395 469 461 386 461 c 0
EndSplineSet
EndChar
StartChar: q
Encoding: 113 113 82
Width: 556
VWidth: 2048
Flags: W
HStem: -12 73<215.268 349.128> 461 69<290.663 424.638>
VStem: 82 91<104.559 268.314>
Fore
91 264 m 0
 124 418 224 530 367 530 c 0
 432 530 476 504 501 449 c 1
 516 518 l 1
 594 518 l 1
 442 -199 l 1
 355 -199 l 1
 409 55 l 1
 367 11 316 -12 258 -12 c 0
 142 -12 82 71 82 185 c 0
 82 210 85 237 91 264 c 0
281 61 m 0
 406 61 468 215 468 324 c 0
 468 403 435 461 360 461 c 0
 231 461 173 290 173 188 c 0
 173 86 234 61 281 61 c 0
EndSplineSet
EndChar
StartChar: r
Encoding: 114 114 83
Width: 332
VWidth: 2048
Flags: W
HStem: 0 21G<64 157.354> 440 90<307.682 400.137>
VStem: 64 390<0 503>
Fore
64 0 m 1
 175 518 l 1
 254 518 l 1
 238 440 l 1
 284 500 328 530 369 530 c 0
 400 530 426 521 454 503 c 1
 406 420 l 1
 388 434 368 440 346 440 c 0
 300 440 265 414 241 360 c 0
 227 331 218 302 212 271 c 2
 153 0 l 1
 64 0 l 1
EndSplineSet
EndChar
StartChar: s
Encoding: 115 115 84
Width: 499
VWidth: 2048
Flags: W
HStem: -12 73<184.878 359.479> 458 72<243.234 412.188>
VStem: 63.8155 89.5705<91.307 155> 123.306 88.355<344.349 427.189> 402.188 95.337<103.457 195.26> 435.333 89.917<385 435.394>
Fore
497.525 184.599 m 0xd8
 497.525 67.0263 378 -12 250 -12 c 0
 125 -12 63.8155 39.6698 63.8155 144.83 c 0
 63.8155 148.166 64 152 64 155 c 1
 154 169 l 1
 154 164 153.386 159.334 153.386 154.753 c 0
 153.386 92.2512 191 61 266 61 c 0
 388 61 402.188 130.716 402.188 154.14 c 0xe8
 402.188 173.807 391 193 372 199 c 0
 247 239 123.306 248.454 123.306 349.502 c 0
 123.306 421.701 182 530 349 530 c 0
 498 530 525.25 467.311 525.25 397.021 c 0
 525.25 393.035 525 389 525 385 c 1
 435 374 l 1
 435 377 435.333 380.031 435.333 382.925 c 0xd4
 435.333 432.133 403 458 339 458 c 0
 233 458 211.661 410.45 211.661 378.75 c 0
 211.661 331.756 280 329 407 288 c 0
 456 271 497.525 243.324 497.525 184.599 c 0xd8
EndSplineSet
EndChar
StartChar: t
Encoding: 116 116 85
Width: 277
VWidth: 2048
Flags: W
HStem: -6 81<197.611 261.072> 451 67<128 179 280 354>
VStem: 102.33 93.574<34.3111 118.669>
Fore
195.904 108.334 m 0
 195.904 89.3111 202 75 235 75 c 0
 246 75 258 77 275 78 c 1
 271 0 l 1
 244 -5 223 -6 203 -6 c 0
 152 -6 102.33 7.43704 102.33 61.1852 c 0
 102.33 80.907 106 111 115 152 c 2
 179 451 l 1
 114 451 l 1
 128 518 l 1
 193 518 l 1
 221 647 l 1
 319 700 l 1
 280 518 l 1
 368 518 l 1
 354 451 l 1
 266 451 l 1
 201 147 l 2
 198 132 195.904 118.661 195.904 108.334 c 0
EndSplineSet
EndChar
StartChar: u
Encoding: 117 117 86
Width: 556
VWidth: 2048
Flags: W
HStem: -12 76<206.764 334.9> 498 20G<169.75 262 502.74 594>
VStem: 95.1679 94.2911<81.0949 167.146>
Fore
273 64 m 0
 383 64 425 133 448 241 c 2
 507 518 l 1
 594 518 l 1
 484 0 l 1
 406 0 l 1
 422 77 l 1
 370 17 308 -12 238 -12 c 0
 138 -12 95.1679 27.2634 95.1679 111.296 c 0
 95.1679 136.213 99 165 106 198 c 2
 174 518 l 1
 262 518 l 1
 201 231 l 2
 194 196 189.459 166.476 189.459 143.098 c 0
 189.459 87.3344 213 64 273 64 c 0
EndSplineSet
EndChar
StartChar: v
Encoding: 118 118 87
Width: 499
VWidth: 2048
Flags: W
HStem: 0 21G<206.602 302.892> 498 20G<122 218.95 497.3 599>
VStem: 122 477<518 518>
Fore
210 0 m 1
 122 518 l 1
 216 518 l 1
 275 118 l 1
 509 518 l 1
 599 518 l 1
 291 0 l 1
 210 0 l 1
EndSplineSet
EndChar
StartChar: w
Encoding: 119 119 88
Width: 721
VWidth: 2048
Flags: W
HStem: 0 21G<159.147 263.524 460.148 562.502> 498 20G<113 205.265 417.414 518.905 729.749 824>
VStem: 113 91<415.374 512.255> 444 74<399 518> 461 75<0 120>
Fore
161 0 m 1xf0
 113 518 l 1
 204 518 l 1
 230 107 l 1
 427 518 l 1
 518 518 l 1xf0
 536 120 l 1
 740 518 l 1
 824 518 l 1
 552 0 l 1
 461 0 l 1xe8
 444 399 l 1
 254 0 l 1
 161 0 l 1xf0
EndSplineSet
EndChar
StartChar: x
Encoding: 120 120 89
Width: 499
VWidth: 2048
Flags: W
Fore
8 0 m 1
 113 0 l 1
 290 193 l 1
 385 0 l 1
 494 0 l 1
 362 271 l 1
 588 518 l 1
 484 518 l 1
 326 346 l 1
 242 518 l 1
 131 518 l 1
 254 268 l 1
 8 0 l 1
EndSplineSet
EndChar
StartChar: y
Encoding: 121 121 90
Width: 499
VWidth: 2048
Flags: W
HStem: -210 84<47.4063 144.455> 498 20G<127 223.077 501.477 602>
Fore
21 -199 m 1
 27 -118 l 1
 46 -123 60 -126 76 -126 c 0
 116 -126 146 -110 164 -83 c 0
 205 -18 210 -7 213 0 c 1
 127 518 l 1
 220 518 l 1
 266 219 l 2
 272 175 276 135 277 98 c 1
 296 138 314 176 339 216 c 2
 513 518 l 1
 602 518 l 1
 292 -9 l 2
 236 -108 177 -210 75 -210 c 0
 58 -210 39 -207 21 -199 c 1
EndSplineSet
EndChar
StartChar: z
Encoding: 122 122 91
Width: 499
VWidth: 2048
Flags: W
HStem: 0 75<157.531 478> 448 70<149 438.098> 451 67<347.317 445>
Fore
20 0 m 1xa0
 35 71 l 1
 445 451 l 1xa0
 408 449 374 448 346 448 c 2
 133 448 l 1
 149 518 l 1xc0
 573 518 l 1
 561 461 l 1
 143 71 l 1
 182 74 219 75 254 75 c 2
 494 75 l 1
 478 0 l 1
 20 0 l 1xa0
EndSplineSet
EndChar
StartChar: braceleft
Encoding: 123 123 92
Width: 334
VWidth: 2048
Flags: W
HStem: -210 77<202.23 266> 651 77<358.524 449>
VStem: 149 82<33.321 198.273>
Fore
198 -97 m 0
 198 -122 219 -133 268 -133 c 2
 283 -133 l 1
 266 -210 l 1
 239 -210 l 2
 191 -210 159 -202 140 -184 c 0
 122 -166 112 -142 112 -114 c 0
 112 -111 113 -107 113 -103 c 2
 142 58 l 2
 147 83 149 105 149 125 c 0
 149 187 125 218 75 219 c 1
 92 299 l 1
 199 301 213 397 240 521 c 0
 279 722 359 728 439 728 c 2
 466 728 l 1
 449 651 l 1
 434 651 l 2
 397 651 373 644 357 628 c 0
 347 616 337 590 329 552 c 2
 304 432 l 2
 289 386 265 304 164 259 c 1
 209 239 231 197 231 131 c 0
 231 60 198 -43 198 -97 c 0
EndSplineSet
EndChar
StartChar: bar
Encoding: 124 124 93
Width: 259
VWidth: 2048
Flags: W
HStem: 708 20G<242.757 323>
VStem: 48 275<-210 728>
Fore
48 -210 m 1
 247 728 l 1
 323 728 l 1
 124 -210 l 1
 48 -210 l 1
EndSplineSet
EndChar
StartChar: braceright
Encoding: 125 125 94
Width: 334
VWidth: 2048
Flags: W
HStem: -210 77<-5 83.1506> 219 80<313.273 354> 651 77<178 240.539>
VStem: 209.33 86.427<314.03 515.038> 246.421 81.839<532.225 644.423>
CounterMasks: 1 e0
Fore
295.757 381.38 m 0xf0
 295.757 328.237 309 301 371 299 c 1
 354 219 l 1
 256 217 233 134 211 35 c 0
 192 -55 175 -113 157 -139 c 0
 120 -193 84 -210 6 -210 c 2
 -22 -210 l 1
 -5 -133 l 1
 10 -133 l 2
 78 -133 99 -113 116 -32 c 2
 141 87 l 2
 168 185 213 230 279 259 c 1
 233 284 209.33 322.441 209.33 375.089 c 0xf0
 209.33 420.739 246.421 584.482 246.421 604.467 c 0
 246.421 640.251 231 651 176 651 c 2
 161 651 l 1
 178 728 l 1
 206 728 l 2
 308 728 328.26 687.902 328.26 627.755 c 0xe8
 328.26 553.842 295.757 467.611 295.757 381.38 c 0xf0
EndSplineSet
EndChar
StartChar: asciitilde
Encoding: 126 126 95
Width: 583
VWidth: 2048
Flags: W
HStem: 273 92<417.954 557.83> 339 92<177.321 321.712>
Fore
466 273 m 0x80
 383 273 313 339 242 339 c 0x40
 202 339 156 316 101 273 c 1x80
 123 372 l 1
 164 411 215 431 270 431 c 0x40
 356 431 433 365 494 365 c 0
 538 365 584 388 635 432 c 1
 612 328 l 1
 564 291 517 273 466 273 c 0x80
EndSplineSet
EndChar
StartChar: ellipsis
Encoding: 133 8230 100
Width: 570
VWidth: 2048
Flags: W
HStem: 0 118<85.3055 166.142 272.306 353.142 461.206 541.338>
VStem: 66.6437 119.798<19.6017 99.3348> 253.644 119.798<19.6017 99.3348> 442.398 119.05<19.6754 99.6322>
Fore
561.448 77.8513 m 0
 561.448 49.1729 547 0 489 0 c 0
 458 0 442.398 16.1818 442.398 47.0899 c 0
 442.398 71.692 457 118 514 118 c 0
 545 118 561.448 104.617 561.448 77.8513 c 0
373.442 77.7853 m 0
 373.442 48.9375 359 0 300 0 c 0
 270 0 253.644 16.9546 253.644 49.3027 c 0
 253.644 70.1756 268 118 325 118 c 0
 357 118 373.442 104.595 373.442 77.7853 c 0
186.442 77.7853 m 0
 186.442 48.9375 172 0 113 0 c 0
 83 0 66.6437 16.9546 66.6437 49.3027 c 0
 66.6437 70.1756 81 118 138 118 c 0
 170 118 186.442 104.595 186.442 77.7853 c 0
EndSplineSet
EndChar
StartChar: uni0E48.low_left
Encoding: 134 63237 101
Width: 0
Flags: W
VStem: -147 117<665 887>
Back
-106 665 m 1
 -175 665 l 1
 -127 887 l 1
 -58 887 l 1
 -106 665 l 1
EndSplineSet
Refer: 106 63242 N 1 0 0 1 -99 0 2
EndChar
StartChar: uni0E49.low_left
Encoding: 135 63238 102
Width: 0
Flags: W
HStem: 798 42<-347.187 -295> 932 43<-336.429 -259.799>
VStem: -399 49<843.009 918.414> -257 48<853.008 929.849>
Back
-15 796 m 1
 -15 796 l 0
 -51 757 -86 727 -161 696 c 0
 -213 674 -259 667 -297 667 c 0
 -317 667 -334 668 -351 671 c 1
 -336 679 -320 693 -308 707 c 0
 -299 717 -284 733 -282 740 c 1
 -288 740 -293 739 -297 739 c 0
 -325 739 -340 750 -354 766 c 0
 -360 774 -363 785 -363 797 c 0
 -363 838 -331 892 -274 900 c 0
 -267 901 -261 901 -254 901 c 0
 -205 901 -190 868 -190 835 c 0
 -190 831 -190 828 -190 823 c 0
 -196 768 -244 717 -247 717 c 0
 -199 727 -169 740 -127 768 c 0
 -69 803 -38 832 5 891 c 1
 -15 796 l 1
-285 777 m 0
 -253 777 -235 805 -235 829 c 0
 -235 846 -245 861 -268 861 c 0
 -300 861 -320 834 -320 811 c 0
 -320 792 -310 777 -285 777 c 0
EndSplineSet
Refer: 107 63243 N 1 0 0 1 -199 0 2
EndChar
StartChar: uni0E4C.low_left
Encoding: 138 63241 105
Width: 0
Flags: W
HStem: 667 43<-170.237 -92.4893> 802 41<-160.893 -83.4541>
VStem: -238 65<722.338 790.165> -81 48<721.552 799.016>
Back
67 972 m 1
 67 972 l 0
 61 960 54 917 -3 889 c 0
 -71 855 -143 877 -201 851 c 0
 -231 837 -238 812 -241 809 c 1
 -224 820 -213 826 -185 826 c 0
 -150 826 -124 802 -124 766 c 0
 -124 760 -124 756 -126 750 c 0
 -136 699 -179 670 -224 668 c 0
 -228 668 l 0
 -281 668 -308 707 -308 754 c 0
 -308 773 -303 792 -294 812 c 0
 -258 891 -192 912 -90 912 c 0
 -11 912 -8 969 -2 972 c 1
 67 972 l 1
-218 707 m 0
 -187 707 -167 733 -167 756 c 0
 -167 774 -178 789 -202 789 c 0
 -233 789 -251 762 -251 739 c 0
 -251 722 -241 707 -218 707 c 0
EndSplineSet
Refer: 110 63246 S 1 0 0 1 -99 0 2
EndChar
StartChar: uni0E48.low
Encoding: 139 63242 106
Width: 0
Flags: W
VStem: -48 117<665 887>
AnchorPoint: "AboveBase" 26 659 mark 0
Fore
21 665 m 1
 -48 665 l 1
 0 887 l 1
 69 887 l 1
 21 665 l 1
EndSplineSet
EndChar
StartChar: uni0E49.low
Encoding: 140 63243 107
Width: 0
Flags: W
HStem: 798 42<-148.187 -96> 932 43<-137.429 -60.7988>
VStem: -200 49<843.009 918.414> -58 48<853.008 929.849>
AnchorPoint: "AboveBase" 26 659 mark 0
Fore
-10 904 m 0
 -10 871 -22 819 -94 742 c 1
 -3 750 54 785 77 802 c 0
 98 817 152 851 199 926 c 1
 190 881 182 842 178 820 c 1
 172 806 97 734 11 707 c 0
 -32 693 -76 686 -116 686 c 0
 -155 686 -189 692 -215 705 c 1
 -159 735 -115 791 -113 799 c 1
 -118 798 -124 798 -129 798 c 0
 -166 798 -200 823 -200 865 c 0
 -200 911 -163 975 -80 975 c 0
 -26 975 -10 939 -10 904 c 0
-113 840 m 0
 -79 840 -58 871 -58 897 c 0
 -58 916 -69 932 -94 932 c 0
 -129 932 -151 901 -151 875 c 0
 -151 856 -139 840 -113 840 c 0
EndSplineSet
EndChar
StartChar: uni0E4A.low
Encoding: 141 63244 108
Width: 0
Flags: W
HStem: 661 32<-184.179 -127.428> 753 32<-169.595 -123.48> 832 49<-164.911 -71.4387> 835 46<-48.726 19.6695>
VStem: -236 51<693.366 779.66> -123 35<697.964 752.732> 24 56<739.065 831.961>
AnchorPoint: "AboveBase" 26 659 mark 0
Back
201 831 m 1
 201 831 l 0
 187 792 166 765 136 736 c 0
 81 682 21 661 -48 665 c 1
 -34 673 3 708 18 754 c 0
 28 788 28 829 -5 834 c 0
 -35 838 -64 817 -71 809 c 1
 -72 817 -103 838 -132 831 c 0
 -161 823 -179 799 -184 771 c 1
 -169 780 -156 785 -133 785 c 0
 -98 785 -81 754 -90 722 c 0
 -100 687 -133 659 -173 661 c 0
 -233 665 -253 731 -222 803 c 0
 -204 845 -170 877 -126 881 c 0
 -95 884 -72 869 -64 845 c 1
 -44 868 -15 881 15 881 c 0
 58 881 83 846 80 800 c 0
 74 748 38 710 35 705 c 1
 71 722 97 743 120 776 c 0
 144 809 158 860 161 874 c 1
 201 831 l 1
-147 753 m 0
 -187 753 -201 693 -161 693 c 0
 -121 693 -107 753 -147 753 c 0
EndSplineSet
Fore
35 705 m 1xde
 69 721 137 762 161 874 c 1
 201 831 l 1
 187 792 166 765 136 736 c 0
 85 686 30 665 -32 665 c 2
 -48 665 l 1
 -25 678 24 733 24 791 c 0
 24 812 17 835 -13 835 c 0xde
 -40 835 -65 816 -71 809 c 1
 -72 816 -95 832 -120 832 c 0
 -146 832 -177 810 -184 771 c 1
 -169 780 -156 785 -133 785 c 0
 -104 785 -88 764 -88 739 c 0
 -88 703 -122 661 -169 661 c 0
 -209 661 -236 692 -236 739 c 0
 -236 799 -193 881 -118 881 c 0xee
 -91 881 -71 867 -64 845 c 1
 -44 868 -15 881 15 881 c 0
 56 881 80 850 80 807 c 0
 80 757 36 706 35 705 c 1xde
-147 753 m 0
 -170 753 -185 732 -185 715 c 0
 -185 703 -178 693 -161 693 c 0
 -138 693 -123 714 -123 731 c 0
 -123 743 -130 753 -147 753 c 0
EndSplineSet
EndChar
StartChar: uni0E4B.low
Encoding: 142 63245 109
Width: 0
Flags: W
HStem: 752 66<-93 -25 58 126>
VStem: -107 247<752 818>
AnchorPoint: "AboveBase" 127.075 659 mark 0
Fore
140 818 m 1
 126 752 l 1
 44 752 l 1
 39 731 25 664 26 668 c 1
 -43 668 l 1
 -25 752 l 1
 -107 752 l 1
 -93 818 l 1
 -11 818 l 1
 7 902 l 1
 76 902 l 1
 58 818 l 1
 140 818 l 1
EndSplineSet
EndChar
StartChar: uni0E4C.low
Encoding: 143 63246 110
Width: 0
Flags: W
HStem: 667 43<-71.2367 6.5107> 802 41<-61.8932 15.5459>
VStem: -139 65<722.338 790.165> 18 48<721.552 799.016>
AnchorPoint: "AboveBase" 26 659 mark 0
Fore
66 777 m 0
 66 711 5 667 -48 667 c 0
 -107 667 -139 710 -139 763 c 0
 -139 784 -134 806 -123 828 c 0
 -80 915 -8 938 104 940 c 0
 195 941 198 1002 202 1006 c 1
 277 1006 l 1
 273 992 264 946 202 914 c 0
 127 875 49 901 -18 871 c 0
 -51 855 -60 829 -63 825 c 1
 -43 837 -34 843 -2 843 c 0
 37 843 66 818 66 777 c 0
-74 746 m 0
 -74 732 -66 710 -35 710 c 0
 -2 710 18 740 18 766 c 0
 18 785 7 802 -18 802 c 0
 -53 802 -74 772 -74 746 c 0
EndSplineSet
EndChar
StartChar: uni0E0D.descless
Encoding: 144 63247 111
Width: 800
Flags: W
HStem: -2 50<164.322 242.768> 0 66<367 409 478 642.597> 139 51<195.607 253.779> 532 61<264.059 468.991>
VStem: 101 60<50.8331 113.248> 256 51<61.7414 136.11> 490 69<431.494 445 445 455.023 455.023 462.5 458.762 509.006>
Fore
307 119 m 0x7e
 307 67 264 -2 184 -2 c 0xbe
 123 -2 101 32 101 73 c 0
 101 82 102 92 104 101 c 2
 151 322 l 2
 155 340 167 365 187 389 c 0
 204 412 232 426 232 426 c 1
 203 460 136 483 110 487 c 1
 135 513 248 593 400 593 c 0
 513 593 562 541 562 477 c 0
 562 467 561 458 559 448 c 2
 478 66 l 1
 604 66 l 2
 624 66 643 77 650 107 c 2
 752 590 l 1
 821 590 l 1
 714 87 l 2
 700 17 640 0 615 0 c 2
 353 0 l 1
 367 66 l 1
 409 66 l 1
 490 445 l 2
 491 452 492 459 492 465 c 0
 492 506 459 532 363 532 c 0
 284 532 235 501 235 501 c 1
 238 501 276 483 297 466 c 0
 322 448 344 423 344 423 c 1
 331 423 237 400 217 308 c 2
 191 184 l 1
 191 184 207 190 229 190 c 0
 258 190 307 174 307 119 c 0x7e
219 139 m 0
 184 139 161 110 161 84 c 0
 161 64 173 48 199 48 c 0
 233 48 256 78 256 105 c 0
 256 123 245 139 219 139 c 0
EndSplineSet
EndChar
StartChar: quoteleft
Encoding: 145 8216 112
Width: 268
Flags: W
HStem: 572 20G<238 250>
VStem: 143 79<509 589>
Fore
202 446 m 0
 152 446 143 479 143 509 c 0
 143 573 194 694 322 719 c 1
 313 679 l 1
 299 676 276 664 251 641 c 0
 231 621 222 592 222 589 c 1
 228 590 235 592 241 592 c 0
 259 592 296 581 296 538 c 0
 296 502 266 446 202 446 c 0
EndSplineSet
EndChar
StartChar: quoteright
Encoding: 146 8217 113
Width: 278
Flags: W
HStem: 708 20G<255 305.5>
VStem: 271 83<586 668>
Fore
293 728 m 0
 318 728 354 716 354 668 c 0
 354 612 302 481 172 455 c 1
 181 495 l 1
 195 498 218 510 242 533 c 0
 262 553 271 582 271 586 c 1
 265 584 258 582 251 582 c 0
 233 582 198 593 198 638 c 0
 198 667 217 728 293 728 c 0
EndSplineSet
EndChar
StartChar: quotedblleft
Encoding: 147 8220 114
Width: 484
Flags: W
HStem: 569 20G<254.5 273 484 496.5>
VStem: 159 80<506 589>
Fore
448 443 m 0
 395 443 386 485 386 506 c 0
 386 565 445 692 567 716 c 1
 559 676 l 1
 546 673 523 661 498 638 c 0
 478 618 469 589 468 586 c 1
 475 587 481 589 487 589 c 0
 506 589 544 579 544 536 c 0
 544 494 511 443 448 443 c 0
219 446 m 0
 178 446 159 472 159 506 c 0
 159 562 211 693 339 719 c 1
 330 679 l 1
 317 676 293 664 270 641 c 0
 248 621 239 592 239 589 c 1
 245 590 251 592 258 592 c 0
 288 592 314 569 314 538 c 0
 314 507 292 446 219 446 c 0
EndSplineSet
EndChar
StartChar: quotedblright
Encoding: 148 8221 115
Width: 531
Flags: W
HStem: 705 20G<264 315.5 496.5 544.5>
VStem: 282 83<586 668>
Fore
530 725 m 0
 559 725 590 712 590 662 c 0
 590 602 539 477 412 452 c 1
 420 492 l 1
 435 495 457 507 483 530 c 0
 501 550 510 579 512 582 c 1
 506 581 498 579 492 579 c 0
 461 579 435 603 435 635 c 0
 435 671 463 725 530 725 c 0
302 728 m 0
 329 728 365 716 365 668 c 0
 365 613 312 481 182 455 c 1
 192 495 l 1
 204 498 228 510 251 533 c 0
 273 553 282 582 282 586 c 1
 276 584 268 582 262 582 c 0
 232 582 207 606 207 638 c 0
 207 666 226 728 302 728 c 0
EndSplineSet
EndChar
StartChar: bullet
Encoding: 149 8226 116
Width: 528
Flags: W
Fore
293 98 m 0
 199 98 158 158 158 227 c 0
 158 322 235 434 363 434 c 0
 457 434 498 374 498 305 c 0
 498 210 422 98 293 98 c 0
EndSplineSet
EndChar
StartChar: endash
Encoding: 150 8211 117
Width: 548
Flags: W
HStem: 258 68<110 578>
VStem: 97 495<258 326>
Fore
578 258 m 1
 97 258 l 1
 110 326 l 1
 592 326 l 1
 578 258 l 1
EndSplineSet
EndChar
StartChar: emdash
Encoding: 151 8212 118
Width: 709
Flags: W
HStem: 258 68<110 737>
Fore
737 258 m 1
 97 258 l 1
 110 326 l 1
 751 326 l 1
 737 258 l 1
EndSplineSet
EndChar
StartChar: uni0E4C.left
Encoding: 159 63255 126
Width: 0
Flags: W
HStem: 891 39<-80.6608 -9.79275> 1012 36<-59.0737 -1.29472>
VStem: -141 58<932.333 1003.1> 0 44<938.253 1010.34>
Back
153 1194 m 1
 153 1194 l 0
 149 1185 141 1143 90 1119 c 0
 31 1090 -35 1108 -89 1085 c 0
 -112 1074 -121 1052 -124 1048 c 1
 -107 1058 -100 1064 -74 1064 c 0
 -40 1064 -18 1042 -18 1009 c 0
 -18 1004 -18 998 -20 993 c 0
 -29 949 -67 921 -107 920 c 0
 -156 920 -184 956 -184 1001 c 0
 -184 1018 -179 1035 -172 1052 c 0
 -139 1119 -80 1142 12 1142 c 0
 84 1142 87 1193 92 1194 c 2
 153 1194 l 1
-103 955 m 0
 -75 955 -57 979 -57 1001 c 0
 -57 1016 -66 1030 -87 1030 c 0
 -115 1030 -133 1006 -133 984 c 0
 -133 969 -124 955 -103 955 c 0
EndSplineSet
Refer: 200 3660 N 1 0 0 1 -56 0 2
EndChar
StartChar: uni0E01
Encoding: 161 3585 128
Width: 626
Flags: W
HStem: 0 21G<100 173.221 451 524.265> 532 61<293.291 508.281>
VStem: 543 71<422.648 499.389>
Fore
249 426 m 1
 219 461 150 484 127 487 c 1
 152 512 281 593 417 593 c 0
 539 593 614 544 614 458 c 0
 614 447 613 435 610 422 c 2
 520 0 l 1
 451 0 l 1
 540 418 l 2
 542 428 543 437 543 445 c 0
 543 507 489 532 411 532 c 0
 330 532 275 504 264 498 c 1
 281 493 348 441 361 423 c 1
 348 423 254 400 234 308 c 2
 169 0 l 1
 100 0 l 1
 168 322 l 2
 172 340 184 365 204 389 c 0
 221 412 249 426 249 426 c 1
EndSplineSet
EndChar
StartChar: uni0E02
Encoding: 162 3586 129
Width: 648
Flags: W
HStem: 0 66<196 270 339 472.049> 353 53<182.916 261.94> 536 57<293.745 383.876>
VStem: 125 55<408.89 485.43> 277 54<420.853 497.053> 399 70<405.2 520.002>
Fore
125 431 m 0
 125 497 187 593 319 593 c 0
 436 593 469 532 469 480 c 0
 469 403 400 354 388 297 c 2
 339 66 l 1
 423 66 l 2
 449 66 477 77 487 120 c 2
 586 590 l 1
 655 590 l 1
 555 118 l 2
 535 24 478 0 425 0 c 2
 182 0 l 1
 196 66 l 1
 270 66 l 1
 316 284 l 2
 339 387 399 396 399 473 c 0
 399 523 356 536 320 536 c 0
 310 536 301 535 292 533 c 1
 316 523 331 503 331 473 c 0
 331 419 286 353 204 353 c 0
 152 353 125 386 125 431 c 0
218 406 m 0
 253 406 277 439 277 463 c 0
 277 483 265 500 238 500 c 0
 202 500 180 468 180 442 c 0
 180 422 192 406 218 406 c 0
EndSplineSet
EndChar
StartChar: uni0E03
Encoding: 163 3587 130
Width: 677
Flags: MW
HStem: 0 66<253 324 393 506.718> 259 44<181.869 260.492> 400 47<209.405 273.359> 486 55<338 350> 567 20G<223.5 310.435 401.435 469 616.742 690>
VStem: 119 60<305.556 386.37> 276 46<317.182 396.64> 452 70<458.619 504.207>
Fore
322 375 m 0
 322 311 271 259 207 259 c 0
 168 259 119 279 119 350 c 0
 119 420 167 539 280 587 c 1
 350 541 l 1
 441 587 l 1
 497 550 522 489 522 487 c 1
 515 454 l 1
 514 452 487 423 466 411 c 1
 393 66 l 1
 460 66 l 2
 501 66 517 93 522 119 c 2
 621 584 l 1
 690 584 l 1
 591 118 l 2
 570 20 501 0 460 0 c 2
 239 0 l 1
 253 66 l 1
 324 66 l 1
 399 418 l 2
 400 424 452 452 452 476 c 0
 452 498 422 523 419 523 c 1
 338 486 l 1
 278 523 l 1
 221 499 201 445 199 437 c 1
 214 444 229 447 243 447 c 0
 305 447 322 410 322 375 c 0
237 400 m 0
 201 400 179 369 179 339 c 0
 179 320 189 303 216 303 c 0
 252 303 276 334 276 363 c 0
 276 383 264 400 237 400 c 0
EndSplineSet
EndChar
StartChar: uni0E04
Encoding: 164 3588 131
Width: 613
Flags: W
HStem: 0 21G<123 196.255 432 505.232> 228 49<249.331 328.824> 371 49<260.626 339.055> 532 61<282.335 472.911>
VStem: 101 63<253.637 417.282> 342 53<291.219 367.831> 519 71<401.664 489.578>
Fore
101 329 m 0
 101 442 195 593 408 593 c 0
 526 593 590 531 590 442 c 0
 590 428 588 413 585 397 c 2
 501 0 l 1
 432 0 l 1
 516 394 l 2
 518 405 519 416 519 426 c 0
 519 491 473 532 380 532 c 0
 234 532 164 422 164 327 c 0
 164 284 178 255 180 253 c 1
 193 317 l 2
 201 353 239 420 313 420 c 0
 361 420 395 394 395 347 c 0
 395 279 337 228 278 228 c 0
 256 228 242 235 242 235 c 1
 192 0 l 1
 123 0 l 1
 144 98 l 2
 146 106 146 114 146 122 c 0
 146 164 101 241 101 329 c 0
304 371 m 0
 269 371 247 341 247 313 c 0
 247 293 258 277 284 277 c 0
 319 277 342 307 342 335 c 0
 342 355 330 371 304 371 c 0
EndSplineSet
EndChar
StartChar: uni0E05
Encoding: 165 3589 132
Width: 591
Flags: MW
HStem: 0 21G<101 182.5 406 479.251> 231 45<270.048 355.796> 377 49<283.713 367.152> 472 69<364 377> 573 20G<259.5 342.538 429.923 488>
VStem: 79 65<200.172 406.668> 371 47<291.255 372.826> 498 70<423.002 520.084>
Fore
106 65 m 0
 106 154 79 198 79 287 c 0
 79 471 198 551 321 593 c 1
 377 541 l 1
 463 593 l 1
 513 582 568 542 568 460 c 0
 568 446 566 431 563 414 c 2
 475 0 l 1
 406 0 l 1
 493 409 l 2
 497 427 498 442 498 456 c 0
 498 497 483 521 457 535 c 1
 364 472 l 1
 295 535 l 1
 235 508 144 440 144 325 c 0
 144 266 163 203 165 199 c 1
 165 215 198 426 338 426 c 0
 380 426 418 401 418 350 c 0
 418 312 396 234 293 231 c 0
 256 231 237 248 237 248 c 1
 218 201 192 113 173 0 c 1
 101 0 l 1
 102 15 106 32 106 65 c 0
330 377 m 0
 291 377 266 344 266 316 c 0
 266 295 280 276 309 276 c 0
 348 276 371 309 371 339 c 0
 371 360 358 377 330 377 c 0
EndSplineSet
EndChar
StartChar: uni0E06
Encoding: 166 3590 133
Width: 770
Flags: MW
HStem: -3 58<247.086 303.024> -1 68<538.692 595.366> 189 62<270.808 328> 265 45<162.51 242.625> 406 46<190.304 254.146> 492 55<320 331> 573 20G<236 291.435 382.435 452.5 709.751 783>
VStem: 100 60<313.559 392.732> 183 62<56.1619 139.341> 257 45<323.478 402.453>
Fore
302 382 m 0xbbc0
 302 317 251 265 187 265 c 0
 148 265 100 286 100 356 c 0
 100 395 115 452 149 498 c 0
 180 544 211 570 261 593 c 1
 331 547 l 1
 422 593 l 1
 483 553 504 492 504 492 c 1
 497 460 l 2
 496 457 471 436 445 415 c 1
 409 246 l 1
 515 118 l 2
 534 98 547 67 575 67 c 0
 601 69 610 100 615 124 c 2
 714 590 l 1
 783 590 l 1
 687 136 l 2
 677 89 667 41 623 17 c 0
 602 5 583 -1 564 -1 c 0x7bc0
 537 -1 511 11 491 35 c 2
 390 156 l 1
 375 83 l 2
 365 37 318 -3 270 -3 c 0
 212 -3 183 36 183 86 c 0
 183 138 224 251 341 251 c 1
 378 425 l 1
 380 430 433 456 433 483 c 0
 433 507 402 529 400 529 c 1
 320 492 l 1
 259 529 l 1
 202 503 182 450 180 443 c 1
 195 449 211 452 226 452 c 0
 288 452 302 414 302 382 c 0xbbc0
218 406 m 0
 182 406 160 375 160 347 c 0
 160 327 171 310 198 310 c 0
 235 310 257 342 257 369 c 0
 257 389 245 406 218 406 c 0
270 55 m 0xbbc0
 299 55 304 76 308 95 c 2
 328 189 l 1
 291 189 261 177 248 118 c 0
 246 110 245 101 245 94 c 0
 245 72 253 55 270 55 c 0xbbc0
EndSplineSet
EndChar
StartChar: uni0E07
Encoding: 167 3591 134
Width: 496
Flags: W
HStem: -6 64<266.018 319.204> 401 50<345.306 394.831> 543 50<355.837 434.911>
VStem: 288 55<454.149 529.878> 438 55<477.021 539.746>
Fore
288 473 m 0
 288 526 332 593 411 593 c 0
 471 593 493 560 493 519 c 0
 493 509 492 500 490 490 c 2
 412 120 l 2
 402 75 389 34 348 12 c 0
 325 0 304 -6 284 -6 c 0
 256 -6 230 7 214 32 c 0
 186 74 197 164 154 207 c 0
 134 227 114 227 85 228 c 1
 99 291 l 1
 114 291 164 293 199 264 c 0
 268 208 236 58 295 58 c 0
 326 58 336 90 340 110 c 2
 404 408 l 1
 404 408 386 401 364 401 c 0
 323 401 288 426 288 473 c 0
400 543 m 0
 366 543 343 513 343 487 c 0
 343 467 355 451 381 451 c 0
 415 451 438 481 438 507 c 0
 438 527 426 543 400 543 c 0
EndSplineSet
EndChar
StartChar: uni0E08
Encoding: 168 3592 135
Width: 551
Flags: W
HStem: -3 61<317.245 388.166> 213 49<213.467 264.415> 356 50<225.151 302.059> 530 63<246.739 433.675>
VStem: 156 55<264.484 342.304> 242 73<60.3502 99.3828> 305 57<291.079 352.848> 468 72<424.46 498.067>
Fore
156 286 m 0xfd
 156 343 205 406 278 406 c 0
 339 406 362 373 362 332 c 0xfb
 362 322 360 312 358 302 c 2
 317 107 l 2
 316 102 315 97 315 92 c 0xfd
 315 74 324 58 349 58 c 0
 383 58 394 86 399 109 c 2
 465 418 l 2
 467 427 468 436 468 444 c 0
 468 500 423 530 350 530 c 0
 296 530 215 517 163 432 c 1
 110 460 l 1
 171 550 255 593 362 593 c 0xfb
 474 593 540 543 540 461 c 0
 540 450 539 438 536 426 c 2
 465 95 l 2
 453 37 396 -3 330 -3 c 0
 277 -3 242 26 242 69 c 0
 242 76 242 82 244 89 c 2
 272 219 l 1
 272 219 255 213 234 213 c 0
 188 213 156 241 156 286 c 0xfd
268 356 m 0
 234 356 211 325 211 298 c 0
 211 279 222 262 248 262 c 0
 282 262 305 293 305 320 c 0
 305 339 294 356 268 356 c 0
EndSplineSet
EndChar
StartChar: uni0E09
Encoding: 169 3593 136
Width: 596
Flags: W
HStem: -4 65<222.004 290.958 494.151 542.809> 182 56<523 552.428> 199 49<136.686 190.554> 340 51<146.7 226.418> 532 61<267.189 456.604>
VStem: 80 54<251.114 327.496> 168 72<37.8792 96.0928> 229 56<274.238 336.957> 423 67<57.6614 78.2154 70 86.4308 86.4308 95 95 96.8> 495 72<424.307 495.602> 559 63<70.069 166.605>
AnchorPoint: "AboveBase" 618 654 basechar 0
Fore
622 147 m 0xdca0
 622 101 597 -3 496 -3 c 0
 447 -3 423 24 423 60 c 0
 423 67 424 73 425 80 c 2
 440 152 l 1
 440 152 424 149 369 84 c 0
 323 30 282 -4 237 -4 c 0
 204 -4 168 10 168 60 c 0xdea0
 168 68 169 78 171 89 c 2
 196 205 l 1
 196 205 178 199 157 199 c 0
 112 199 80 226 80 271 c 0
 80 330 128 391 203 391 c 0
 263 391 285 357 285 316 c 0xbd80
 285 307 284 297 282 288 c 2
 244 106 l 2
 242 98 240 88 240 80 c 0
 240 69 243 61 255 61 c 0
 307 61 376 203 451 228 c 1
 492 418 l 2
 494 426 495 434 495 441 c 0
 495 498 444 532 372 532 c 0
 292 532 228 505 179 437 c 1
 133 466 l 1
 172 519 248 593 380 593 c 0
 493 593 567 544 567 462 c 0xbec0
 567 451 566 440 563 428 c 2
 523 238 l 1
 561 238 622 220 622 147 c 0xdca0
512 57 m 0
 539 57 559 96 559 132 c 0
 559 155 551 182 521 182 c 0
 515 182 511 181 510 181 c 1
 492 95 l 2
 491 88 490 82 490 78 c 0
 490 62 497 57 512 57 c 0
192 340 m 0
 156 340 134 310 134 285 c 0
 134 265 145 248 173 248 c 0
 207 248 229 276 229 305 c 0xbd80
 229 324 217 340 192 340 c 0
EndSplineSet
EndChar
StartChar: uni0E0A
Encoding: 170 3594 137
Width: 602
Flags: MW
HStem: 0 66<161 235 304 436.608> 353 53<147.578 226.783> 536 57<258.328 348.537>
VStem: 89 56<408.783 486.785> 240 55<419.094 497.118> 281 72<284 297> 505 70<365.299 436.389>
Back
676 569 m 1
 676 569 l 0
 673 567 645 543 598 524 c 0
 559 509 506 490 501 490 c 0
 503 490 538 478 558 451 c 0
 572 432 576 414 576 397 c 0
 576 388 575 379 573 371 c 2
 520 118 l 2
 517 98 510 69 489 46 c 0
 463 15 428 0 389 0 c 2
 147 0 l 1
 161 66 l 1
 235 66 l 1
 281 284 l 2
 285 305 288 319 299 340 c 0
 322 383 365 415 365 475 c 0
 365 477 l 0
 365 518 323 536 284 536 c 0
 274 536 265 535 258 533 c 1
 282 521 294 507 294 468 c 0
 293 428 261 360 181 354 c 0
 176 354 173 354 169 354 c 0
 116 354 90 385 90 429 c 0
 90 437 90 445 92 452 c 0
 104 527 178 587 262 592 c 0
 270 592 277 592 284 592 c 0
 382 592 423 552 434 497 c 0
 434 492 435 486 435 481 c 0
 435 440 415 400 389 366 c 0
 372 343 357 313 354 297 c 2
 305 66 l 1
 388 66 l 2
 405 66 422 71 432 83 c 0
 443 92 449 106 452 120 c 2
 501 353 l 2
 504 365 506 377 506 388 c 0
 506 402 501 415 492 429 c 0
 469 455 432 463 432 463 c 1
 429 515 l 1
 435 515 506 536 561 564 c 0
 618 592 664 636 664 638 c 1
 676 569 l 1
202 500 m 0
 167 500 144 468 144 441 c 0
 144 423 156 406 182 406 c 0
 218 406 241 438 241 464 c 0
 241 483 228 500 202 500 c 0
EndSplineSet
Fore
183 406 m 0
 217 406 240 435 240 464 c 0
 240 484 229 500 203 500 c 0
 168 500 145 470 145 442 c 0
 145 422 157 406 183 406 c 0
89 430 m 0
 89 497 152 593 283 593 c 0
 375 593 415 556 428 515 c 1
 442 517 509 538 561 564 c 0
 618 592 664 636 665 638 c 1
 676 569 l 1
 673 567 645 543 597 524 c 0
 559 509 506 490 501 490 c 1
 509 490 575 463 575 395 c 0
 575 388 574 380 572 371 c 2
 518 118 l 2
 499 28 449 0 389 0 c 2
 147 0 l 1
 161 66 l 1
 235 66 l 1
 281 284 l 2
 303 387 364 396 364 473 c 0
 364 523 320 536 285 536 c 0
 275 536 266 535 257 533 c 1
 277 524 295 508 295 475 c 0
 295 420 252 353 169 353 c 0
 115 353 89 387 89 430 c 0
433 463 m 1
 431 452 l 2
 417 386 365 352 353 297 c 2
 304 66 l 1
 388 66 l 2
 418 66 443 82 452 120 c 2
 501 353 l 2
 503 365 505 377 505 387 c 0
 505 443 442 461 433 463 c 1
EndSplineSet
EndChar
StartChar: uni0E0B
Encoding: 171 3595 138
Width: 648
Flags: MW
HStem: 0 66<216 290 359 445 445 492.327> 274 52<147.579 225.266> 420 51<188.654 237.543> 498 63<314 326> 575 20G<245.5 295.529 361.824 414.5>
VStem: 91 54<329.443 406.079> 240 55<339.97 417.601> 367 66<412 428> 560 72<365.299 435.973>
Back
731 569 m 1
 731 569 l 0
 728 567 700 543 653 524 c 0
 615 509 561 490 556 490 c 0
 558 490 593 478 613 451 c 0
 627 432 632 414 632 397 c 0
 632 388 630 379 628 371 c 2
 575 118 l 2
 572 98 566 69 544 46 c 0
 520 15 483 0 445 0 c 2
 202 0 l 1
 216 66 l 1
 290 66 l 1
 366 428 l 1
 423 475 l 1
 423 475 422 495 412 507 c 0
 399 529 388 532 388 532 c 1
 314 498 l 1
 256 532 l 1
 241 529 236 526 219 509 c 0
 199 492 189 471 189 468 c 1
 189 468 201 471 216 471 c 0
 248 471 294 460 294 394 c 0
 294 392 294 389 294 388 c 0
 291 348 261 279 181 274 c 0
 178 274 176 274 173 274 c 0
 116 274 90 307 90 354 c 0
 90 360 90 366 92 372 c 0
 107 536 248 595 251 595 c 2
 326 561 l 1
 412 593 l 2
 415 593 451 578 466 553 c 0
 474 538 484 523 486 507 c 2
 489 463 l 1
 434 412 l 1
 360 66 l 1
 445 66 l 2
 460 66 478 71 489 83 c 0
 498 92 504 106 507 120 c 2
 556 353 l 2
 559 365 561 377 561 388 c 0
 561 402 556 415 547 429 c 0
 526 455 489 463 489 463 c 1
 486 510 l 1
 489 510 561 536 616 564 c 0
 674 592 719 636 719 638 c 1
 731 569 l 1
204 420 m 0
 167 420 144 388 144 362 c 0
 144 343 156 326 182 326 c 0
 218 326 241 359 241 385 c 0
 241 403 230 420 204 420 c 0
EndSplineSet
Fore
182 326 m 0
 218 326 240 358 240 385 c 0
 240 404 229 420 204 420 c 0
 167 420 145 388 145 361 c 0
 145 342 156 326 182 326 c 0
445 66 m 2
 485 66 501 92 507 120 c 2
 556 353 l 2
 558 365 560 377 560 387 c 0
 560 448 489 463 489 463 c 1
 433 412 l 1
 359 66 l 1
 445 66 l 2
295 398 m 0
 295 345 255 274 174 274 c 0
 139 274 91 286 91 357 c 0
 91 513 239 595 252 595 c 1
 326 561 l 1
 413 595 l 1
 416 595 451 578 466 553 c 0
 473 539 484 525 486 510 c 1
 495 513 564 537 617 564 c 0
 675 592 719 636 720 638 c 1
 731 569 l 1
 728 567 701 543 652 524 c 0
 614 509 561 490 556 490 c 1
 561 490 632 466 632 396 c 0
 632 388 631 380 629 371 c 2
 575 118 l 2
 562 55 527 0 445 0 c 2
 202 0 l 1
 216 66 l 1
 290 66 l 1
 367 428 l 1
 423 475 l 1
 423 475 421 495 413 507 c 0
 399 529 387 532 387 532 c 1
 314 498 l 1
 256 532 l 1
 218 524 190 474 188 468 c 1
 188 468 200 471 216 471 c 0
 278 471 295 432 295 398 c 0
EndSplineSet
EndChar
StartChar: uni0E0C
Encoding: 172 3596 139
Width: 792
Flags: MW
HStem: -3 61<358.389 401.219> -2 51<148.802 227.506> -1 76<583.396 624.531> 141 49<184.636 238.31> 532 61<254.928 455.883>
VStem: 89 57<51.6154 114.322> 139 66<308 322> 241 54<62.6881 137.947> 303 55<64.1832 110.349> 482 70<447.875 507.151>
Fore
295 120 m 0x9dc0
 295 62 248 -2 173 -2 c 0x5dc0
 112 -2 89 33 89 74 c 0
 89 83 90 92 92 101 c 2
 139 322 l 2
 143 340 155 365 175 389 c 0
 192 412 220 426 220 426 c 1
 189 462 119 484 98 487 c 1
 123 513 229 587 371 593 c 0
 492 593 552 548 552 479 c 0
 552 469 551 459 549 449 c 2
 502 228 l 2
 502 227 535 224 556 167 c 0
 571 130 584 75 606 75 c 0
 620 75 624 89 627 103 c 2
 730 590 l 1
 799 590 l 1
 694 95 l 2
 685 53 660 -1 604 -1 c 0x3dc0
 572 -1 550 14 535 52 c 0
 513 107 486 149 486 149 c 1
 469 69 l 2
 462 36 423 -3 378 -3 c 0
 328 -3 303 35 303 82 c 0
 303 93 305 104 307 115 c 0
 329 217 395 233 436 239 c 1
 480 446 l 2
 481 452 482 458 482 463 c 0
 482 509 438 532 356 532 c 0
 272 532 236 498 236 498 c 1
 239 498 265 483 285 466 c 0
 307 451 333 423 333 423 c 1
 322 423 225 400 205 308 c 2
 179 184 l 1
 190 188 202 190 214 190 c 0
 253 190 295 170 295 120 c 0x9dc0
424 184 m 1
 365 184 358 100 358 87 c 0
 358 71 363 58 379 58 c 0x9dc0
 388 58 400 69 402 78 c 2
 424 184 l 1
203 141 m 0
 167 141 146 110 146 84 c 0
 146 65 157 49 183 49 c 0x5dc0
 220 49 241 80 241 106 c 0
 241 125 230 141 203 141 c 0
EndSplineSet
EndChar
StartChar: uni0E0D
Encoding: 173 3597 140
Width: 800
Flags: W
HStem: -278 66<423.932 518.67> -212 22<375 420> -104 47<353.595 426.552> -2 50<164.322 242.768> 0 66<367 409 478 642.597> 139 51<195.607 253.779> 532 61<264.059 468.991>
VStem: 101 60<50.8331 113.248> 256 51<61.7414 136.11> 288 54<-187.719 -114.836> 428 49<-179.071 -106.149> 490 69<431.494 445 445 455.023 455.023 462.5 458.762 509.006>
Back
740 110 m 1xfec0
 740 110 l 0
 736 86 733 64 716 43 c 0
 696 15 665 0 635 0 c 2
 388 0 l 1
 402 66 l 1
 445 66 l 1
 526 445 l 2
 527 451 527 458 527 463 c 0
 527 509 486 532 409 532 c 0
 323 532 282 498 282 498 c 2
 285 498 311 483 333 466 c 0
 353 451 380 423 380 423 c 1
 376 423 333 415 300 386 c 0
 276 366 259 339 253 308 c 2
 227 184 l 1
 227 184 244 190 265 190 c 0
 277 190 290 189 302 182 c 0
 326 172 342 149 342 118 c 0
 342 106 339 92 334 77 c 0
 316 29 270 -2 219 -2 c 0
 159 -2 136 32 136 74 c 0
 136 83 138 92 139 101 c 2
 187 322 l 2
 190 340 202 365 222 389 c 0
 239 412 267 426 267 426 c 1
 267 426 245 451 215 463 c 0
 187 475 172 483 146 487 c 1
 170 513 276 587 418 593 c 0
 425 593 429 593 435 593 c 0
 549 593 598 541 598 477 c 0
 598 468 596 457 595 448 c 2
 513 66 l 1
 625 66 l 2
 636 66 647 69 658 80 c 0
 670 90 670 101 673 113 c 2
 774 590 l 1
 843 590 l 1
 740 110 l 1xfec0
697 -61 m 1
 697 -61 l 0
 696 -78 677 -149 638 -198 c 0
 604 -239 544 -279 475 -284 c 0
 471 -284 464 -284 460 -284 c 0
 383 -284 320 -253 320 -184 c 0
 320 -170 l 0xfdc0
 325 -123 360 -64 432 -63 c 0
 483 -63 509 -94 509 -133 c 0
 509 -146 506 -161 500 -175 c 0
 484 -212 454 -218 452 -218 c 0
 454 -218 463 -224 481 -224 c 0
 490 -224 501 -222 513 -218 c 0
 550 -207 576 -185 599 -152 c 0
 618 -121 632 -61 632 -61 c 1
 697 -61 l 1
230 49 m 0
 230 49 l 0
 267 49 288 80 288 106 c 0xfec0
 288 124 276 141 250 141 c 0
 215 141 193 110 193 84 c 0
 193 66 204 49 230 49 c 0
426 -110 m 0
 394 -110 374 -139 374 -164 c 0xfdc0
 374 -181 383 -196 406 -196 c 0
 440 -196 460 -167 460 -143 c 0
 460 -126 449 -110 426 -110 c 0
EndSplineSet
Fore
307 119 m 0xefb0
 307 67 264 -2 184 -2 c 0xf7b0
 123 -2 101 32 101 73 c 0
 101 82 102 92 104 101 c 2
 151 322 l 2
 155 340 167 365 187 389 c 0
 204 412 232 426 232 426 c 1
 203 460 136 483 110 487 c 1
 135 513 248 593 400 593 c 0
 513 593 562 541 562 477 c 0
 562 467 561 458 559 448 c 2
 478 66 l 1
 604 66 l 2
 624 66 643 77 650 107 c 2
 752 590 l 1
 821 590 l 1
 714 87 l 2
 700 17 640 0 615 0 c 2
 353 0 l 1
 367 66 l 1
 409 66 l 1
 490 445 l 2
 491 452 492 459 492 465 c 0
 492 506 459 532 363 532 c 0
 284 532 235 501 235 501 c 1
 238 501 276 483 297 466 c 0
 322 448 344 423 344 423 c 1
 331 423 237 400 217 308 c 2
 191 184 l 1
 191 184 207 190 229 190 c 0
 258 190 307 174 307 119 c 0xefb0
219 139 m 0
 184 139 161 110 161 84 c 0
 161 64 173 48 199 48 c 0
 233 48 256 78 256 105 c 0
 256 123 245 139 219 139 c 0
477 -126 m 0
 477 -178 438 -212 420 -212 c 1
 421 -212 431 -217 449 -217 c 0
 476 -217 526 -205 568 -146 c 0
 587 -115 600 -55 600 -55 c 1
 666 -55 l 1
 666 -58 665 -61 664 -66 c 0
 638 -188 544 -278 430 -278 c 0
 355 -278 288 -249 288 -177 c 0xe770
 288 -122 326 -58 401 -57 c 0
 451 -57 477 -87 477 -126 c 0
375 -190 m 0
 407 -190 428 -161 428 -137 c 0
 428 -119 418 -104 394 -104 c 0
 362 -104 342 -133 342 -159 c 0
 342 -176 352 -190 375 -190 c 0
EndSplineSet
Substitution2: "Thai Descender Removal Single Substitution" uni0E0D.descless
EndChar
StartChar: uni0E0E
Encoding: 174 3598 141
Width: 668
Flags: W
HStem: -301 57<80.6605 171.703> -159 52<93.6297 212.377> -28 20G<315 387> -2 51<107.816 187.644> 141 49<118.153 198.694> 532 61<352.991 551.938>
VStem: 12 67<-241.637 -174.262> 51 54<52.5952 127.735> 579 71<424.453 506.836>
AnchorPoint: "BelowBase" 487.895 -311 basechar 0
Fore
51 72 m 0xfd80
 51 124 93 190 169 190 c 0
 190 190 205 184 205 184 c 1
 234 322 l 2
 250 394 311 425 313 426 c 1
 285 463 211 484 193 487 c 1
 216 513 338 593 474 593 c 0
 592 593 650 542 650 461 c 0
 650 447 648 433 645 418 c 2
 522 -162 l 1
 338 -317 l 1
 316 -280 286 -236 261 -218 c 1
 236 -242 172 -301 96 -301 c 0
 62 -301 12 -288 12 -234 c 0xfe80
 12 -178 61 -107 165 -107 c 0
 219 -107 255 -130 257 -132 c 1
 285 -98 312 -36 318 -8 c 1
 387 -8 l 1
 373 -76 301 -164 301 -164 c 1
 360 -225 l 1
 454 -153 l 1
 575 415 l 2
 578 428 579 440 579 451 c 0
 579 507 541 532 468 532 c 0
 376 532 331 499 328 498 c 1
 331 498 357 483 380 466 c 0
 401 451 426 423 426 423 c 1
 420 423 321 405 300 308 c 2
 256 101 l 2
 245 49 207 -2 133 -2 c 0
 87 -2 51 25 51 72 c 0xfd80
163 141 m 0
 127 141 105 110 105 85 c 0xfd80
 105 65 117 49 143 49 c 0
 179 49 201 80 201 105 c 0
 201 125 189 141 163 141 c 0
146 -159 m 0
 101 -159 79 -192 79 -212 c 0xfe80
 79 -231 93 -244 114 -244 c 0
 162 -244 210 -192 213 -179 c 0
 213 -178 181 -159 146 -159 c 0
EndSplineSet
EndChar
StartChar: uni0E0F
Encoding: 175 3599 142
Width: 663
Flags: W
HStem: -312 53<71.5125 126.785> -152 54<89.5333 159.202> -29 20G<258 323> -2 51<109.445 189.044> 141 49<120.33 199.912> 532 61<354.107 558.282>
VStem: 13 57<-258.862 -169.726> 53 54<52.5952 127.549> 582 71<443.915 509.273>
AnchorPoint: "BelowBase" 483.895 -311 basechar 0
Fore
53 72 m 0xfd80
 53 140 109 190 170 190 c 0
 192 190 206 184 206 184 c 1
 235 322 l 2
 250 391 315 426 315 426 c 1
 284 465 211 484 194 487 c 1
 218 513 339 592 475 593 c 0
 594 593 653 550 653 477 c 0
 653 466 652 455 649 443 c 2
 521 -159 l 1
 495 -210 443 -274 371 -310 c 1
 323 -216 l 1
 233 -311 l 1
 196 -238 l 1
 165 -281 121 -312 82 -312 c 0
 28 -312 13 -274 13 -239 c 0xfe80
 13 -174 67 -100 129 -98 c 0
 172 -98 202 -133 204 -138 c 1
 211 -126 254 -48 262 -9 c 1
 323 -9 l 1
 319 -29 275 -137 238 -178 c 1
 251 -213 l 1
 346 -106 l 1
 398 -222 l 1
 423 -209 447 -176 452 -159 c 2
 580 440 l 2
 582 448 582 455 582 462 c 0
 582 508 547 532 466 532 c 0
 380 532 330 498 330 498 c 1
 333 498 359 483 381 466 c 0
 403 451 427 423 427 423 c 1
 415 423 321 400 301 308 c 2
 257 101 l 2
 246 49 208 -2 135 -2 c 0
 87 -2 53 25 53 72 c 0xfd80
165 141 m 0
 129 141 107 110 107 85 c 0xfd80
 107 65 119 49 145 49 c 0
 181 49 202 80 202 106 c 0
 202 125 191 141 165 141 c 0
123 -152 m 0
 91 -152 70 -201 70 -229 c 0xfe80
 70 -247 78 -259 92 -259 c 0
 123 -259 168 -184 168 -184 c 1
 168 -184 146 -152 123 -152 c 0
EndSplineSet
EndChar
StartChar: uni0E10
Encoding: 176 3600 143
Width: 530
Flags: W
HStem: -290 52<6.1834 57.2069> -180 43<295.46 335.024> -174 53<9.80732 67.729> -76 42<299.193 351.406> -3 61<300.245 371.166> 158 49<184.869 238.419> 299 50<195.709 274.171> 506 55<423.13 592.153> 530 59<273.019 484.699>
VStem: -46 52<-233.804 -175.268> 128 54<209.864 285.711> 152 58<-73.8213 -38> 225 73<59.782 97.7191> 248 47<-136.51 -80.5979> 277 56<233.679 296.607> 357 46<-128.226 -76.9572> 426 70<303.594 313 320 322.523 322.523 334.523 328.523 384.252>
Fore
128 230 m 0x9ee980
 128 287 176 349 250 349 c 0
 311 349 333 315 333 275 c 0x9ee380
 333 266 332 256 330 247 c 2
 300 107 l 2
 299 102 298 97 298 92 c 0
 298 74 307 58 332 58 c 0
 366 58 377 86 382 109 c 2
 426 313 l 2
 427 320 428 326 428 332 c 0
 428 379 387 409 327 426 c 0
 245 449 177 455 137 455 c 1
 182 516 246 589 370 589 c 0x9ec980
 429 589 482 561 533 561 c 0
 561 561 588 575 590 575 c 1
 597 521 l 1
 595 521 562 506 534 506 c 0x9f4980
 465 506 430 530 360 530 c 0
 290 530 256 497 256 497 c 1
 258 497 388 489 462 429 c 0
 485 410 499 383 499 349 c 0
 499 340 498 330 496 320 c 2
 448 95 l 2
 436 37 379 -3 313 -3 c 0
 260 -3 225 26 225 70 c 0
 225 76 226 82 227 89 c 2
 243 164 l 1
 243 164 227 158 205 158 c 0
 162 158 128 185 128 230 c 0x9ee980
240 299 m 0
 203 299 182 268 182 242 c 0
 182 223 193 207 220 207 c 0
 256 207 277 238 277 264 c 0
 277 283 266 299 240 299 c 0
248 -121 m 0xbe5580
 248 -77 289 -34 340 -34 c 0
 364 -34 403 -42 403 -96 c 0
 403 -105 402 -115 400 -127 c 2
 379 -225 l 1
 258 -296 l 1
 200 -250 l 1
 111 -296 l 1
 106 -274 102 -264 92 -247 c 1
 82 -259 47 -290 20 -290 c 0
 -24 -290 -46 -260 -46 -225 c 0
 -46 -162 13 -121 52 -121 c 0xbe5580
 76 -121 99 -132 108 -143 c 1
 126 -113 141 -74 152 -38 c 1
 210 -38 l 1
 198 -84 168 -152 138 -190 c 1
 148 -221 l 1
 215 -189 l 1
 272 -230 l 1
 331 -198 l 1
 336 -176 l 1
 326 -179 318 -180 309 -180 c 0xde5580
 272 -180 248 -155 248 -121 c 0xbe5580
320 -137 m 0xde4580
 342 -137 357 -119 357 -98 c 0
 357 -83 346 -76 333 -76 c 0xde4380
 312 -76 295 -94 295 -112 c 0
 295 -126 304 -137 320 -137 c 0xde4580
34 -174 m 0xbe4180
 20 -174 6 -193 6 -215 c 0
 6 -227 11 -238 24 -238 c 0
 54 -238 66 -197 68 -195 c 1
 68 -192 51 -174 34 -174 c 0xbe4180
EndSplineSet
Substitution2: "Thai Descender Removal Single Substitution" uni0E10.descless
EndChar
StartChar: uni0E11
Encoding: 177 3601 144
Width: 815
Flags: MW
HStem: 0 21G<296 372.5 633 706.271> 265 45<168.795 248.904> 406 46<196.673 260.008> 492 55<326 337> 514 76<677.127 751.707>
VStem: 106 60<312.814 392.488> 263 46<323.852 403.093>
Fore
309 383 m 0
 309 318 257 265 194 265 c 0
 149 265 106 291 106 358 c 0
 106 424 149 538 267 593 c 1
 337 547 l 1
 428 593 l 1
 489 553 510 492 510 492 c 1
 503 460 l 1
 502 458 472 429 453 415 c 1
 415 235 l 1
 439 282 493 359 545 426 c 0
 592 489 671 590 733 590 c 0
 769 590 808 552 808 504 c 0
 808 499 807 493 806 487 c 2
 702 0 l 1
 633 0 l 1
 734 474 l 2
 735 478 735 481 735 485 c 0
 735 502 727 514 711 514 c 0
 696 514 678 497 671 489 c 2
 657 481 423 174 392 84 c 0
 382 52 376 32 369 0 c 1
 296 0 l 1
 386 425 l 1
 388 430 439 456 439 483 c 0
 439 507 408 529 406 529 c 1
 326 492 l 1
 265 529 l 1
 210 504 188 453 186 443 c 1
 202 449 218 452 232 452 c 0
 293 452 309 416 309 383 c 0
224 406 m 0
 188 406 166 375 166 347 c 0
 166 327 177 310 204 310 c 0
 241 310 263 342 263 369 c 0
 263 389 251 406 224 406 c 0
EndSplineSet
EndChar
StartChar: uni0E12
Encoding: 178 3602 145
Width: 820
Flags: MW
HStem: -4 61<399.827 444.895> -3 69<610.186 651.079> 236 45<255.085 280> 379 45<266.5 347.539> 468 67<378 393> 575 20G<275 349 455 500 753.755 827>
VStem: 90 65<233.599 376.375> 201 50<285.862 364.078> 341 56<57.5424 163.455> 351 50<294.6 375.435> 522 69<428.468 513.797>
Fore
137 37 m 0xb760
 137 166 90 213 90 304 c 0
 90 320 91 337 95 355 c 0
 127 503 223 556 327 595 c 1
 393 535 l 1
 486 595 l 1
 514 583 591 538 591 457 c 0
 591 448 590 438 588 428 c 2
 546 230 l 1
 546 227 566 215 579 182 c 0
 603 113 607 66 634 66 c 0
 645 66 649 74 654 100 c 2
 758 590 l 1
 827 590 l 1
 723 100 l 2
 712 46 689 -3 627 -3 c 0x7760
 580 -3 564 48 551 89 c 0
 535 140 533 132 527 151 c 1
 510 71 l 2
 505 45 478 -4 416 -4 c 0
 367 -4 341 36 341 88 c 0xb7a0
 341 182 412 247 481 251 c 1
 519 428 l 2
 521 438 522 447 522 455 c 0
 522 502 492 525 476 530 c 1
 378 468 l 1
 305 530 l 1
 217 492 155 414 155 314 c 0
 155 278 163 242 173 205 c 0
 186 155 194 113 195 110 c 1
 202 125 260 209 280 236 c 1
 271 236 l 2
 232 236 201 261 201 303 c 0
 201 364 252 424 320 424 c 0
 374 424 401 389 401 348 c 0
 401 270 292 189 234 72 c 0
 218 38 217 32 208 0 c 1
 135 0 l 1
 136 2 137 16 137 37 c 0xb760
293 281 m 0
 331 281 351 312 351 340 c 0
 351 363 336 379 311 379 c 0
 275 379 251 348 251 320 c 0
 251 297 268 281 293 281 c 0
470 199 m 1
 414 184 397 130 397 97 c 0
 397 75 404 57 420 57 c 0xb7a0
 437 57 442 67 445 78 c 2
 470 199 l 1
EndSplineSet
EndChar
StartChar: uni0E13
Encoding: 179 3603 146
Width: 818
Flags: W
HStem: -3 60<713.494 772.497> -2 51<162.829 241.081> 141 49<198.581 252.144> 532 61<273.347 478.095>
VStem: 104 56<52.0431 114.321> 255 55<62.3549 138.015> 499 70<429.683 443 443 453.023 453.023 461.523 457.273 508.28> 791 61<73.46 187.161>
AnchorPoint: "AboveBase" 841 659 basechar 0
Fore
310 119 m 0xbf
 310 67 267 -2 187 -2 c 0x7f
 126 -2 104 32 104 73 c 0
 104 82 105 92 107 101 c 2
 154 322 l 2
 158 340 170 365 190 389 c 0
 208 412 235 426 235 426 c 1
 206 460 139 483 113 487 c 1
 138 513 258 592 394 593 c 0
 517 593 572 546 572 477 c 0
 572 467 571 457 569 446 c 2
 498 115 l 1
 500 118 543 169 590 202 c 0
 634 233 675 250 678 250 c 1
 750 590 l 1
 819 590 l 1
 748 256 l 1
 796 256 852 236 852 161 c 0
 852 65 787 -3 716 -3 c 0
 662 -2 643 29 643 63 c 0
 643 71 644 78 646 86 c 2
 667 182 l 1
 540 111 479 0 472 0 c 2
 405 0 l 1
 499 443 l 2
 501 450 501 457 501 463 c 0
 501 506 466 532 384 532 c 0
 298 532 250 498 250 498 c 1
 253 498 279 483 300 466 c 0
 321 451 348 423 348 423 c 1
 335 423 240 400 220 308 c 2
 194 184 l 1
 194 184 210 190 232 190 c 0
 261 190 310 174 310 119 c 0xbf
740 57 m 2xbf
 775 57 791 112 791 145 c 0
 791 192 757 193 735 193 c 1
 714 92 l 2
 713 87 712 83 712 79 c 0
 712 67 718 57 736 57 c 2
 740 57 l 2xbf
217 141 m 0
 181 141 160 110 160 84 c 0
 160 65 171 49 197 49 c 0x7f
 233 49 255 80 255 105 c 0
 255 125 243 141 217 141 c 0
EndSplineSet
EndChar
StartChar: uni0E14
Encoding: 180 3604 147
Width: 614
Flags: W
HStem: 0 21G<152 217.5 433 506.234> 380 47<291.998 375.792> 533 57<295.066 476.677>
VStem: 109 59<247.517 405.522> 225 51<282.602 363.839> 379 51<294.927 376.707> 522 71<410.439 489.909>
Fore
109 308 m 0
 109 485 269 590 396 590 c 0
 525 590 593 528 593 446 c 0
 593 434 592 423 589 411 c 2
 502 0 l 1
 433 0 l 1
 519 405 l 2
 521 414 522 422 522 431 c 0
 522 492 471 533 387 533 c 0
 256 532 168 424 168 315 c 0
 168 282 177 251 189 216 c 0
 207 160 216 123 219 123 c 0
 222 123 263 185 302 230 c 1
 266 232 225 261 225 310 c 0
 225 364 274 427 348 427 c 0
 396 427 430 398 430 353 c 0
 430 327 420 289 368 225 c 2
 256 87 l 2
 235 61 223 34 212 0 c 1
 152 0 l 1
 160 37 165 37 165 62 c 0
 165 126 109 204 109 308 c 0
339 380 m 0
 306 380 276 353 276 318 c 0
 276 297 288 279 317 279 c 0
 355 279 379 311 379 342 c 0
 379 362 368 380 339 380 c 0
EndSplineSet
EndChar
StartChar: uni0E15
Encoding: 181 3605 148
Width: 645
Flags: MW
HStem: 0 21G<176 254.5 464 537.241> 230 50<301.499 339> 381 47<312.613 397.039> 474 69<423 435> 575 20G<291 400.538 487.923 549.5>
VStem: 128 58<248.789 407.495> 247 49<284.18 364.708> 401 50<295.222 377.427> 559 68<431.642 513.875>
Fore
247 311 m 0
 247 366 294 428 371 428 c 0
 419 428 451 400 451 356 c 0
 451 280 355 182 295 84 c 0
 277 57 259 40 250 0 c 1
 176 0 l 1
 179 26 182 40 182 62 c 0
 182 180 128 220 128 321 c 0
 128 430 203 551 379 595 c 1
 435 543 l 1
 521 595 l 1
 578 582 627 535 627 466 c 0
 627 451 625 434 621 415 c 2
 533 0 l 1
 464 0 l 1
 551 409 l 2
 556 430 559 445 559 458 c 0
 559 484 542 519 515 532 c 1
 423 474 l 1
 352 532 l 1
 217 486 186 378 186 312 c 0
 186 279 195 249 208 216 c 0
 229 162 238 107 241 107 c 0
 242 107 308 203 333 230 c 1
 263 233 247 277 247 311 c 0
360 381 m 0
 322 381 296 349 296 319 c 0
 296 298 309 280 339 280 c 0
 379 280 401 314 401 343 c 0
 401 364 388 381 360 381 c 0
EndSplineSet
EndChar
StartChar: uni0E16
Encoding: 182 3606 149
Width: 628
Flags: MW
HStem: -2 51<178.055 256.379> 141 49<214.699 267.497> 532 61<295.243 509.923>
VStem: 119 56<51.6154 114.322> 169 66<308 322> 270 55<62.3142 137.684> 544 71<422.648 499.389>
Fore
325 119 m 0
 325 61 276 -2 202 -2 c 0
 142 -2 119 33 119 74 c 0
 119 83 120 92 122 101 c 2
 169 322 l 2
 173 340 185 365 206 389 c 0
 223 412 250 426 250 426 c 1
 218 465 146 484 129 487 c 1
 153 512 282 593 419 593 c 0
 541 593 615 544 615 458 c 0
 615 447 614 435 611 422 c 2
 521 0 l 1
 452 0 l 1
 541 418 l 2
 543 428 544 437 544 445 c 0
 544 507 491 532 413 532 c 0
 332 532 265 499 265 498 c 1
 268 498 295 483 315 466 c 0
 337 451 363 423 363 423 c 1
 351 423 255 400 235 308 c 2
 209 184 l 1
 209 184 225 190 247 190 c 0
 292 190 325 164 325 119 c 0
232 141 m 0
 197 141 175 110 175 84 c 0
 175 65 187 49 212 49 c 0
 249 49 270 80 270 106 c 0
 270 125 259 141 232 141 c 0
EndSplineSet
EndChar
StartChar: uni0E17
Encoding: 183 3607 150
Width: 691
Flags: W
HStem: 0 21G<176 254.5 512 585.248> 400 49<203.786 254.626> 534 58<561.688 617.027> 541 51<214.819 293.418>
VStem: 146 55<452.19 527.16> 296 56<475.701 537.957> 618 68<481.994 533.573>
Fore
146 469 m 0xee
 146 528 195 592 270 592 c 0xde
 330 592 352 558 352 517 c 0
 352 508 351 499 349 489 c 2
 309 299 l 1
 444 494 521 592 601 592 c 0
 670 592 686 553 686 513 c 0
 686 491 681 468 677 452 c 2
 581 0 l 1
 512 0 l 1
 610 461 l 2
 614 478 618 495 618 508 c 0
 618 523 612 534 592 534 c 0
 577 534 557 526 540 507 c 0
 504 466 394 348 322 218 c 0
 276 135 264 89 245 0 c 1
 176 0 l 1
 262 406 l 1
 262 406 246 400 224 400 c 0
 195 400 146 416 146 469 c 0xee
259 541 m 0
 222 541 201 510 201 484 c 0
 201 465 212 449 239 449 c 0
 274 449 296 480 296 506 c 0
 296 525 284 541 259 541 c 0
EndSplineSet
EndChar
StartChar: uni0E18
Encoding: 184 3608 151
Width: 548
Flags: W
HStem: 0 66<100 167 236 382.812> 498 60<415.897 614.137> 534 55<225.015 444.214>
Fore
206 496 m 1xa0
 310 490 398 464 438 434 c 0
 484 400 499 379 509 337 c 1
 456 89 l 2
 446 44 398 0 349 0 c 2
 86 0 l 1
 100 66 l 1
 167 66 l 1
 245 435 l 1
 194 443 l 1
 135 445 l 2
 127 445 123 449 123 455 c 0
 123 469 142 501 163 523 c 0
 210 570 257 589 336 589 c 0xa0
 419 589 448 559 537 558 c 0
 571 558 605 569 628 590 c 1
 646 533 l 1
 617 516 585 498 532 498 c 0xc0
 472 498 387 534 330 534 c 0
 264 534 238 529 206 496 c 1xa0
390 102 m 2
 436 319 l 1
 429 351 421 366 387 388 c 0
 364 402 338 414 311 418 c 1
 236 66 l 1
 346 66 l 2
 368 66 385 82 390 102 c 2
EndSplineSet
EndChar
StartChar: uni0E19
Encoding: 185 3609 152
Width: 668
Flags: W
HStem: -1 59<535.346 591.297> 400 49<174.993 228.213> 543 49<185.982 264.35>
VStem: 118 54<452.47 529.48> 267 56<475.441 540.223> 470 64<58.2755 102.317 99.6028 105.032 105.032 115 116 131.1> 612 66<103.107 200.692>
AnchorPoint: "AboveBase" 667 659 basechar 0
Fore
678 170 m 0
 678 105 635 -1 539 -1 c 0
 483 -1 470 36 470 72 c 0
 470 87 473 103 475 115 c 2
 495 207 l 1
 446 207 288 121 216 0 c 1
 147 0 l 1
 233 406 l 1
 233 406 217 400 195 400 c 0
 151 400 118 428 118 473 c 0
 118 527 164 592 241 592 c 0
 301 592 323 559 323 518 c 0
 323 509 322 499 320 489 c 2
 241 119 l 1
 241 119 291 173 368 218 c 0
 431 254 504 271 509 271 c 1
 576 590 l 1
 645 590 l 1
 577 270 l 1
 636 270 678 235 678 170 c 0
557 58 m 0
 601 58 612 134 612 157 c 0
 612 200 585 207 557 207 c 1
 538 116 l 2
 535 104 534 94 534 86 c 0
 534 66 542 58 557 58 c 0
230 543 m 0
 196 543 172 513 172 486 c 0
 172 467 183 449 210 449 c 0
 245 449 267 478 267 507 c 0
 267 526 256 543 230 543 c 0
EndSplineSet
EndChar
StartChar: uni0E1A
Encoding: 186 3610 153
Width: 636
Flags: MW
HStem: 0 66<88 161 230 449.731> 400 49<180.5 226.1> 541 51<191.241 265.631>
VStem: 125 53<451.088 528.793> 161 69<66 66> 268 55<475.531 538.539>
Fore
125 469 m 0
 125 515 160 592 243 592 c 0
 301 592 323 557 323 516 c 0
 323 507 322 498 320 489 c 2
 230 66 l 1
 432 66 l 2
 447 66 479 74 485 104 c 2
 588 590 l 1
 657 590 l 1
 551 89 l 2
 539 31 487 0 441 0 c 2
 74 0 l 1
 88 66 l 1
 161 66 l 1
 233 406 l 1
 233 406 218 400 198 400 c 0
 157 400 125 425 125 469 c 0
232 541 m 0
 199 541 178 512 178 483 c 0
 178 465 188 449 212 449 c 0
 246 449 268 479 268 506 c 0
 268 525 257 541 232 541 c 0
EndSplineSet
EndChar
StartChar: uni0E1B
Encoding: 187 3611 154
Width: 636
Flags: MW
HStem: 0 66<88 161 230 451.749> 400 49<180.5 228.588> 541 51<191.241 265.631>
VStem: 125 53<451.088 528.793> 161 69<66 66> 268 55<475.531 538.539>
AnchorPoint: "AboveBase" 564.075 659 basechar 0
Fore
125 469 m 0
 125 515 160 592 243 592 c 0
 301 592 323 557 323 516 c 0
 323 507 322 498 320 489 c 2
 230 66 l 1
 432 66 l 2
 447 66 479 74 485 104 c 2
 651 886 l 1
 720 886 l 1
 551 89 l 2
 539 31 487 0 441 0 c 2
 74 0 l 1
 88 66 l 1
 161 66 l 1
 233 406 l 1
 233 406 218 400 198 400 c 0
 157 400 125 425 125 469 c 0
232 541 m 0
 199 541 178 512 178 483 c 0
 178 465 188 449 212 449 c 0
 246 449 268 479 268 506 c 0
 268 525 257 541 232 541 c 0
EndSplineSet
EndChar
StartChar: uni0E1C
Encoding: 188 3612 155
Width: 639
Flags: MW
HStem: 0 21G<451.5 524.237> 227 76<350 366> 400 49<243.836 317.098> 541 51<254.892 328.318>
VStem: 330 53<461.07 538.318>
Fore
383 520 m 0
 383 451 331 400 271 400 c 0
 250 400 236 406 236 406 c 1
 178 130 l 1
 187 145 276 249 366 303 c 1
 432 251 482 137 482 130 c 1
 579 590 l 1
 645 590 l 1
 520 0 l 1
 454 0 l 1
 449 56 404 179 350 227 c 1
 306 198 212 115 150 2 c 1
 84 2 l 1
 188 489 l 2
 198 535 238 590 307 592 c 0
 337 592 383 577 383 520 c 0
296 541 m 0
 263 541 242 512 242 483 c 0
 242 465 252 449 276 449 c 0
 309 449 330 478 330 507 c 0
 330 525 320 541 296 541 c 0
EndSplineSet
EndChar
StartChar: uni0E1D
Encoding: 189 3613 156
Width: 639
Flags: MW
HStem: 0 21G<463.5 536.244> 227 76<362 378> 400 49<255.836 329.098> 541 51<265.996 339.908>
VStem: 342 53<460.907 538.81>
AnchorPoint: "AboveBase" 567.075 659 basechar 0
Fore
395 519 m 0
 395 451 343 400 283 400 c 0
 262 400 248 406 248 406 c 1
 190 130 l 1
 199 144 291 251 378 303 c 1
 445 250 494 137 494 130 c 1
 654 886 l 1
 720 886 l 1
 532 0 l 1
 466 0 l 1
 461 56 416 179 362 227 c 1
 318 198 224 115 162 2 c 1
 97 2 l 1
 201 489 l 2
 211 535 251 590 319 592 c 0
 351 592 395 575 395 519 c 0
308 541 m 0
 275 541 254 512 254 483 c 0
 254 465 264 449 288 449 c 0
 321 449 342 478 342 507 c 0
 342 525 332 541 308 541 c 0
EndSplineSet
EndChar
StartChar: uni0E1E
Encoding: 190 3614 157
Width: 698
Flags: W
HStem: 0 21G<143 214 518 590.237> 400 49<174.417 222.016> 541 51<185.322 260.658>
VStem: 120 52<451.407 528.512> 263 56<475.531 538.539> 459 54<315.468 522.846>
Fore
120 468 m 0
 120 540 177 592 238 592 c 0
 296 592 319 557 319 516 c 0
 319 507 318 498 316 489 c 2
 254 196 l 1
 323 292 430 482 452 590 c 1
 521 590 l 1
 515 562 513 532 513 502 c 0
 513 377 553 245 559 196 c 1
 642 590 l 1
 711 590 l 1
 586 0 l 1
 518 0 l 1
 518 19 l 2
 518 182 459 263 459 439 c 0
 459 454 460 463 460 463 c 1
 460 460 433 366 351 247 c 0
 242 90 214 2 214 0 c 1
 143 0 l 1
 229 406 l 1
 229 406 213 400 193 400 c 0
 166 400 120 415 120 468 c 0
227 541 m 0
 194 541 172 511 172 484 c 0
 172 465 183 449 207 449 c 0
 241 449 263 479 263 506 c 0
 263 525 252 541 227 541 c 0
EndSplineSet
EndChar
StartChar: uni0E1F
Encoding: 191 3615 158
Width: 698
Flags: W
HStem: 0 21G<143 214 518 590.244> 400 49<174.417 224.53> 541 51<185.322 260.658>
VStem: 120 52<451.407 528.512> 263 56<475.531 538.539> 452 69<530.36 590> 459 1<351 463> 459 54<315.468 525.84>
AnchorPoint: "AboveBase" 627.075 659 basechar 0
Fore
120 468 m 0xfa
 120 540 177 592 238 592 c 0
 296 592 319 557 319 516 c 0
 319 507 318 498 316 489 c 2
 254 196 l 1
 323 292 430 482 452 590 c 1
 521 590 l 1xfc
 515 562 513 532 513 502 c 0xf9
 513 377 553 245 559 196 c 1
 705 886 l 1
 774 886 l 1
 586 0 l 1
 518 0 l 1
 518 19 l 2
 518 182 459 263 459 439 c 0
 459 454 460 463 460 463 c 1
 460 460 433 366 351 247 c 0
 242 90 214 2 214 0 c 1
 143 0 l 1
 229 406 l 1
 229 406 213 400 193 400 c 0
 166 400 120 415 120 468 c 0xfa
227 541 m 0
 194 541 172 511 172 484 c 0
 172 465 183 449 207 449 c 0
 241 449 263 479 263 506 c 0
 263 525 252 541 227 541 c 0
EndSplineSet
EndChar
StartChar: uni0E20
Encoding: 192 3616 159
Width: 712
Flags: W
HStem: -2 51<120.375 199.876> 141 49<130.933 210.702> 532 61<369.105 585.882>
VStem: 64 54<51.4648 127.453> 621 71<422.484 499.389>
Fore
64 72 m 0
 64 134 113 190 181 190 c 0
 202 190 217 184 217 184 c 1
 246 322 l 2
 261 392 326 426 326 426 c 1
 298 461 230 483 205 487 c 1
 229 512 357 593 495 593 c 0
 616 593 692 544 692 458 c 0
 692 446 691 434 688 422 c 2
 598 0 l 1
 529 0 l 1
 618 418 l 2
 620 428 621 436 621 445 c 0
 621 507 566 532 489 532 c 0
 407 532 359 508 341 498 c 1
 344 498 370 483 392 466 c 0
 413 451 438 423 438 423 c 1
 425 423 332 400 312 308 c 2
 268 101 l 2
 257 49 219 -2 146 -2 c 0
 98 -2 64 25 64 72 c 0
176 141 m 0
 139 141 118 110 118 84 c 0
 118 65 129 49 156 49 c 0
 191 49 213 80 213 106 c 0
 213 125 201 141 176 141 c 0
EndSplineSet
EndChar
StartChar: uni0E21
Encoding: 193 3617 160
Width: 665
Flags: MW
HStem: -3 58<150.442 207.37> -2 69<426.485 481.394> 189 62<174.469 233> 400 49<220.573 271.82> 541 51<230.914 310.489>
VStem: 87 61<56.06 139.598> 163 55<452.17 527.504> 246 68<246 251> 313 56<475.701 537.957>
Fore
163 470 m 0xbe80
 163 523 207 592 287 592 c 0
 347 592 369 558 369 517 c 0
 369 508 368 499 366 489 c 2
 314 246 l 1
 404 118 l 2
 421 97 436 67 463 67 c 0
 489 69 497 100 502 124 c 2
 601 590 l 1
 670 590 l 1
 574 136 l 2
 564 89 555 41 511 17 c 0
 490 5 469 -2 449 -2 c 0x7e80
 422 -2 396 10 379 35 c 2
 295 156 l 1
 280 83 l 2
 270 37 221 -3 174 -3 c 0
 115 -3 87 38 87 88 c 0
 87 161 144 251 246 251 c 1
 279 406 l 1
 279 406 263 400 241 400 c 0
 196 400 163 426 163 470 c 0xbe80
276 541 m 0
 240 541 218 510 218 485 c 0
 218 465 230 449 256 449 c 0
 292 449 313 480 313 506 c 0
 313 525 302 541 276 541 c 0
174 55 m 0xbe80
 204 55 209 77 213 95 c 2
 233 189 l 1
 196 189 164 178 151 118 c 0
 149 110 148 102 148 94 c 0
 148 72 156 55 174 55 c 0xbe80
EndSplineSet
EndChar
StartChar: uni0E22
Encoding: 194 3618 161
Width: 622
Flags: W
HStem: 0 66<169 417.75> 398 50<247.257 326.754> 540 50<258.221 337.601>
VStem: 162 70<333.443 371.177> 340 55<460.851 536.563>
Fore
395 515 m 0
 395 454 343 398 278 398 c 0
 256 398 241 405 241 405 c 1
 234 372 l 2
 233 367 232 362 232 358 c 0
 232 346 238 336 255 320 c 0
 272 303 336 297 336 297 c 1
 328 258 l 1
 204 258 193 177 178 107 c 2
 169 66 l 1
 402 66 l 2
 416 66 451 77 460 116 c 2
 560 590 l 1
 629 590 l 1
 528 113 l 2
 512 38 457 0 392 0 c 2
 86 0 l 1
 116 141 l 2
 137 238 178 261 236 281 c 1
 200 287 162 313 162 351 c 0
 162 357 164 365 166 376 c 2
 190 487 l 2
 199 533 241 590 312 590 c 0
 360 590 395 563 395 515 c 0
302 540 m 0
 266 540 245 509 245 483 c 0
 245 464 256 448 282 448 c 0
 318 448 340 479 340 504 c 0
 340 524 328 540 302 540 c 0
EndSplineSet
EndChar
StartChar: uni0E23
Encoding: 195 3619 162
Width: 501
Flags: W
HStem: -2 51<278.391 358.216> 141 49<288.796 368.904> 505 56<414.9 582.3> 536 55<262.369 447.366>
VStem: 221 55<51.4648 127.1> 406 71<324.117 385.652>
Fore
221 72 m 0xdc
 221 144 282 190 339 190 c 0
 361 190 375 184 375 184 c 1
 404 319 l 2
 405 325 406 331 406 336 c 0
 406 381 366 408 298 429 c 0
 229 451 145 462 131 466 c 1
 170 520 236 591 355 591 c 0xdc
 421 591 458 561 510 561 c 0
 544 561 572 581 574 581 c 1
 596 529 l 1
 574 520 545 505 504 505 c 0xec
 449 505 406 536 347 536 c 0
 300 536 256 516 244 500 c 1
 244 500 354 487 424 438 c 0
 464 412 477 388 477 357 c 0
 477 343 474 327 470 308 c 2
 426 101 l 2
 415 49 378 -2 304 -2 c 0
 256 -2 221 25 221 72 c 0xdc
333 141 m 0
 298 141 276 110 276 84 c 0
 276 65 288 49 313 49 c 0
 350 49 371 80 371 106 c 0
 371 125 360 141 333 141 c 0
EndSplineSet
EndChar
StartChar: uni0E24
Encoding: 196 3620 163
Width: 610
Flags: MW
HStem: -2 51<167.055 245.379> 141 49<203.699 256.497> 532 61<284.243 498.923>
VStem: 108 56<51.6154 114.322> 158 66<308 322> 259 55<62.3142 137.684> 533 71<422.648 499.389>
Fore
314 119 m 0
 314 61 265 -2 191 -2 c 0
 131 -2 108 33 108 74 c 0
 108 83 109 92 111 101 c 2
 158 322 l 2
 162 340 174 365 195 389 c 0
 212 412 239 426 239 426 c 1
 207 465 135 484 118 487 c 1
 142 512 271 593 408 593 c 0
 530 593 604 544 604 458 c 0
 604 447 603 435 600 422 c 2
 464 -215 l 1
 395 -215 l 1
 530 418 l 2
 532 428 533 437 533 445 c 0
 533 507 480 532 402 532 c 0
 321 532 254 499 254 498 c 1
 257 498 284 483 304 466 c 0
 326 451 352 423 352 423 c 1
 340 423 244 400 224 308 c 2
 198 184 l 1
 198 184 214 190 236 190 c 0
 281 190 314 164 314 119 c 0
221 141 m 0
 186 141 164 110 164 84 c 0
 164 65 176 49 201 49 c 0
 238 49 259 80 259 106 c 0
 259 125 248 141 221 141 c 0
EndSplineSet
EndChar
StartChar: uni0E25
Encoding: 197 3621 164
Width: 593
Flags: MW
HStem: -2 51<165.127 243.582> 141 49<200.727 253.935> 364 55<238.838 318.079> 530 61<282.535 473.175>
VStem: 105 57<51.6154 114.322> 152 69<305 308> 257 54<62.3142 138.436> 503 71<418.258 501.489>
Fore
311 119 m 0
 311 61 264 -2 190 -2 c 0
 128 -2 105 33 105 74 c 0
 105 83 106 92 108 101 c 2
 152 305 l 2
 160 345 198 419 288 419 c 0
 360 419 389 366 414 319 c 0
 447 259 458 219 458 215 c 1
 499 409 l 2
 502 422 503 434 503 445 c 0
 503 497 472 530 381 530 c 0
 278 530 215 471 196 437 c 1
 152 472 l 1
 204 535 273 591 397 591 c 0
 542 591 574 510 574 457 c 0
 574 441 572 426 569 412 c 2
 481 0 l 1
 412 0 l 1
 425 63 l 1
 425 65 426 67 426 70 c 0
 426 125 355 364 279 364 c 0
 249 364 227 334 221 308 c 2
 195 184 l 1
 195 184 212 190 233 190 c 0
 278 190 311 163 311 119 c 0
220 141 m 0
 183 141 162 110 162 84 c 0
 162 65 173 49 200 49 c 0
 235 49 257 80 257 106 c 0
 257 125 245 141 220 141 c 0
EndSplineSet
EndChar
StartChar: uni0E26
Encoding: 198 3622 165
Width: 666
Flags: W
HStem: -2 51<80.3745 159.876> 141 49<90.9333 170.702> 532 61<329.105 545.882>
VStem: 24 54<51.4648 127.453> 581 71<422.484 499.389>
Fore
24 72 m 0
 24 134 73 190 141 190 c 0
 162 190 177 184 177 184 c 1
 206 322 l 2
 221 392 286 426 286 426 c 1
 258 461 190 483 165 487 c 1
 189 512 317 593 455 593 c 0
 576 593 652 544 652 458 c 0
 652 446 651 434 648 422 c 2
 512 -215 l 1
 443 -215 l 1
 578 418 l 2
 580 428 581 436 581 445 c 0
 581 507 526 532 449 532 c 0
 367 532 319 508 301 498 c 1
 304 498 330 483 352 466 c 0
 373 451 398 423 398 423 c 1
 385 423 292 400 272 308 c 2
 228 101 l 2
 217 49 179 -2 106 -2 c 0
 58 -2 24 25 24 72 c 0
136 141 m 0
 99 141 78 110 78 84 c 0
 78 65 89 49 116 49 c 0
 151 49 173 80 173 106 c 0
 173 125 161 141 136 141 c 0
EndSplineSet
EndChar
StartChar: uni0E27
Encoding: 199 3623 166
Width: 545
Flags: W
HStem: -2 51<310.375 389.876> 141 49<321.161 400.603> 533 60<248.006 427.604>
VStem: 254 54<51.4648 127.516> 460 71<423.764 503.403>
Fore
254 72 m 0
 254 140 310 190 371 190 c 0
 393 190 407 184 407 184 c 1
 456 412 l 2
 459 425 460 436 460 446 c 0
 460 512 409 533 334 533 c 0
 247 533 184 476 160 429 c 1
 112 454 l 1
 147 513 227 593 355 593 c 0
 468 593 531 536 531 458 c 0
 531 448 529 436 527 425 c 2
 458 101 l 2
 447 49 409 -2 336 -2 c 0
 288 -2 254 25 254 72 c 0
366 141 m 0
 329 141 308 110 308 84 c 0
 308 65 319 49 346 49 c 0
 381 49 403 80 403 106 c 0
 403 125 391 141 366 141 c 0
EndSplineSet
EndChar
StartChar: uni0E28
Encoding: 200 3624 167
Width: 610
Flags: W
HStem: 0 21G<121 194.255 431 504.232> 227 50<248.172 326.883> 371 49<259.24 337.382> 532 61<281.195 478.347>
VStem: 100 62<254.829 414.578> 340 49<290.416 360.245> 515 73<393.425 439.468>
Fore
100 327 m 0
 100 433 182 593 400 593 c 0
 508 593 544 546 552 535 c 1
 563 542 600 588 615 619 c 1
 673 598 l 1
 637 526 581 487 578 486 c 1
 585 477 588 459 588 439 c 0
 588 425 587 410 584 397 c 2
 500 0 l 1
 431 0 l 1
 509 366 l 2
 510 373 515 397 515 417 c 0
 515 426 514 435 511 440 c 1
 472 405 394 354 388 354 c 1
 389 350 389 345 389 341 c 0
 389 277 333 227 274 227 c 0
 252 227 240 235 240 235 c 1
 190 0 l 1
 121 0 l 1
 142 98 l 2
 144 106 144 114 144 122 c 0
 144 163 100 240 100 327 c 0
380 532 m 0
 233 532 162 421 162 326 c 0
 162 283 176 255 178 253 c 1
 191 317 l 2
 199 354 232 420 317 420 c 0
 358 420 369 400 370 399 c 1
 393 411 445 442 498 490 c 1
 485 501 481 532 380 532 c 0
303 371 m 0
 268 371 246 341 246 313 c 0
 246 293 257 277 283 277 c 0
 317 277 340 307 340 335 c 0
 340 355 328 371 303 371 c 0
EndSplineSet
EndChar
StartChar: uni0E29
Encoding: 201 3625 168
Width: 666
Flags: MW
HStem: 0 66<95 169 238 474.616> 217 54<436.068 522.754 515.695 529.813> 374 43<397.993 466.149> 400 49<186.364 236.745> 541 51<197.382 272.658>
VStem: 133 51<451.76 528.418> 169 69<66 66> 275 56<475.531 538.539> 339 48<289.791 364.198> 468 46<297.643 372.468> 505 66<89 102>
AnchorPoint: "AboveBase" 699 659 basechar 0
Fore
339 306 m 0xddc0
 339 358 380 417 451 417 c 0xedc0
 493 417 514 388 514 354 c 0
 514 300 474 275 472 273 c 1
 475 273 490 271 507 271 c 0
 529 271 542 281 543 281 c 1
 608 590 l 1
 677 590 l 1
 616 299 l 1
 644 311 689 363 699 394 c 1
 744 362 l 1
 731 333 680 267 602 236 c 1
 571 89 l 2
 555 14 488 0 460 0 c 2
 81 0 l 1
 95 66 l 1
 169 66 l 1
 241 406 l 1
 241 406 226 400 206 400 c 0
 180 400 133 415 133 469 c 0
 133 533 183 592 250 592 c 0
 308 592 331 557 331 516 c 0
 331 507 330 498 328 489 c 2
 238 66 l 1
 454 66 l 2
 470 66 499 73 505 102 c 2
 530 222 l 1
 529 222 511 217 481 217 c 0
 425 217 339 235 339 306 c 0xddc0
435 374 m 0
 405 373 387 344 387 321 c 0
 387 303 397 288 419 288 c 0
 446 288 468 313 468 341 c 0
 468 359 458 374 435 374 c 0
239 541 m 0
 206 541 184 511 184 484 c 0
 184 465 195 449 219 449 c 0xddc0
 253 449 275 479 275 506 c 0
 275 525 264 541 239 541 c 0
EndSplineSet
EndChar
StartChar: uni0E2A
Encoding: 202 3626 169
Width: 579
Flags: MW
HStem: -2 51<149.197 228.036> 141 49<184.938 239.376> 364 56<221.976 301.602> 530 60<262.655 453.991>
VStem: 89 57<51.787 114.355> 136 69<305 308> 242 53<62.2807 138.265>
Fore
295 119 m 0
 295 61 248 -2 174 -2 c 0
 112 -2 89 33 89 74 c 0
 89 83 90 92 92 101 c 2
 136 305 l 2
 145 347 183 420 275 420 c 0
 326 420 350 397 354 394 c 1
 441 428 479 464 484 464 c 1
 481 480 468 530 359 530 c 0
 258 530 201 469 179 437 c 1
 135 472 l 1
 178 524 246 590 374 590 c 0
 501 590 542 520 543 509 c 1
 586 539 611 575 625 598 c 1
 667 555 l 1
 609 476 566 458 558 448 c 1
 558 448 556 435 555 429 c 2
 464 0 l 1
 395 0 l 1
 408 63 l 1
 408 65 409 67 409 70 c 0
 409 125 338 364 262 364 c 0
 232 364 211 334 205 308 c 2
 179 184 l 1
 179 184 196 190 217 190 c 0
 262 190 295 163 295 119 c 0
482 409 m 1
 457 393 416 370 376 356 c 1
 398 322 428 264 441 215 c 1
 482 409 l 1
204 141 m 0
 168 141 146 110 146 85 c 0
 146 65 158 49 184 49 c 0
 220 49 242 80 242 105 c 0
 242 125 230 141 204 141 c 0
EndSplineSet
EndChar
StartChar: uni0E2B
Encoding: 203 3627 170
Width: 651
Flags: W
HStem: 0 21G<149 238 469 542.222> 400 49<176.361 229.751> 541 51<186.517 265.671> 556 45<508.388 592.392>
VStem: 120 54<451.864 528.282> 268 57<475.679 537.957> 439 56<457.96 530.105> 538 65<301.913 373.579> 596 54<478.214 552.788>
Fore
533 446 m 1xde80
 545 452 596 485 596 521 c 0
 596 537 586 556 556 556 c 0
 507 556 495 516 495 500 c 0
 495 466 533 446 533 446 c 1xde80
650 524 m 0
 650 459 585 427 569 415 c 1
 594 384 603 360 603 331 c 0
 603 313 600 294 595 270 c 2
 538 0 l 1
 469 0 l 1
 527 274 l 2
 534 304 538 325 538 342 c 0
 538 360 533 372 520 385 c 1
 520 385 451 327 364 225 c 0
 296 147 258 89 218 0 c 1
 149 0 l 1
 235 406 l 1
 235 406 218 400 197 400 c 0
 151 400 120 427 120 472 c 0
 120 531 169 592 242 592 c 0xef
 303 592 325 558 325 517 c 0
 325 508 324 498 322 489 c 2
 256 179 l 1
 334 282 435 377 487 415 c 1
 461 432 439 449 439 487 c 0
 439 558 498 601 565 601 c 0
 635 601 650 556 650 524 c 0
231 541 m 0
 195 541 174 510 174 484 c 0
 174 465 185 449 211 449 c 0
 247 449 268 480 268 506 c 0
 268 525 257 541 231 541 c 0
EndSplineSet
EndChar
StartChar: uni0E2C
Encoding: 204 3628 171
Width: 706
Flags: W
HStem: 0 21G<139 236.994 512.449 609.254> 388 49<176.278 216.782> 455 57<498.769 608.045> 530 49<186.537 262.55> 589 55<504.015 640.932>
VStem: 122 52<439.419 516.774> 265 48<465.28 527.167> 417 66<533.794 566.84>
Fore
564 512 m 0
 646 512 661 535 661 541 c 0
 661 552 629 589 581 589 c 0
 534 589 483 558 483 551 c 0
 483 547 510 512 564 512 c 0
122 457 m 0
 122 504 158 579 239 579 c 0
 294 579 313 549 313 511 c 0
 313 500 312 489 309 477 c 2
 233 116 l 1
 437 435 l 1
 487 435 l 1
 558 104 l 1
 635 468 l 1
 618 460 569 455 542 455 c 0
 473 455 417 503 417 538 c 0
 417 565 486 644 589 644 c 0
 689 644 706 583 717 566 c 1
 750 588 800 650 806 658 c 1
 833 616 l 1
 812 582 744 518 712 503 c 1
 605 0 l 1
 517 0 l 1
 441 334 l 1
 224 0 l 1
 139 0 l 1
 223 394 l 1
 223 394 210 388 191 388 c 0
 161 388 122 408 122 457 c 0
229 530 m 0
 196 530 174 500 174 472 c 0
 174 453 185 437 209 437 c 0
 244 437 265 468 265 495 c 0
 265 514 254 530 229 530 c 0
EndSplineSet
EndChar
StartChar: uni0E2D
Encoding: 205 3629 172
Width: 567
Flags: MW
HStem: 0 66<200.36 409.771> 216 49<209.219 284.617> 359 50<219.833 295.421> 532 61<277.911 456.754>
VStem: 105 75<42.0876 111.337> 298 52<278.188 356.794> 486 71<423.898 503.621>
Fore
350 337 m 0
 350 268 295 216 236 216 c 0
 217 216 203 222 203 222 c 1
 182 120 l 2
 181 113 180 108 180 103 c 0
 180 70 207 66 212 66 c 2
 368 66 l 2
 408 66 414 92 418 115 c 2
 483 417 l 2
 485 427 486 437 486 446 c 0
 486 499 450 532 380 532 c 0
 297 532 235 497 204 445 c 1
 158 477 l 1
 234 584 343 593 398 593 c 0
 494 593 557 542 557 460 c 0
 557 447 555 434 552 420 c 2
 483 92 l 2
 467 18 409 0 380 0 c 2
 175 0 l 2
 144 0 105 16 105 69 c 0
 105 78 106 87 108 98 c 2
 152 305 l 2
 162 353 206 409 274 409 c 0
 303 409 350 394 350 337 c 0
263 359 m 0
 229 359 207 329 207 300 c 0
 207 281 218 265 243 265 c 0
 271 265 298 290 298 324 c 0
 298 343 287 359 263 359 c 0
EndSplineSet
EndChar
StartChar: uni0E2E
Encoding: 206 3630 173
Width: 547
Flags: W
HStem: 0 66<147.416 387.853> 148 50<160.836 235.724> 291 49<172.611 246.101> 400 52<226.424 422.518> 536 57<243.791 433.407>
VStem: 69 75<68.7719 112.883> 249 52<210.431 288.386>
Fore
129 488 m 0
 129 530 254 593 361 593 c 0
 480 593 496 549 517 529 c 1
 522 530 554 560 578 599 c 1
 620 566 l 1
 607 546 575 502 535 474 c 1
 535 470 537 463 537 455 c 0
 537 453 536 450 536 448 c 1
 461 92 l 2
 443 10 383 0 359 0 c 2
 139 0 l 2
 97 0 69 27 69 71 c 0
 69 80 70 89 72 98 c 2
 102 238 l 2
 112 286 156 340 227 340 c 0
 273 340 301 310 301 267 c 0
 301 201 246 148 188 148 c 0
 167 148 153 155 153 155 c 1
 146 120 l 2
 145 115 144 110 144 106 c 0
 144 80 162 66 177 66 c 2
 347 66 l 2
 386 66 391 91 396 115 c 2
 458 403 l 2
 461 421 463 429 463 434 c 0
 463 436 462 438 462 440 c 1
 450 434 396 400 298 400 c 0
 193 400 129 451 129 488 c 0
359 536 m 0
 286 536 202 509 202 493 c 0
 202 481 261 452 321 452 c 0
 388 452 414 467 461 494 c 1
 427 522 404 536 359 536 c 0
213 291 m 0
 179 291 159 259 159 232 c 0
 159 214 169 198 193 198 c 0
 227 198 249 228 249 256 c 0
 249 275 238 291 213 291 c 0
EndSplineSet
EndChar
StartChar: uni0E2F
Encoding: 207 3631 174
Width: 518
Flags: W
HStem: -2 21G<312.208 337.5> 282 54<210.609 353.746> 405 47<212.645 285.29> 546 44<218.556 297.263>
VStem: 127 78<381.062 507.156> 300 49<465.807 543.534> 502 59<530.281 590>
Fore
275 336 m 0
 417 336 502 534 502 590 c 1
 506 591 510 591 513 591 c 0
 530 591 561 582 561 546 c 0
 561 541 560 536 559 530 c 2
 477 144 l 2
 470 115 454 66 410 35 c 0
 380 14 356 0 319 -2 c 1
 301 51 l 1
 316 51 345 58 375 83 c 0
 393 98 403 121 408 146 c 2
 456 372 l 1
 423 328 354 282 268 282 c 0
 167 282 127 344 127 415 c 0
 127 522 200 590 272 590 c 0
 320 590 349 565 349 524 c 0
 349 468 299 405 234 405 c 0
 220 405 206 409 194 415 c 1
 195 400 187 336 275 336 c 0
263 546 m 0
 228 546 205 516 205 488 c 0
 205 469 217 452 243 452 c 0
 277 452 300 483 300 510 c 0
 300 529 289 546 263 546 c 0
EndSplineSet
EndChar
StartChar: uni0E30
Encoding: 208 3632 175
Width: 510
Flags: W
HStem: 10 62<143.026 270.714> 169 47<154.769 235.078> 366 62<219.469 347.131> 524 47<230.579 310.289>
VStem: 86 54<75.8141 153.715> 162 54<431.892 510.093> 238 51<102.941 166.322> 313 51<441.021 520.589>
Fore
162 451 m 0
 162 509 211 571 284 571 c 0
 316 571 364 556 364 501 c 0
 364 469 353 447 338 428 c 1
 425 448 509 514 557 572 c 1
 535 472 l 1
 525 459 409 366 282 366 c 0
 217 366 162 392 162 451 c 0
86 95 m 0
 86 163 145 216 209 216 c 0
 240 216 289 201 289 145 c 0
 289 134 289 107 262 72 c 1
 285 78 386 103 481 216 c 1
 460 116 l 1
 448 103 331 10 205 10 c 0
 140 10 86 36 86 95 c 0
275 524 m 0
 238 524 216 492 216 465 c 0
 216 445 228 428 255 428 c 0
 291 428 313 459 313 487 c 0
 313 507 302 524 275 524 c 0
200 169 m 0
 162 169 140 136 140 108 c 0
 140 88 153 72 179 72 c 0
 215 72 238 103 238 132 c 0
 238 152 227 169 200 169 c 0
EndSplineSet
EndChar
StartChar: uni0E31
Encoding: 209 3633 176
Width: 0
Flags: W
HStem: 713 63<-48 82.6048> 891 45<-141.411 -57.7067>
VStem: -206 49<793.277 875.174> -54 49<804.44 886.881>
AnchorPoint: "AboveMark" 96 988 basemark 0
AnchorPoint: "AboveBase" 26 659 mark 0
Back
251 812 m 1
 251 812 l 0
 213 783 138 745 67 730 c 0
 -38 704 -181 697 -204 797 c 0
 -215 842 -178 926 -97 935 c 0
 -21 944 9 886 -11 828 c 0
 -26 789 -37 786 -48 776 c 1
 -8 774 32 774 101 802 c 0
 189 835 262 907 274 921 c 1
 251 812 l 1
-116 789 m 0
 -49 789 -28 891 -95 891 c 0
 -162 891 -184 789 -116 789 c 0
EndSplineSet
Fore
-5 863 m 0
 -5 804 -48 776 -48 776 c 1
 -40 776 -31 775 -22 775 c 0
 135 775 264 909 274 921 c 1
 251 812 l 1
 183 760 55 713 -57 713 c 0
 -177 713 -206 774 -206 814 c 0
 -206 864 -163 936 -82 936 c 0
 -31 936 -5 903 -5 863 c 0
-116 789 m 0
 -77 789 -54 823 -54 852 c 0
 -54 873 -67 891 -95 891 c 0
 -134 891 -157 857 -157 828 c 0
 -157 807 -145 789 -116 789 c 0
EndSplineSet
EndChar
StartChar: uni0E32
Encoding: 210 3634 177
Width: 438
Flags: W
HStem: 0 21G<290 363.258> 532 60<219.361 370.855>
VStem: 384 71<437.131 517.906>
Back
359 0 m 1
 290 0 l 1
 376 406 l 2
 380 431 383 451 383 468 c 0
 383 512 362 532 302 532 c 0
 212 532 173 472 152 441 c 1
 107 477 l 1
 144 530 189 592 303 592 c 0
 308 592 311 592 316 592 c 0
 425 589 455 538 455 478 c 0
 455 458 452 438 448 418 c 2
 359 0 l 1
EndSplineSet
Fore
305 592 m 0
 423 592 455 542 455 478 c 0
 455 459 452 438 448 418 c 2
 359 0 l 1
 290 0 l 1
 376 406 l 2
 381 429 384 449 384 466 c 0
 384 512 362 532 302 532 c 0
 211 532 174 472 152 441 c 1
 107 477 l 1
 144 530 188 592 305 592 c 0
EndSplineSet
EndChar
StartChar: uni0E33
Encoding: 211 3635 178
Width: 438
Flags: W
HStem: 0 21<290 363.258> 532 60<219.361 370.855> 633 46<-66.1021 23.6327> 791 46<-50.6049 39.3314>
VStem: -117 46<684.228 770.888> 44 47<700.271 785.285> 384 71<437.131 517.906>
Back
-38 676 m 0
 -38 676 l 0
 -98 676 -124 714 -124 759 c 0
 -124 819 -75 889 6 889 c 0
 66 889 92 851 92 806 c 0
 92 746 43 676 -38 676 c 0
-28 728 m 0
 -28 728 l 0
 15 728 40 765 40 796 c 0
 40 817 26 837 -5 837 c 0
 -46 837 -72 800 -72 769 c 0
 -72 748 -58 728 -28 728 c 0
353 0 m 1
 284 0 l 1
 369 406 l 2
 374 431 377 451 377 468 c 0
 377 512 356 532 296 532 c 0
 205 532 167 472 146 441 c 1
 101 477 l 1
 138 530 182 592 297 592 c 0
 302 592 305 592 310 592 c 0
 418 589 449 538 449 478 c 0
 449 458 446 438 441 418 c 2
 353 0 l 1
EndSplineSet
Refer: 201 3661 N 1 0 0 1 0 0 2
Refer: 177 3634 N 1 0 0 1 0 0 2
MultipleSubs2: "Thai Sara Am Decomposition" uni0E4D uni0E32
Substitution2: "Thai Sara Am Lakkhang" uni0E32
EndChar
StartChar: uni0E34
Encoding: 212 3636 179
Width: 0
Flags: W
HStem: 704 55<-324.656 -42.7879> 829 54<-245.214 -75.9893>
VStem: -420 453<662 723.479 662 705>
AnchorPoint: "AboveMark" 62 988 basemark 0
AnchorPoint: "AboveBase" 26 659 mark 0
Fore
28 656 m 1
 -48 690 -94 704 -188 704 c 0
 -276 704 -333 692 -420 662 c 1
 -391 788 -285 883 -148 883 c 0
 -37 883 33 805 33 705 c 0
 33 689 31 673 28 656 c 1
-326 737 m 1
 -296 746 -247 759 -175 759 c 0
 -106 759 -57 743 -21 730 c 1
 -37 794 -86 829 -156 829 c 0
 -228 829 -282 797 -326 737 c 1
EndSplineSet
EndChar
StartChar: uni0E35
Encoding: 213 3637 180
Width: 0
Flags: W
HStem: 708 54<-309.791 -26.2043> 834 53<-232.634 -59.9997>
VStem: -406 496<667 956>
AnchorPoint: "AboveMark" 62 988 basemark 0
AnchorPoint: "AboveBase" 26 659 mark 0
Fore
43 661 m 1
 -35 696 -83 708 -184 708 c 0
 -265 707 -322 696 -406 667 c 1
 -380 792 -261 887 -136 887 c 0
 -25 887 -8 829 -6 829 c 1
 21 956 l 1
 90 956 l 1
 48 760 l 1
 48 760 50 747 50 731 c 0
 50 710 43 667 43 661 c 1
-8 734 m 1
 -21 799 -71 834 -143 834 c 0
 -213 834 -270 800 -311 742 c 1
 -275 753 -233 762 -159 762 c 0
 -91 762 -43 748 -8 734 c 1
EndSplineSet
EndChar
StartChar: uni0E36
Encoding: 214 3638 181
Width: 0
Flags: W
HStem: 688 55<-327.031 -41.2495> 814 59<-251.804 -106.325> 924 44<-42.4485 35.1958>
VStem: 38 48<845.309 920.712>
AnchorPoint: "AboveMark" 13 988 basemark 0
AnchorPoint: "AboveBase" 26 659 mark 0
Fore
86 899 m 0
 86 872 70 817 11 796 c 1
 27 771 32 742 32 702 c 0
 32 675 28 659 25 642 c 1
 -49 675 -92 688 -182 688 c 0
 -276 688 -332 680 -422 648 c 1
 -395 782 -274 873 -149 873 c 0
 -121 873 -104 868 -101 868 c 1
 -100 880 -103 898 -80 927 c 0
 -56 957 -21 968 9 968 c 0
 59 968 86 939 86 899 c 0
-18 834 m 0
 17 834 38 863 38 889 c 0
 38 908 26 924 0 924 c 0
 -34 924 -55 894 -55 869 c 0
 -55 850 -44 834 -18 834 c 0
-25 716 m 1
 -40 779 -89 814 -159 814 c 0
 -230 814 -287 782 -328 723 c 1
 -291 734 -244 743 -172 743 c 0
 -106 743 -59 727 -25 716 c 1
EndSplineSet
EndChar
StartChar: uni0E37
Encoding: 215 3639 182
Width: 0
Flags: W
HStem: 705 55<-299.816 -16.142> 831 60<-225.162 -108.331>
VStem: -397 489<664 958>
AnchorPoint: "AboveMark" 4 988 basemark 0
AnchorPoint: "AboveBase" 26 659 mark 0
Fore
49 658 m 1
 -24 691 -68 705 -158 705 c 0
 -251 706 -308 695 -397 664 c 1
 -391 697 -371 780 -293 838 c 0
 -238 880 -173 891 -134 891 c 0
 -124 891 -116 890 -110 889 c 1
 -95 958 l 1
 -28 958 l 1
 -44 877 l 1
 -34 873 -7 856 0 842 c 1
 25 958 l 1
 92 958 l 1
 49 757 l 2
 49 754 52 736 52 720 c 0
 52 676 49 658 49 658 c 1
2 733 m 1
 -15 796 -64 831 -135 831 c 0
 -205 831 -261 799 -303 739 c 1
 -265 751 -219 760 -147 760 c 0
 -81 760 -35 744 2 733 c 1
EndSplineSet
EndChar
StartChar: uni0E38
Encoding: 216 3640 183
Width: 0
Flags: W
HStem: -203 51<-264.523 -227.341> -85 50<-258.714 -194.648>
VStem: -317 52<-151.284 -90.4407> -194 58<-136.424 -85.6226>
AnchorPoint: "BelowBase" -113 -35 mark 0
Fore
-317 -140 m 0
 -317 -108 -296 -35 -210 -35 c 0
 -153 -35 -136 -62 -136 -97 c 0
 -136 -106 -137 -117 -139 -127 c 2
 -179 -313 l 1
 -248 -313 l 1
 -223 -198 l 1
 -223 -198 -234 -203 -249 -203 c 0
 -270 -203 -317 -191 -317 -140 c 0
-222 -85 m 0
 -246 -85 -265 -103 -265 -126 c 0
 -265 -140 -255 -152 -236 -152 c 0
 -211 -152 -194 -130 -194 -111 c 0
 -194 -97 -202 -85 -222 -85 c 0
EndSplineSet
Substitution2: "Thai Sara U Nikhahit Reordering" uni0E4D
Substitution2: "Thai Sara U Thanthakhat Reordering" uni0E4C.low
Substitution2: "Thai Sara U Mai Chattawa Reordering" uni0E4B.low
Substitution2: "Thai Sara U Mai Tri Reordering" uni0E4A.low
Substitution2: "Thai Sara U Mai Tho Reordering" uni0E49.low
Substitution2: "Thai Sara U Mai Ek Reordering" uni0E48.low
EndChar
StartChar: uni0E39
Encoding: 217 3641 184
Width: 0
Flags: W
HStem: -308 47<-299 -232.719> -203 48<-394.955 -354.732> -87 47<-389.558 -326.666>
VStem: -444 48<-154.016 -92.5588> -326 58<-137.542 -88.0077>
AnchorPoint: "BelowBase" -113 -35 mark 0
Fore
-444 -140 m 0
 -444 -85 -395 -40 -341 -40 c 0
 -289 -40 -268 -68 -268 -103 c 0
 -268 -110 -269 -118 -271 -126 c 2
 -299 -261 l 1
 -254 -261 l 2
 -237 -261 -236 -253 -232 -236 c 2
 -191 -44 l 1
 -127 -44 l 1
 -171 -247 l 2
 -177 -279 -188 -308 -218 -308 c 2
 -373 -308 l 1
 -350 -198 l 1
 -350 -198 -363 -203 -379 -203 c 0
 -417 -203 -444 -178 -444 -140 c 0
-353 -87 m 0
 -379 -87 -396 -109 -396 -128 c 0
 -396 -142 -387 -155 -368 -155 c 0
 -343 -155 -326 -134 -326 -112 c 0
 -326 -99 -334 -87 -353 -87 c 0
EndSplineSet
Substitution2: "Thai Sara UU Nikhahit Reordering" uni0E4D
Substitution2: "Thai Sara UU Thanthakhat Reordering" uni0E4C.low
Substitution2: "Thai Sara UU Mai Chattawa Reordering" uni0E4B.low
Substitution2: "Thai Sara UU Mai Tri Reordering" uni0E4A.low
Substitution2: "Thai Sara UU Mai Tho Reordering" uni0E49.low
Substitution2: "Thai Sara UU Mai Ek Reordering" uni0E48.low
EndChar
StartChar: uni0E3A
Encoding: 218 3642 185
Width: 0
Flags: W
HStem: -196 122<-231.15 -153.698>
VStem: -254 124<-172.375 -96.6774>
AnchorPoint: "BelowBase" -113 -35 mark 0
Fore
-130 -121 m 0
 -130 -158 -161 -196 -206 -196 c 0
 -240 -196 -254 -174 -254 -149 c 0
 -254 -113 -225 -74 -180 -74 c 0
 -146 -74 -130 -95 -130 -121 c 0
EndSplineSet
Substitution2: "Thai Phinthu Nikhahit Reordering" uni0E4D
Substitution2: "Thai Phinthu Thanthakhat Reordering" uni0E4C.low
Substitution2: "Thai Phinthu Mai Chattawa Reordering" uni0E4B.low
Substitution2: "Thai Phinthu Mai Tri Reordering" uni0E4A.low
Substitution2: "Thai Phinthu Mai Tho Reordering" uni0E49.low
Substitution2: "Thai Phinthu Mai Ek Reordering" uni0E48.low
Substitution2: "Thai Phinthu Maitaikhu Reordering" uni0E47
EndChar
StartChar: uni0E4D.high
Encoding: 219 63262 186
Width: 0
Flags: W
HStem: 963 46<3.70445 93.1517> 1121 46<19.7235 107.707>
VStem: -47 46<1014.67 1101.56> 113 48<1029.16 1115.77>
AnchorPoint: "AboveMark" 40.0059 988 mark 0
Fore
161 1089 m 0
 161 1028 111 963 35 963 c 0
 -23 963 -47 1000 -47 1042 c 0
 -47 1094 -5 1167 78 1167 c 0
 135 1167 161 1131 161 1089 c 0
68 1121 m 0
 26 1121 -1 1085 -1 1052 c 0
 -1 1029 13 1009 44 1009 c 0
 88 1009 113 1047 113 1078 c 0
 113 1101 100 1121 68 1121 c 0
EndSplineSet
EndChar
StartChar: uni0E3F
Encoding: 223 3647 187
Width: 629
Flags: W
HStem: 0 71<170 258 343 480.893> 322 72<239 326 412 518.447> 624 70<288 391 524 546.887>
VStem: 556 69<150.942 291.497> 588 77<470.917 586.319>
Fore
342 394 m 1xe0
 391 624 l 1
 288 624 l 1
 239 394 l 1
 342 394 l 1xe0
273 71 m 1
 326 322 l 1
 223 322 l 1
 170 71 l 1
 273 71 l 1
400 71 m 2
 525 71 556 186 556 235 c 0xf0
 556 316 477 322 405 322 c 2
 396 322 l 1
 343 71 l 1
 400 71 l 2
429 394 m 2
 540 394 588 468 588 529 c 0xe8
 588 571 565 619 461 624 c 1
 412 394 l 1
 429 394 l 2
625 240 m 0xf0
 625 90.148 484.525 0 414 0 c 2
 328 0 l 1
 308 -94 l 1
 238 -94 l 1
 258 0 l 1
 84 0 l 1
 232 694 l 1
 406 694 l 1
 424 779 l 1
 494 779 l 1
 476 694 l 1
 524 694 l 2
 574 694 665 660 665 559 c 0xe8
 665 506 640 415 529 368 c 1
 557 351 625 328 625 240 c 0xf0
EndSplineSet
EndChar
StartChar: uni0E40
Encoding: 224 3648 188
Width: 340
Flags: W
HStem: -2 51<170.38 250.268> 141 49<207.111 259.927> 570 20G<213.746 287>
VStem: 111 56<51.787 114.355> 263 54<62.0585 138.265>
Fore
317 119 m 0
 317 60 268 -2 195 -2 c 0
 134 -2 111 33 111 74 c 0
 111 83 112 92 114 101 c 2
 218 590 l 1
 287 590 l 1
 201 184 l 1
 201 184 218 190 239 190 c 0
 284 190 317 163 317 119 c 0
225 141 m 0
 189 141 167 110 167 85 c 0
 167 65 179 49 205 49 c 0
 241 49 263 80 263 105 c 0
 263 125 251 141 225 141 c 0
EndSplineSet
EndChar
StartChar: uni0E41
Encoding: 225 3649 189
Width: 600
Flags: W
HStem: -2 51<170.38 250.268 437.88 517.07> 141 49<207.111 259.927 473.75 527.389> 570 20G<213.746 287 480.746 554>
VStem: 111 56<51.787 114.355> 263 54<62.0585 138.265> 378 57<51.787 114.355> 530 55<61.7828 138.071>
Fore
585 121 m 0
 585 63 539 -2 462 -2 c 0
 401 -2 378 33 378 74 c 0
 378 83 379 92 381 101 c 2
 485 590 l 1
 554 590 l 1
 468 184 l 1
 468 184 484 190 506 190 c 0
 534 190 585 176 585 121 c 0
317 119 m 0
 317 60 268 -2 195 -2 c 0
 134 -2 111 33 111 74 c 0
 111 83 112 92 114 101 c 2
 218 590 l 1
 287 590 l 1
 201 184 l 1
 201 184 218 190 239 190 c 0
 284 190 317 163 317 119 c 0
493 141 m 0
 457 141 435 110 435 85 c 0
 435 65 447 49 473 49 c 0
 509 49 530 80 530 106 c 0
 530 125 519 141 493 141 c 0
225 141 m 0
 189 141 167 110 167 85 c 0
 167 65 179 49 205 49 c 0
 241 49 263 80 263 105 c 0
 263 125 251 141 225 141 c 0
EndSplineSet
EndChar
StartChar: uni0E42
Encoding: 226 3650 190
Width: 413
Flags: MW
HStem: -2 51<216.38 296.268> 141 49<253.111 305.927> 938 58<405.498 549.469> 981 49<252.933 404.378>
VStem: 309 54<62.0585 138.265> 311 72<804.398 864.659>
Fore
363 119 m 0
 363 60 314 -2 241 -2 c 0
 180 -2 157 33 157 74 c 0
 157 83 158 92 160 101 c 2
 309 799 l 2
 311 807 311 814 311 821 c 0
 311 853 290 868 247 894 c 0
 202 920 145 937 139 937 c 1
 187 988 254 1030 333 1030 c 0
 402 1030 442 996 485 996 c 0
 515 996 540 1008 545 1013 c 1
 558 963 l 1
 558 963 531 938 483 938 c 0
 421 938 386 981 327 981 c 0
 280 981 252 958 246 955 c 1
 249 955 307 932 339 907 c 0
 366 886 383 866 383 834 c 0
 383 826 382 818 380 809 c 2
 247 184 l 1
 247 184 264 190 285 190 c 0
 330 190 363 163 363 119 c 0
271 141 m 0
 235 141 213 110 213 85 c 0
 213 65 225 49 251 49 c 0
 287 49 309 80 309 105 c 0
 309 125 297 141 271 141 c 0
EndSplineSet
EndChar
StartChar: uni0E43
Encoding: 227 3651 191
Width: 400
Flags: MW
HStem: -2 51<225.899 304.379> 141 49<262.699 315.214> 765 43<188.144 239.498> 976 49<247.739 336.797>
VStem: 143 45<813.246 879.708> 246 45<813.136 882.423> 318 55<62.5364 138.186> 345 70<914.804 968.541>
Fore
373 119 m 0
 373 62 324 -2 250 -2 c 0
 189 -2 167 32 167 73 c 0
 167 82 168 92 170 101 c 2
 344 917 l 2
 345 921 345 924 345 928 c 0
 345 954 327 976 299 976 c 0
 268 976 242 958 231 929 c 1
 233 929 238 930 245 930 c 0
 281 930 291 906 291 880 c 0
 291 851 274 765 202 765 c 0
 176 765 143 777 143 830 c 0
 143 892 190 1025 315 1025 c 0
 382 1025 415 989 415 939 c 0
 415 930 414 921 412 912 c 2
 257 184 l 1
 257 184 273 190 295 190 c 0
 324 190 373 174 373 119 c 0
225 886 m 0
 203 886 188 854 188 833 c 0
 188 819 194 808 209 808 c 0
 231 808 246 833 246 857 c 0
 246 872 239 886 225 886 c 0
280 141 m 0
 245 141 223 110 223 84 c 0
 223 65 235 49 260 49 c 0
 297 49 318 80 318 106 c 0
 318 125 307 141 280 141 c 0
EndSplineSet
EndChar
StartChar: uni0E44
Encoding: 228 3652 192
Width: 449
Flags: MW
HStem: -2 51<262.336 341.368> 141 49<300.909 352.738> 728 21G<211.571 217.816> 972 58<150 170.115 361.831 417>
VStem: 174 64<916.641 970.251> 355 54<61.7288 137.941> 390 70<944.492 993>
Fore
409 121 m 0
 409 57 361 -2 288 -2 c 0
 228 -2 205 33 205 74 c 0
 205 83 206 92 208 101 c 2
 386 935 l 1
 386 943 390 952 390 962 c 0
 390 968 389 972 383 972 c 0
 371 972 364 955 359 944 c 2
 269 737 l 2
 245 681 208 677 194 677 c 0
 161 677 148 701 148 728 c 0
 148 732 148 736 149 740 c 2
 172 906 l 2
 173 912 174 919 174 927 c 0
 174 949 167 973 139 973 c 2
 138 973 l 1
 150 1030 l 1
 154 1030 158 1031 162 1031 c 0
 189 1031 238 1020 238 959 c 0
 238 952 237 945 236 938 c 2
 209 728 l 1
 317 973 l 2
 328 997 356 1030 400 1030 c 0
 444 1030 460 1010 460 976 c 0
 460 965 459 954 456 941 c 2
 295 184 l 1
 295 184 311 190 333 190 c 0
 363 190 409 175 409 121 c 0
318 141 m 0
 281 141 260 110 260 84 c 0
 260 65 271 49 298 49 c 0
 333 49 355 80 355 106 c 0
 355 125 343 141 318 141 c 0
EndSplineSet
EndChar
StartChar: uni0E45
Encoding: 229 3653 193
Width: 220
Flags: W
HStem: 481 1<-49 -48> 535 55<41.6849 175.363>
VStem: 188 73<444.972 523.743>
Fore
116 -218 m 1
 48 -218 l 1
 181 411 l 2
 185 429 188 448 188 466 c 0
 188 504 174 535 129 535 c 0
 45 535 18 503 -6 455 c 1
 -14 460 -48 482 -49 482 c 1
 -49 482 -49 481 -48 481 c 1
 -25 533 10 590 137 590 c 0
 236 590 261 546 261 492 c 0
 261 469 256 444 251 420 c 2
 116 -218 l 1
EndSplineSet
EndChar
StartChar: uni0E46
Encoding: 230 3654 194
Width: 565
Flags: MW
HStem: -244 51<274 334.321> 241 46<225.429 307.82> 386 46<237.433 319.435> 486 55<384 396> 570 20G<266.921 359.898 441.571 477.5>
VStem: 155 67<290.552 414.934> 323 49<301.767 382.839> 530 72<451.935 512.986>
Fore
372 353 m 0
 372 302 325 241 253 241 c 0
 183 241 155 288 155 352 c 0
 155 443.574 198.841 556.202 335 590 c 1
 396 541 l 1
 473 590 l 1
 482 590 535 582 560 563 c 0
 587 540 602 508 602 476 c 0
 602 470 601 463 600 457 c 2
 491 -58 l 2
 480 -110 455 -152 410 -185 c 0
 364 -219 303 -242 274 -244 c 1
 253 -193 l 1
 258 -193 326 -175 366 -144 c 0
 397 -123 412 -94 420 -58 c 2
 526 441 l 2
 528 452 530 462 530 472 c 0
 530 514 492 524 466 524 c 1
 384 486 l 1
 325 524 l 1
 292 524 229 472 229 416 c 2
 229 412 l 1
 229 412 253 432 294 432 c 0
 353 432 372 390 372 353 c 0
283 386 m 0
 246 386 222 353 222 325 c 0
 222 305 234 287 262 287 c 0
 299 287 323 319 323 348 c 0
 323 369 311 386 283 386 c 0
EndSplineSet
EndChar
StartChar: uni0E47
Encoding: 231 3655 195
Width: 0
Flags: MW
HStem: 668 49<-70.3834 -21.8225> 749 59<-257.61 -162.703> 769 51<-68.6032 -19.4329> 862 55<-171.509 47.3981> 875 54<-253.414 -23.2526>
VStem: -354 68<769 843.457> -19 49<719.747 764.92> 70 74<924.563 979>
AnchorPoint: "AboveBase" 27 659 mark 0
Back
143 975 m 1
 143 975 l 0
 139 958 129 940 118 924 c 0
 69 861 -11 858 -71 864 c 0
 -97 868 -121 871 -146 874 c 0
 -193 878 -236 875 -264 843 c 0
 -284 823 -287 800 -285 777 c 1
 -285 769 l 1
 -227 832 -153 811 -112 766 c 1
 -80 845 49 838 26 739 c 0
 15 688 -38 659 -84 671 c 0
 -118 679 -136 702 -158 723 c 0
 -176 742 -196 756 -231 745 c 0
 -262 737 -276 705 -284 671 c 2
 -285 664 l 1
 -333 684 -359 719 -353 776 c 0
 -346 849 -293 907 -238 921 c 0
 -150 944 -92 912 -9 917 c 0
 29 918 61 937 69 975 c 2
 71 979 l 1
 144 979 l 1
 143 975 l 1
-20 743 m 0
 -17 757 -21 769 -40 769 c 0
 -57 769 -67 757 -71 743 c 0
 -74 731 -69 717 -52 717 c 0
 -34 717 -23 731 -20 743 c 0
EndSplineSet
Fore
-208 749 m 0
 -254 749 -275 714 -285 664 c 1
 -320 679 -354 706 -354 761 c 0
 -354 820 -318 929 -173 929 c 0
 -117 929 -95 917 -9 917 c 0
 23 917 60 931 70 979 c 1
 144 979 l 1
 137 951 109 862 -31 862 c 0
 -85 862 -124 875 -175 875 c 0
 -226 875 -286 856 -286 780 c 0
 -286 776 -286 773 -286 769 c 1
 -259 797 -230 808 -202 808 c 0
 -167 808 -134 791 -111 766 c 1
 -97 802 -63 820 -32 820 c 0
 1 820 30 801 30 761 c 0
 30 705 -16 668 -63 668 c 0
 -137 668 -153 749 -208 749 c 0
-52 717 m 0
 -30 717 -19 735 -19 750 c 0
 -19 761 -25 769 -41 769 c 0
 -65 769 -71 745 -71 736 c 0
 -71 726 -66 717 -52 717 c 0
EndSplineSet
Substitution2: "Thai Mark High Variant" uni0E47.high
Substitution2: "Thai Phinthu Maitaikhu Reordering" uni0E3A
EndChar
StartChar: uni0E48
Encoding: 232 3656 196
Width: 0
Flags: W
VStem: 32 104<992 1179>
AnchorPoint: "AboveMark" 62 988 mark 0
Fore
98 992 m 1
 32 992 l 1
 71 1179 l 1
 136 1179 l 1
 98 992 l 1
EndSplineSet
Substitution2: "Thai Phinthu Mai Ek Reordering" uni0E3A
Substitution2: "Thai Sara UU Mai Ek Reordering" uni0E39
Substitution2: "Thai Sara U Mai Ek Reordering" uni0E38
MultipleSubs2: "Thai Tone Nikhahit Attachment" uni0E4D uni0E48
Substitution2: "Thai Tone Low Variant" uni0E48.low
EndChar
StartChar: uni0E49
Encoding: 233 3657 197
Width: 0
Flags: W
HStem: 1051 39<-38.7693 7> 1166 38<-29.8493 36.7666>
VStem: -87 47<1091.47 1156.19> 38 43<1096.92 1165.56>
AnchorPoint: "AboveMark" 59 988 mark 0
Fore
-87 1109 m 0
 -87 1138 -66 1204 17 1204 c 0
 68 1204 81 1174 81 1143 c 0
 81 1087 31 1030 28 1029 c 1
 135 1053 239 1150 271 1199 c 1
 251 1104 l 1
 216 1068 182 1036 109 1007 c 0
 59 986 16 980 -22 980 c 0
 -42 980 -60 982 -77 984 c 1
 -37 1005 -24 1031 -11 1052 c 1
 -15 1051 -20 1051 -24 1051 c 0
 -50 1051 -87 1069 -87 1109 c 0
11 1166 m 0
 -20 1166 -40 1140 -40 1118 c 0
 -40 1103 -30 1090 -8 1090 c 0
 22 1090 38 1115 38 1136 c 0
 38 1152 29 1166 11 1166 c 0
EndSplineSet
Substitution2: "Thai Phinthu Mai Tho Reordering" uni0E3A
Substitution2: "Thai Sara UU Mai Tho Reordering" uni0E39
Substitution2: "Thai Sara U Mai Tho Reordering" uni0E38
MultipleSubs2: "Thai Tone Nikhahit Attachment" uni0E4D uni0E49
Substitution2: "Thai Tone Low Variant" uni0E49.low
EndChar
StartChar: uni0E4A
Encoding: 234 3658 198
Width: 0
Flags: W
HStem: 978 32<-49.2794 2.64193> 1065 34<-38.092 4.68342> 1146 45<-31.9387 57.3495 77.5873 146.606>
VStem: -103 53<1015.43 1094.11> 5 37<1012.59 1064.48> 150 53<1051.42 1143.31>
AnchorPoint: "AboveMark" 55 988 mark 0
Fore
161 1021 m 1
 189 1033 259 1076 282 1185 c 1
 322 1143 l 1
 303 1096 233 982 100 982 c 0
 93 982 87 983 80 983 c 1
 102 994 150 1050 150 1104 c 0
 150 1131 139 1146 112 1146 c 0
 85 1146 64 1127 60 1122 c 1
 56 1127 33 1144 11 1144 c 0
 -14 1144 -46 1122 -52 1084 c 1
 -37 1094 -28 1099 -5 1099 c 0
 25 1099 42 1077 42 1051 c 0
 42 1014 7 978 -37 978 c 0
 -80 978 -103 1009 -103 1051 c 0
 -103 1093 -71 1191 13 1191 c 0
 39 1191 56 1178 64 1156 c 1
 83 1179 112 1191 141 1191 c 0
 179 1191 203 1163 203 1124 c 0
 203 1073 169 1032 161 1021 c 1
-28 1010 m 0
 -7 1010 5 1028 5 1043 c 0
 5 1055 -2 1065 -17 1065 c 0
 -37 1065 -50 1046 -50 1031 c 0
 -50 1020 -43 1010 -28 1010 c 0
EndSplineSet
Substitution2: "Thai Phinthu Mai Tri Reordering" uni0E3A
Substitution2: "Thai Sara UU Mai Tri Reordering" uni0E39
Substitution2: "Thai Sara U Mai Tri Reordering" uni0E38
MultipleSubs2: "Thai Tone Nikhahit Attachment" uni0E4D uni0E4A
Substitution2: "Thai Tone Low Variant" uni0E4A.low
EndChar
StartChar: uni0E4B
Encoding: 235 3659 199
Width: 0
Flags: W
HStem: 1052 62<-21 49 126 192>
VStem: -35 240<1052 1114>
AnchorPoint: "AboveMark" 61 973 mark 0
Fore
192 1052 m 1
 112 1052 l 1
 95 975 l 1
 32 975 l 1
 49 1052 l 1
 -35 1052 l 1
 -21 1114 l 1
 63 1114 l 1
 80 1196 l 1
 143 1196 l 1
 126 1114 l 1
 205 1114 l 1
 192 1052 l 1
EndSplineSet
Substitution2: "Thai Phinthu Mai Chattawa Reordering" uni0E3A
Substitution2: "Thai Sara UU Mai Chattawa Reordering" uni0E39
Substitution2: "Thai Sara U Mai Chattawa Reordering" uni0E38
MultipleSubs2: "Thai Tone Nikhahit Attachment" uni0E4D uni0E4B
Substitution2: "Thai Tone Low Variant" uni0E4B.low
EndChar
StartChar: uni0E4C
Encoding: 236 3660 200
Width: 0
Flags: W
HStem: 891 39<-24.6608 46.2072> 1012 36<-3.07367 54.7053>
VStem: -85 58<932.333 1003.1> 56 44<938.253 1010.34>
AnchorPoint: "AboveMark" -1 889 mark 0
Fore
100 988 m 0
 100 931 43 891 -3 891 c 0
 -56 891 -85 930 -85 978 c 0
 -85 996 -80 1017 -71 1036 c 0
 -32 1114 34 1136 135 1136 c 0
 215 1136 218 1193 224 1196 c 1
 290 1196 l 1
 284 1183 277 1140 221 1113 c 0
 153 1079 83 1101 23 1074 c 0
 -6 1061 -12 1038 -15 1033 c 1
 2 1044 9 1048 37 1048 c 0
 73 1048 100 1025 100 988 c 0
8 930 m 0
 38 930 56 957 56 980 c 0
 56 997 46 1012 23 1012 c 0
 -8 1012 -27 986 -27 963 c 0
 -27 945 -16 930 8 930 c 0
EndSplineSet
Substitution2: "Thai Phinthu Thanthakhat Reordering" uni0E3A
Substitution2: "Thai Sara UU Thanthakhat Reordering" uni0E39
Substitution2: "Thai Sara U Thanthakhat Reordering" uni0E38
MultipleSubs2: "Thai Tone Nikhahit Attachment" uni0E4D uni0E4C
Substitution2: "Thai Tone Low Variant" uni0E4C.low
EndChar
StartChar: uni0E4D
Encoding: 237 3661 201
Width: 0
Flags: W
HStem: 633 46<-66.1021 23.6327> 791 46<-50.6049 39.3314>
VStem: -117 46<684.228 770.888> 44 47<700.271 785.285>
AnchorPoint: "AboveMark" 40 988 basemark 0
AnchorPoint: "AboveBase" 72 659 mark 0
Fore
-35 633 m 0
 -92 633 -117 669 -117 711 c 0
 -117 769 -70 837 8 837 c 0
 66 837 91 801 91 758 c 0
 91 701 43 633 -35 633 c 0
-26 679 m 0
 17 679 44 717 44 748 c 0
 44 771 30 791 -2 791 c 0
 -44 791 -71 753 -71 722 c 0
 -71 699 -57 679 -26 679 c 0
EndSplineSet
Substitution2: "Thai Phinthu Nikhahit Reordering" uni0E3A
Substitution2: "Thai Sara UU Nikhahit Reordering" uni0E39
Substitution2: "Thai Sara U Nikhahit Reordering" uni0E38
Substitution2: "Thai Mark High Variant" uni0E4D.high
EndChar
StartChar: uni0E4E
Encoding: 238 3662 202
Width: 0
Flags: W
HStem: 731 42<-33.087 87.8977> 892 35<107.344 142> 1032 33<130.188 241.688>
VStem: -91 88<776.219 850.115> 26 76<936.566 1005.82>
AnchorPoint: "AboveBase" -32 659 mark 0
Back
130 766 m 1
 98 743 54 731 0 731 c 0
 -40 731 -66 739 -78 756 c 0
 -90 769 -94 786 -89 808 c 0
 -86 831 -72 852 -51 871 c 0
 -17 903 29 918 84 918 c 1
 69 920 54 924 40 937 c 0
 28 947 23 963 28 983 c 1
 46 1025 95 1053 176 1064 c 0
 184 1065 195 1065 212 1065 c 0
 244 1067 267 1062 282 1053 c 1
 238 1024 l 2
 236 1024 231 1024 222 1027 c 0
 216 1029 207 1030 199 1032 c 0
 190 1032 181 1030 167 1027 c 0
 133 1018 112 1001 103 975 c 0
 100 960 103 947 116 940 c 0
 130 932 146 927 166 927 c 1
 143 892 l 1
 98 892 61 883 29 861 c 0
 14 849 3 834 -2 815 c 0
 -3 805 -2 797 2 789 c 0
 9 779 21 773 40 773 c 0
 66 773 86 779 104 794 c 1
 130 766 l 1
EndSplineSet
Fore
142 892 m 1
 53 892 -3 849 -3 805 c 0
 -3 784 15 773 40 773 c 0
 66 773 86 779 105 794 c 1
 131 766 l 1
 98 743 54 731 0 731 c 0
 -65 731 -91 754 -91 791 c 0
 -91 846 -33 918 85 918 c 1
 52 922 26 938 26 969 c 0
 26 1026 115 1065 225 1065 c 0
 250 1065 270 1061 282 1053 c 1
 238 1024 l 1
 230 1027 208 1032 199 1032 c 0
 170 1032 102 1012 102 966 c 0
 102 938 133 931 165 927 c 1
 142 892 l 1
EndSplineSet
EndChar
StartChar: uni0E4F
Encoding: 239 3663 203
Width: 599
Flags: W
HStem: 0 31<225.718 416.323> 100 30<276.624 405.168> 326 36<314.831 436.95> 429 32<315.056 487.233>
VStem: 122 32<100.324 280.788> 223 32<151.61 271.946> 458 34<193.625 304.579> 561 34<195.018 356.862>
Fore
595 284 m 0
 595 161 493 0 310 0 c 0
 180 0 122 82 122 176 c 0
 122 305 229 461 408 461 c 0
 537 461 595 379 595 284 c 0
401 429 m 0
 247 429 154 297 154 184 c 0
 154 102 204 31 317 31 c 0
 471 31 561 164 561 277 c 0
 561 359 512 429 401 429 c 0
492 262 m 0
 492 185 428 100 331 100 c 0
 256 100 223 147 223 201 c 0
 223 278 288 362 387 362 c 0
 460 362 492 315 492 262 c 0
377 326 m 0
 304 326 255 263 255 206 c 0
 255 166 280 130 336 130 c 0
 413 130 458 196 458 251 c 0
 458 291 433 326 377 326 c 0
EndSplineSet
EndChar
StartChar: uni0E50
Encoding: 240 3664 204
Width: 611
Flags: W
HStem: -2 59<240.697 423.62> 362 53<297.341 480.453>
VStem: 120 72<101.346 258.608> 528 71<158.019 317.49>
Fore
599 256 m 0
 599 146 512 -2 318 -2 c 0
 190 -2 120 64 120 159 c 0
 120 273 209 415 404 415 c 0
 531 415 599 352 599 256 c 0
328 57 m 0
 460 57 528 154 528 247 c 0
 528 314 487 362 393 362 c 0
 250 362 192 252 192 171 c 0
 192 105 235 57 328 57 c 0
EndSplineSet
EndChar
StartChar: uni0E51
Encoding: 241 3665 205
Width: 611
Flags: W
HStem: -2 62<217.666 335.087> 79 51<306.766 357.5> 218 54<315.231 391.604> 359 55<304.118 485.581>
VStem: 116 71<91.3459 245.89> 244 60<132.858 206.778> 395 60<141.866 215.582> 543 72<126.979 304.03>
Fore
382 -31 m 1
 519.659 27.9965 543 182.615 543 227 c 0
 543 313 483 359 402 359 c 0
 278 359 187 271 187 157 c 0
 187 85 237 60 275 60 c 0
 309 60 334 78 336 80 c 1
 332 79 327 79 323 79 c 0
 279 79 244 106 244 151 c 0
 244 196 282 272 370 272 c 0
 429 272 455 232 455 187 c 0
 455 115 381 -2 264 -2 c 0
 157 0 116 61 116 141 c 0
 116 304 245 414 407 414 c 0
 541 414 615 348 615 239 c 0
 615 114 530 -25 411 -80 c 1
 382 -31 l 1
359 218 m 0
 329 218 304 195 304 166 c 0
 304 147 316 130 341 130 c 0
 374 130 395 158 395 182 c 0
 395 201 384 218 359 218 c 0
EndSplineSet
EndChar
StartChar: uni0E52
Encoding: 242 3666 206
Width: 611
Flags: W
HStem: 0 58<147.929 540.482> 121 58<272.842 341.218> 261 50<317.251 350.715> 357 58<332.71 425.346 517.062 591.767>
VStem: 74 73<60.0672 101.648> 214 57<181.065 251.013> 352 54<189.139 259.11> 595 70<298.445 354.929>
Fore
406 242 m 0
 406 188 360 121 290 121 c 0
 244 121 214 158 214 213 c 0
 214 298 283 415 388 415 c 0
 472 415 480 363 482 360 c 1
 484 365 510 415 580 415 c 0
 639 415 665 379 665 331 c 0
 665 321 664 311 662 300 c 2
 616 87 l 2
 602 17 554 0 513 0 c 2
 138 0 l 2
 86 0 74 32 74 62 c 0
 74 75 76 87 78 97 c 2
 165 510 l 2
 166 513 166 517 166 519 c 0
 166 547 134 554 112 554 c 0
 106 554 102 554 101 553 c 1
 113 613 l 1
 116 613 120 614 124 614 c 0
 170 614 237 597 237 535 c 0
 237 528 237 521 235 513 c 2
 150 112 l 2
 148 104 147 96 147 89 c 0
 147 71 155 58 184 58 c 2
 484 58 l 2
 541 58 547 86 553 115 c 2
 592 296 l 2
 594 304 595 311 595 319 c 0
 595 340 587 357 560 357 c 0
 510 357 490 285 489 284 c 1
 440 284 l 1
 440 289 l 2
 440 306 431 357 386 357 c 0
 338 357 324 326 317 310 c 1
 323 311 329 311 335 311 c 0
 379 311 406 283 406 242 c 0
320 261 m 0
 290 261 271 233 271 210 c 0
 271 194 280 179 303 179 c 0
 332 179 352 207 352 229 c 0
 352 246 342 261 320 261 c 0
EndSplineSet
EndChar
StartChar: uni0E53
Encoding: 243 3667 207
Width: 611
Flags: W
HStem: -3 54<137.237 214.215> 138 53<167.639 223.344> 354 61<224.582 343.615 479.696 579.767>
VStem: 71 64<53.9064 164.592> 225 54<61.9371 136.03> 590 71<276.128 346.655>
Fore
71 105 m 0
 71 208 118 415 305 415 c 0
 406 415 418 340 418 339 c 1
 421 343 454 415 548 415 c 0
 622 415 661 370 661 310 c 0
 661 299 659 288 657 277 c 2
 598 0 l 1
 530 0 l 1
 586 264 l 2
 588 275 590 285 590 294 c 0
 590 332 571 356 537 356 c 0
 487 356 445 308 435 261 c 2
 380 0 l 1
 311 0 l 1
 367 262 l 2
 368 267 369 272 369 278 c 0
 369 313 345 354 280 354 c 0
 189 354 154 221 154 178 c 1
 171 186 185 191 203 191 c 0
 255 191 279 157 279 115 c 0
 279 41 214 -3 161 -3 c 0
 93 -3 71 42 71 105 c 0
190 138 m 0
 157 138 135 109 135 85 c 0
 135 67 146 51 172 51 c 0
 205 51 225 79 225 105 c 0
 225 123 214 138 190 138 c 0
EndSplineSet
EndChar
StartChar: uni0E54
Encoding: 244 3668 208
Width: 611
Flags: W
HStem: -1 58<191.009 325.435> 28 41<303.828 377> 256 52<338.651 412.326> 357 60<423.968 629.859> 360 61<283.809 498.355>
VStem: 85 74<88.8385 247.659> 268 61<174.576 246.656> 415 56<181.118 253.924>
Fore
471 231 m 0x67
 471 201 458 157 402 133 c 1
 404 133 415 110 455 101 c 0
 498 92 524 94 561 81 c 0
 596 69 603 61 625 48 c 1
 578 -6 l 1
 571 -4 525 28 451 28 c 0x67
 384 28 302 -1 232 -1 c 0
 128 -1 85 74 85 153 c 0
 85 228 126 309 197 360 c 0
 264 411 332 421 397 421 c 0xaf
 439 421 481 417 519 417 c 0
 579 417 634 427 681 478 c 0
 731 532 757 586 773 645 c 1
 834 621 l 1
 820 563 754 446 681 399 c 0
 626 364 573 357 518 357 c 0x37
 481 357 445 360 408 360 c 0
 195 360 159 225 159 157 c 0
 159 95 195 57 251 57 c 0xaf
 272 57 316 69 358 69 c 2
 377 69 l 1
 368 69 268 108 268 186 c 0
 268 240 315 308 390 308 c 0
 445 308 471 273 471 231 c 0x67
380 256 m 0
 348 256 329 231 329 206 c 0
 329 188 340 172 364 172 c 0
 396 172 415 198 415 223 c 0
 415 240 404 256 380 256 c 0
EndSplineSet
EndChar
StartChar: uni0E55
Encoding: 245 3669 209
Width: 611
Flags: W
HStem: -1 58<185.061 321.203> 28 41<298.525 371> 256 52<333.506 406.644> 349 62<475.303 629.315> 358 60<273.633 445.877> 442 59<519.167 615.848> 558 57<522.583 627.403>
VStem: 79 74<89.018 242.68> 264 60<174.332 246.978> 409 56<181.066 253.303> 450 68<503.076 551.661>
Fore
643 462 m 2x37c0
 643 473 l 2
 643 474 643 475 644 475 c 1
 641 472 596 442 542 442 c 0
 488 442 450 469 450 511 c 0
 450 553 492 615 583 615 c 0
 640 615 674 587 674 584 c 1
 678 589 719 626 732 688 c 1
 792 664 l 1
 767 585 708 531 708 530 c 2
 708 530 719 510 719 481 c 0
 719 473 719 433 683 397 c 0
 647 358 599 349 546 349 c 0x37a0
 494 349 438 358 384 358 c 0
 211 358 153 238 153 158 c 0
 153 95 190 57 247 57 c 0xafa0
 269 57 313 69 352 69 c 2
 371 69 l 1
 361 69 264 107 264 186 c 0
 264 241 310 308 385 308 c 0
 439 308 465 273 465 232 c 0
 465 185 436 150 396 133 c 1
 397 133 411 110 449 101 c 0
 492 92 520 94 557 81 c 0
 591 69 597 61 619 48 c 1
 572 -6 l 1
 565 -4 519 28 446 28 c 0x67c0
 379 28 297 -1 226 -1 c 0
 181 -1 139 11 111 51 c 0
 90 78 79 113 79 151 c 0
 79 253 162 418 382 418 c 0xafc0
 432 418 480 411 526 411 c 0
 614 411 643 431 643 462 c 2x37c0
576 558 m 0
 530 558 518 537 518 525 c 0
 518 510 534 501 555 501 c 0
 601 501 625 528 630 533 c 1
 624 543 600 558 576 558 c 0
374 256 m 0
 344 256 324 232 324 205 c 0
 324 187 334 172 357 172 c 0
 391 172 409 199 409 223 c 0x27c0
 409 240 398 256 374 256 c 0
EndSplineSet
EndChar
StartChar: uni0E56
Encoding: 246 3670 210
Width: 611
Flags: W
HStem: 0 60<332.532 437.922> 182 53<254.903 332.669> 361 60<332.696 494.535>
VStem: 188 55<98.7295 170.141> 242 65<351.998 548.927> 335 54<107.515 178.804> 540 70<164.112 317.397>
Fore
256 651 m 1xee
 270 627 307 567 307 441 c 0xee
 307 424 306 406 303 385 c 1
 351 412 399 421 443 421 c 0
 575 421 610 336 610 261 c 0
 610 126 505 0 348 0 c 0
 266 0 188 38 188 110 c 0
 188 169 238 235 310 235 c 0
 361 235 389 203 389 161 c 0
 389 123 366 77 332 61 c 1
 340 60 347 60 355 60 c 0
 466 60 540 159 540 248 c 0
 540 314 495 361 422 361 c 0
 379 361 296 346 243 262 c 1xf6
 223 262 l 1
 232 307 242 352 242 413 c 0
 242 533 200 597 189 615 c 1
 256 651 l 1xee
279 95 m 0
 313 95 335 124 335 148 c 0
 335 166 324 182 298 182 c 0
 265 182 243 153 243 129 c 0xf6
 243 108 258 95 279 95 c 0
EndSplineSet
EndChar
StartChar: uni0E57
Encoding: 247 3671 211
Width: 611
Flags: W
HStem: -5 56<126.101 199.253> 136 53<133.724 208.233> 360 57<199.414 299.232 412.496 500.474>
VStem: 46 72<135 245.913> 210 55<61.2561 134.11> 507 65<210.791 353.864>
Fore
265 113 m 0
 265 59 214 -5 146 -5 c 0
 113 -5 84 10 73 26 c 0
 56 52 46 91 46 135 c 0
 46 208 73 274 105 319 c 0
 146 376 193 417 268 417 c 0
 316 417 345 391 359 351 c 1
 392 395 435 417 484 417 c 0
 545 417 572 372 572 310 c 0
 572 213 509 109 472 67 c 1
 495 84 600 113 647 334 c 2
 655 373 l 2
 692 545 753 583 769 602 c 1
 841 602 l 1
 836 595 765 543 740 452 c 0
 695 291 691 178 590 83 c 0
 519 17 448 -2 360 -2 c 1
 395 35 507 198 507 305 c 0
 507 337 496 360 461 360 c 0
 393 360 368 256 367 251 c 1
 311 251 l 1
 312 255 314 268 314 283 c 0
 314 316 304 360 252 360 c 0
 190 360 118 258 118 161 c 1
 122 166 140 189 193 189 c 0
 235 189 265 155 265 113 c 0
177 136 m 0
 144 136 124 110 124 85 c 0
 124 67 134 51 158 51 c 0
 190 51 210 78 210 102 c 0
 210 120 200 136 177 136 c 0
EndSplineSet
EndChar
StartChar: uni0E58
Encoding: 248 3672 212
Width: 611
Flags: W
HStem: -2 59<427.286 515.88> 84 52<483.736 518.877> 129 70<252.485 302.79> 219 54<492.687 565.739> 345 59<485.857 634.012> 356 57<266.304 493.976>
VStem: 99 67<114.509 253.316> 422 60<138.057 209.356> 568 58<146.386 217.376>
Fore
99 158 m 0xb380
 99 262 179 413 383 413 c 0xb780
 441 413 496 404 543 404 c 0
 625 404 671 430 693 533 c 0
 702 574 702 609 703 610 c 1
 772 610 l 1
 771 609 771 573 761 529 c 0
 730 381 649 345 544 345 c 0x9b80
 485 345 422 356 357 356 c 0
 223 356 166 245 166 170 c 0
 166 124 192 112 192 110 c 1
 195 120 218 199 278 199 c 0xb780
 355 199 399 57 481 57 c 0
 508 57 517 73 519 84 c 1xd380
 517 84 513 83 507 83 c 0
 454 83 422 112 422 156 c 0
 422 210 469 273 544 273 c 0
 604 273 626 235 626 188 c 0
 626 124 579 -2 473 -2 c 0
 365 -2 306 129 274 129 c 0
 248 129 242 65 242 50 c 0
 242 33 245 17 251 -2 c 1
 156 6 99 71 99 158 c 0xb380
534 219 m 0
 502 219 482 192 482 168 c 0
 482 151 493 136 516 136 c 0xd380
 547 136 568 164 568 187 c 0
 568 204 558 219 534 219 c 0
EndSplineSet
EndChar
StartChar: uni0E59
Encoding: 249 3673 213
Width: 611
Flags: W
HStem: -3 55<195.099 294.825> 79 50<268.78 308.932> 208 53<277.687 336.242> 343 32<499 577> 357 60<255.7 366.406>
VStem: 105 68<73.2314 246.169> 217 51<129.688 199.621> 337 55<136.427 207.576> 637 72<539.428 618>
Fore
105 143 m 0xef80
 105 287 200 417 321 417 c 0xef80
 387 417 419 374 430 349 c 1
 437 379 456 418 491 418 c 0
 525 418 547 375 577 375 c 0
 592 375 604 384 617 447 c 0
 638 547 635 609 637 618 c 1
 709 618 l 1
 709 615 703 532 693 483 c 0
 669 372 639 307 577 307 c 0
 532 307 515 343 499 343 c 0xf780
 491 343 480 337 480 315 c 0
 480 258 580 41 580 31 c 1
 517 0 l 1
 517 5 484 76 446 176 c 0
 414 268 384 357 312 357 c 0
 229 357 173 231 173 146 c 0
 173 95 192 52 245 52 c 0
 283 52 301 81 303 84 c 1
 303 84 291 79 276 79 c 0
 238 79 217 108 217 145 c 0
 217 184 245 261 322 261 c 0
 376 261 392 225 392 186 c 0
 392 102 326 -3 227 -3 c 0
 139 -3 105 64 105 143 c 0xef80
311 208 m 0
 285 208 268 178 268 157 c 0
 268 142 276 129 296 129 c 0
 321 129 337 157 337 178 c 0
 337 194 329 208 311 208 c 0
EndSplineSet
EndChar
StartChar: uni0E5A
Encoding: 250 3674 214
Width: 625
Flags: W
HStem: -3 54<448 507.279> 293 56<213.953 341.673> 422 47<217.094 293.033> 544 66<549.584 613.064> 567 46<224.806 304.797>
VStem: 130 66<366.231 432> 307 50<482.653 564.542> 614 73<510.57 564.5>
Fore
247 469 m 0xef
 282 469 307 496 307 531 c 0
 307 549 299 567 268 567 c 0
 232 567 209 534 209 506 c 0
 209 485 223 469 247 469 c 0xef
357 544 m 0xf7
 357 486 310 422 240 422 c 0
 223 422 210 425 196 432 c 1
 196 425 l 2
 196 379 214 349 279 349 c 0
 322 349 359 374 407 440 c 0
 442 486 449 518 464 584 c 0
 472 605 489 612 503 612 c 0
 523 612 529 604 533 578 c 1
 554 590 579 610 610 610 c 0
 672 610 687 581 687 548 c 0
 687 535 685 522 682 510 c 2
 604 143 l 2
 576 11 448 -3 448 -3 c 1
 431 51 l 1
 473 56 525 93 529 115 c 2
 613 506 l 1
 613 509 614 512 614 515 c 0
 614 528 608 544 579 544 c 0xf7
 561 544 541 536 531 521 c 1
 452 150 l 2
 441 98 419 61 383 37 c 0
 349 12 319 0 290 -2 c 1
 272 52 l 1
 295 52 320 63 348 86 c 0
 365 100 377 121 383 152 c 2
 433 386 l 1
 373 302 325 293 270 293 c 0
 175 293 130 348 130 434 c 0
 130 454 132 476 137 500 c 0
 156 561 218 613 279 613 c 0xef
 334 613 357 582 357 544 c 0xf7
EndSplineSet
EndChar
StartChar: uni0E5B
Encoding: 251 3675 215
Width: 1105
Flags: W
HStem: 48 53<192.68 335.445> 181 52<279 336.461> 239 46<926.626 974.219 974.219 1108.01> 333 48<251.607 283.994> 494 53<257.429 378.38>
VStem: 86 53<158.931 347.554> 198 48<268.118 317.275> 284 50<268.76 330.28> 402 53<315.036 469.978> 548 51<273 348>
Fore
256 101 m 0
 393 101 435 239 571 506 c 1
 595 506 l 1
 599 273 l 1
 677 463 l 1
 703 463 l 1
 711 274 l 1
 803 461 l 1
 819 290 l 1
 885 417 l 1
 895 380 924 285 950 285 c 0
 979 285 995 284 1012 284 c 0
 1057 285 1088 285 1109 285 c 2
 1151 285 l 1
 1142 244 l 1
 1129 244 1065 241 1014 241 c 2
 1014 241 945 239 935 239 c 0
 886 239 880 278 870 293 c 1
 783 129 l 1
 770 293 l 1
 670 90 l 1
 660 299 l 1
 579 100 l 1
 553 100 l 1
 548 348 l 1
 519 288 461 169 414 123 c 0
 364 74 307 48 245 48 c 0
 135 48 86 135 86 233 c 0
 86 388 202 547 328 547 c 0
 415 547 455 490 455 415 c 0
 455 323 390 181 279 181 c 0
 248 181 224 196 209 222 c 1
 202 242 198 261 198 278 c 0
 198 339 249 381 283 381 c 0
 304 381 334 363 334 321 c 0
 334 282 310 247 288 233 c 1
 351 233 402 332 402 405 c 0
 402 455 378 494 317 494 c 0
 229 494 139 359 139 244 c 0
 139 154 194 101 256 101 c 0
273 333 m 0
 257 333 246 303 246 286 c 0
 246 273 252 268 259 268 c 0
 274 268 284 293 284 314 c 0
 284 327 280 333 273 333 c 0
EndSplineSet
EndChar
StartChar: DEL
Encoding: 255 63259 219
Width: 0
VWidth: 2048
Flags: W
HStem: 0 21G<-460 4.22976>
Fore
-297 766 m 1
 162 766 l 1
 0 0 l 1
 -460 0 l 1
 -297 766 l 1
EndSplineSet
EndChar
StartChar: exclamdown
Encoding: 256 161 220
Width: 332
VWidth: 2048
Flags: W
HStem: 418 100<227 307>
VStem: 71 257<-198 518>
Fore
328 518 m 1
 307 418 l 1
 205 418 l 1
 227 518 l 1
 328 518 l 1
267 340 m 1
 215 -38 l 1
 181 -198 l 1
 71 -198 l 1
 104 -38 l 1
 210 340 l 1
 267 340 l 1
EndSplineSet
EndChar
StartChar: cent
Encoding: 257 162 221
Width: 554
VWidth: 2048
Flags: W
HStem: -14 72<272.476 376.467> 460 70<298.824 408.438> 696 20G<527.947 601.75>
VStem: 97 91<99.2665 218.256> 486 87<366 426.912>
Fore
106 256 m 0
 141 419 247 530 395 530 c 0
 410 530 425 529 443 527 c 1
 538 716 l 1
 589 700 l 1
 493 510 l 1
 550 486 574 439 573 366 c 1
 486 353 l 1
 485 389 475 417 456 437 c 1
 269 63 l 1
 278 60 288 58 297 58 c 0
 372 58 427 103 457 190 c 1
 544 181 l 1
 491 49 383 -14 284 -14 c 0
 264 -14 249 -11 235 -6 c 1
 136 -199 l 1
 85 -184 l 1
 181 11 l 1
 125 43 97 97 97 173 c 0
 97 198 100 226 106 256 c 0
409 460 m 1
 380 460 l 2
 287 460 226 394 198 261 c 0
 192 230 188 203 188 179 c 0
 188 137 199 106 220 87 c 1
 409 460 l 1
EndSplineSet
EndChar
StartChar: sterling
Encoding: 258 163 222
Width: 554
VWidth: 2048
Flags: W
HStem: -12 84<307.125 443.589> 32 72<168.606 302.693> 322 73<105 181 277 416> 530 21G<536 672.923> 656 72<352.944 504.185>
VStem: 177 97<399.829 544.869> 186 94<230.011 322> 536 90<543 622.717>
Fore
177 457 m 0x7d
 177 645 321 728 448 728 c 0
 566 728 626 673 626 562 c 0
 626 556 625 550 625 543 c 1
 536 530 l 1
 536 621 506 656 430 656 c 0
 362 656 295 608 280 536 c 0x7b
 276 517 274 492 274 464 c 0x7d
 274 443 275 420 277 395 c 1
 432 395 l 1
 416 322 l 1
 276 322 l 1
 279 316 280 308 280 300 c 0
 280 248 223 151 150 94 c 1
 179 101 203 104 223 104 c 0x7b
 302 104 359 72 421 72 c 0
 446 72 478 81 521 98 c 1
 533 18 l 1
 480 -2 437 -12 408 -12 c 0xbb
 324 -12 284 32 202 32 c 0
 150 32 98 17 45 -14 c 1
 29 71 l 1
 90 102 189 174 186 322 c 1x7b
 89 322 l 1
 105 395 l 1
 181 395 l 1
 178 418 177 438 177 457 c 0x7d
EndSplineSet
EndChar
StartChar: currency
Encoding: 259 164 223
Width: 554
VWidth: 2048
Flags: W
HStem: 147 80<256.551 399.332> 481 80<301.28 443.965> 575 20G<194.61 233.362 561.942 601.254>
VStem: 140 81<273.456 373.266> 480 83<308.094 434.618>
Fore
140 311 m 0
 140 327 140 397 204 469 c 1
 149 536 l 1
 218 595 l 1
 271 526 l 1
 312 550 354 561 395 561 c 0
 438 561 474 550 503 526 c 1
 586 595 l 1
 631 536 l 1
 548 469 l 1
 558 447 563 423 563 399 c 0
 563 328 529 273 499 239 c 1
 554 173 l 1
 484 115 l 1
 430 184 l 1
 391 159 350 147 307 147 c 0
 264 147 229 159 198 184 c 1
 116 115 l 1
 72 173 l 1
 155 239 l 1
 145 262 140 286 140 311 c 0
324 227 m 0
 410 227 480 304 480 383 c 0
 480 442 437 481 378 481 c 0
 290 481 221 404 221 326 c 0
 221 270 258 227 324 227 c 0
EndSplineSet
EndChar
StartChar: yen
Encoding: 260 165 224
Width: 554
VWidth: 2048
Flags: W
HStem: 0 21G<233 324.277> 159 68<78 267 368 556> 296 73<109 274 434 586> 696 20G<150 254.984 585.939 705>
Fore
233 0 m 1
 267 159 l 1
 64 159 l 1
 78 227 l 1
 281 227 l 1
 296 296 l 1
 94 296 l 1
 109 369 l 1
 274 369 l 1
 150 716 l 1
 248 716 l 1
 336 464 l 2
 343 441 351 417 357 389 c 1
 371 411 391 437 415 469 c 2
 601 716 l 1
 705 716 l 1
 434 369 l 1
 601 369 l 1
 586 296 l 1
 383 296 l 1
 368 227 l 1
 570 227 l 1
 556 159 l 1
 354 159 l 1
 320 0 l 1
 233 0 l 1
EndSplineSet
EndChar
StartChar: brokenbar
Encoding: 261 166 225
Width: 259
VWidth: 2048
Flags: W
HStem: 708 20G<242.792 323>
VStem: 48 275<-210 728>
Fore
323 728 m 1
 242 343 l 1
 166 343 l 1
 247 728 l 1
 323 728 l 1
205 176 m 1
 124 -210 l 1
 48 -210 l 1
 129 176 l 1
 205 176 l 1
EndSplineSet
EndChar
StartChar: section
Encoding: 262 167 226
Width: 554
VWidth: 2048
Flags: W
HStem: -210 74<184.601 329.664> 656 72<337.082 470.244>
VStem: 62 92<-105.248 -34> 104 84<257.905 363.697> 206 88<516.695 616.778> 379 91<-90.8369 10.4393> 474 87<180.507 273.944> 496 93<559 630.957>
Fore
470 -20 m 0xce
 470 -115 379 -210 239 -210 c 0
 114 -210 62 -158 62 -34 c 1
 154 -21 l 1xee
 154 -104 186 -136 255 -136 c 0
 321 -136 379 -89 379 -40 c 0
 379 43 192 120 136 195 c 0
 114 222 104 252 104 283 c 0
 104 341 136 422 246 452 c 1
 219 483 206 515 206 548 c 0
 206 636 296 728 420 728 c 0
 533 728 589 679 589 581 c 0
 589 574 589 567 588 559 c 1
 496 549 l 1xdd
 496 622 470 656 412 656 c 0
 332 656 294 603 294 567 c 0
 294 510 384 456 430 425 c 0
 478 389 511 363 528 346 c 0
 551 319 561 289 561 258 c 0
 561 190 517 125 418 87 c 1
 453 56 470 20 470 -20 c 0xce
281 418 m 1
 217 387 188 346 188 311 c 0xde
 188 241 294 191 382 120 c 1
 460 156 474 201 474 221 c 0
 474 289 370 341 281 418 c 1
EndSplineSet
EndChar
StartChar: dieresis
Encoding: 263 168 227
Width: 332
VWidth: 2048
Flags: W
HStem: 621 99<184 254 365 435>
VStem: 162 295<621 720>
Fore
162 621 m 1
 184 720 l 1
 276 720 l 1
 254 621 l 1
 162 621 l 1
343 621 m 1
 365 720 l 1
 457 720 l 1
 435 621 l 1
 343 621 l 1
EndSplineSet
EndChar
StartChar: copyright
Encoding: 264 169 228
Width: 735
VWidth: 2048
Flags: W
HStem: -9 61<268.492 495.222> 149 56<340.051 488.858> 512 55<403.824 547.191> 668 60<396.871 620.816>
VStem: 69 63<188.41 400.228> 247 66<231.964 402.922> 576 60<444.805 491.127> 762 63<316.844 522.627>
Fore
69 276 m 0
 69 502 268 728 526 728 c 0
 727 728 825 585 825 443 c 0
 825 217 620 -9 369 -9 c 0
 267 -9 187 26 130 98 c 0
 89 150 69 208 69 276 c 0
762 426 m 0
 762 542 677 668 513 668 c 0
 313 668 132 492 132 288 c 0
 132 233 149 184 182 141 c 0
 228 81 294 52 382 52 c 0
 597 52 762 246 762 426 c 0
481 512 m 0
 347 512 313 360 313 299 c 0
 313 236 346 205 411 205 c 0
 474 205 523 238 553 300 c 1
 609 282 l 1
 566 193 498 149 403 149 c 0
 305 149 247 202 247 294 c 0
 247 425 329 567 497 567 c 0
 582 567 628 529 636 451 c 1
 576 437 l 1
 566 487 533 512 481 512 c 0
EndSplineSet
EndChar
StartChar: ordfeminine
Encoding: 265 170 229
Width: 369
VWidth: 2048
Flags: W
HStem: 365 58<196.988 307.095> 671 57<259.858 382.89>
VStem: 119 75<428.661 499.678> 391 73<603.468 661.849>
Fore
357 417 m 1
 309 382 265 365 221 365 c 0
 154 365 119 390 119 441 c 0
 119 484 137 540 214 566 c 0
 244 576 345 583 388 596 c 1
 390 605 391 613 391 621 c 0
 391 655 370 671 327 671 c 0
 279 671 247 651 233 610 c 1
 168 627 l 1
 196 694 253 728 340 728 c 0
 423 728 464 699 464 641 c 0
 464 631 463 621 461 610 c 2
 429 463 l 2
 424 443 422 425 422 410 c 0
 422 394 425 382 430 374 c 1
 358 374 l 1
 355 381 354 389 354 396 c 0
 354 403 355 410 357 417 c 1
376 540 m 1
 297 524 194 524 194 459 c 0
 194 434 212 423 249 423 c 0
 317 423 359 461 376 540 c 1
EndSplineSet
EndChar
StartChar: guillemotleft
Encoding: 266 171 230
Width: 554
VWidth: 2048
Flags: W
HStem: 35 445<300 325>
VStem: 120 467<258 480>
Fore
221 258 m 1
 300 35 l 1
 230 35 l 1
 120 258 l 1
 325 480 l 1
 395 480 l 1
 221 258 l 1
411 258 m 1
 492 35 l 1
 418 35 l 1
 311 258 l 1
 513 480 l 1
 587 480 l 1
 411 258 l 1
EndSplineSet
EndChar
StartChar: logicalnot
Encoding: 267 172 231
Width: 583
VWidth: 2048
Flags: W
HStem: 422 81<162 535>
VStem: 144 492<422 503>
Fore
573 207 m 1
 490 207 l 1
 535 422 l 1
 144 422 l 1
 162 503 l 1
 636 503 l 1
 573 207 l 1
EndSplineSet
EndChar
StartChar: minus
Encoding: 268 173 232
AltUni2: 002212.ffffffff.0
Width: 332
VWidth: 2048
Flags: W
HStem: 215 88<97 348>
VStem: 78 288<215 303>
Fore
78 215 m 1
 97 303 l 1
 366 303 l 1
 348 215 l 1
 78 215 l 1
EndSplineSet
EndChar
StartChar: registered
Encoding: 269 174 233
Width: 735
VWidth: 2048
Flags: W
HStem: -9 61<268.645 498.137> 323 56<354 379 432 435.435> 498 54<379 530.93> 668 60<395.127 620.821>
VStem: 69 62<188.771 402.828> 543 68<404.051 484.667> 761 64<314.608 526.068>
Fore
69 276 m 0
 69 499 265 728 526 728 c 0
 724 728 825 590 825 444 c 0
 825 206 611 -9 369 -9 c 0
 266 -9 187 26 130 98 c 0
 89 150 69 209 69 276 c 0
382 52 m 0
 593 52 761 241 761 428 c 0
 761 484 744 534 709 576 c 0
 663 638 597 668 513 668 c 0
 307 668 131 483 131 290 c 0
 131 234 148 184 182 141 c 0
 229 81 295 52 382 52 c 0
611 470 m 0
 611 413 565 342 473 333 c 1
 495 325 519 293 544 233 c 2
 576 156 l 1
 496 156 l 1
 475 219 l 2
 457 274 442 323 379 323 c 2
 342 323 l 1
 306 156 l 1
 241 156 l 1
 325 552 l 1
 462 552 l 2
 562 552 611 525 611 470 c 0
432 379 m 2
 523 379 543 422 543 451 c 0
 543 482 511 498 451 498 c 2
 379 498 l 1
 354 379 l 1
 432 379 l 2
EndSplineSet
EndChar
StartChar: macron
Encoding: 270 175 234
AltUni2: 0002c9.ffffffff.0
Width: 551
VWidth: 2048
Flags: W
HStem: 765 63<161 730>
Fore
147 765 m 1
 161 828 l 1
 743 828 l 1
 730 765 l 1
 147 765 l 1
EndSplineSet
EndChar
StartChar: degree
Encoding: 271 176 235
Width: 400
VWidth: 2048
Flags: W
HStem: 457 53<255.017 363.538> 676 52<281.941 390.574>
VStem: 186 54<525.03 634.075> 409 54<553.2 657.521>
Fore
463 619 m 0
 463 539 384 457 295 457 c 0
 228 457 186 505 186 565 c 0
 186 651 271 728 353 728 c 0
 418 728 463 680 463 619 c 0
306 510 m 0
 351 510 409 554 409 609 c 0
 409 645 381 676 342 676 c 0
 289 676 240 628 240 575 c 0
 240 536 267 510 306 510 c 0
EndSplineSet
EndChar
StartChar: plusminus
Encoding: 272 177 236
Width: 548
VWidth: 2048
Flags: W
HStem: 0 83<55 510> 323 83<124 302 402 579>
Fore
261 127 m 1
 302 323 l 1
 107 323 l 1
 124 406 l 1
 319 406 l 1
 360 601 l 1
 443 601 l 1
 402 406 l 1
 596 406 l 1
 579 323 l 1
 385 323 l 1
 343 127 l 1
 261 127 l 1
510 0 m 1
 38 0 l 1
 55 83 l 1
 527 83 l 1
 510 0 l 1
EndSplineSet
EndChar
StartChar: twosuperior
Encoding: 273 178 237
Width: 332
VWidth: 2048
Flags: W
HStem: 357 60<216 393> 668 57<252.687 365.751>
VStem: 370 80<582.452 661.164>
Fore
450 649 m 0
 450 539 295 483 216 417 c 1
 406 417 l 1
 393 357 l 1
 88 357 l 1
 112 440 295 535 315 552 c 0
 355 582 370 601 370 629 c 0
 370 655 351 668 312 668 c 0
 272 668 244 648 227 612 c 1
 155 619 l 1
 187 690 244 725 326 725 c 0
 409 725 450 699 450 649 c 0
EndSplineSet
EndChar
StartChar: threesuperior
Encoding: 274 179 238
Width: 332
VWidth: 2048
Flags: W
HStem: 349 57<196.603 313.916> 526 50<268 276.911 276.911 335.509> 671 54<248.814 353.206>
VStem: 341 75<449.289 517.825> 356 80<594.268 666.804>
Fore
416 483 m 0xf0
 416 390 313 349 241 349 c 0
 154 349 114 380 114 454 c 1
 185 461 l 1
 188 425 210 406 248 406 c 0
 332 406 341 469 341 485 c 0xf0
 341 512 318 526 273 526 c 0
 265 525 256 524 246 524 c 1
 268 576 l 1
 341 576 356 613 356 638 c 0
 356 660 340 671 307 671 c 0
 272 671 245 655 227 621 c 1
 160 633 l 1
 194 694 248 725 318 725 c 0
 397 725 436 701 436 656 c 0xe8
 436 616 414 574 349 555 c 1
 394 543 416 520 416 483 c 0xf0
EndSplineSet
EndChar
StartChar: acute
Encoding: 275 180 239
Width: 332
VWidth: 2048
Flags: W
HStem: 582 138<233 326>
VStem: 233 208<582 720>
Fore
233 582 m 1
 326 720 l 1
 441 720 l 1
 305 582 l 1
 233 582 l 1
EndSplineSet
EndChar
StartChar: mu
Encoding: 276 181 240
AltUni2: 0003bc.ffffffff.0
Width: 574
VWidth: 2048
Flags: W
HStem: -12 79<233.001 372.083> 498 20G<183.76 276 516.747 607>
Fore
299 67 m 0
 409 67 445 162 474 297 c 2
 521 518 l 1
 607 518 l 1
 497 0 l 1
 418 0 l 1
 431 61 l 1
 392 12 343 -12 285 -12 c 0
 236 -12 200 9 177 52 c 1
 124 -199 l 1
 36 -199 l 1
 188 518 l 1
 276 518 l 1
 230 299 l 2
 218 245 210 199 210 163 c 0
 210 101 233 67 299 67 c 0
EndSplineSet
EndChar
StartChar: paragraph
Encoding: 277 182 241
Width: 536
VWidth: 2048
Flags: W
HStem: 632 84<413 522 605 675>
Fore
103 466 m 0
 103 547 159 716 383 716 c 2
 693 716 l 1
 675 632 l 1
 605 632 l 1
 429 -199 l 1
 346 -199 l 1
 522 632 l 1
 413 632 l 1
 237 -199 l 1
 156 -199 l 1
 264 311 l 1
 165 311 103 376 103 466 c 0
EndSplineSet
EndChar
StartChar: periodcentered
Encoding: 278 183 242
AltUni2: 002219.ffffffff.0
Width: 277
VWidth: 2048
Flags: W
HStem: 302 101<176 256>
VStem: 155 122<302 403>
Fore
155 302 m 1
 176 403 l 1
 277 403 l 1
 256 302 l 1
 155 302 l 1
EndSplineSet
EndChar
StartChar: cedilla
Encoding: 279 184 243
Width: 332
VWidth: 2048
Flags: W
HStem: -205 61<28 152.195>
VStem: 160 82<-132.973 -80.8532>
Fore
242 -96 m 0
 242 -161 175 -205 79 -205 c 0
 53 -205 31 -204 10 -199 c 1
 28 -143 l 1
 82 -144 l 2
 146 -144 160 -119 160 -102 c 0
 160 -84 136 -75 90 -75 c 1
 132 11 l 1
 198 11 l 1
 172 -41 l 1
 218 -47 242 -65 242 -96 c 0
EndSplineSet
EndChar
StartChar: onesuperior
Encoding: 280 185 244
Width: 332
VWidth: 2048
Flags: W
HStem: 705 20G<311 388>
VStem: 173 215<573 725>
Fore
238 357 m 1
 294 628 l 1
 259 604 218 586 173 573 c 1
 187 635 l 1
 239 651 288 681 334 725 c 1
 388 725 l 1
 310 357 l 1
 238 357 l 1
EndSplineSet
EndChar
StartChar: ordmasculine
Encoding: 281 186 245
Width: 364
VWidth: 2048
Flags: W
HStem: 362 64<219.34 334.522> 664 64<262.825 377.467>
VStem: 131 74<440.961 595.212> 392 73<530.069 649.9>
Fore
131 493 m 0
 131 613 216 728 337 728 c 0
 422 728 465 678 465 599 c 0
 465 507 407 362 259 362 c 0
 176 362 131 414 131 493 c 0
323 664 m 0
 223 664 205 535 205 497 c 0
 205 450 228 426 273 426 c 0
 332 426 369 466 386 547 c 0
 390 564 392 580 392 593 c 0
 392 640 369 664 323 664 c 0
EndSplineSet
EndChar
StartChar: guillemotright
Encoding: 282 187 246
Width: 554
VWidth: 2048
Flags: W
HStem: 35 445<339 362>
VStem: 75 468<35 258>
Fore
441 258 m 1
 362 480 l 1
 434 480 l 1
 543 258 l 1
 339 35 l 1
 267 35 l 1
 441 258 l 1
253 258 m 1
 170 480 l 1
 245 480 l 1
 351 258 l 1
 150 35 l 1
 75 35 l 1
 253 258 l 1
EndSplineSet
EndChar
StartChar: onequarter
Encoding: 283 188 247
Width: 833
VWidth: 2048
Flags: W
HStem: 60 53<610 711 792 832> 708 20G<311 388 798.455 892>
Fore
116 -28 m 1
 817 728 l 1
 892 728 l 1
 193 -28 l 1
 116 -28 l 1
238 357 m 1
 294 628 l 1
 259 604 218 586 173 573 c 1
 187 635 l 1
 239 651 288 681 334 725 c 1
 388 725 l 1
 310 357 l 1
 238 357 l 1
696 -15 m 1
 711 60 l 1
 523 60 l 1
 536 121 l 1
 785 351 l 1
 843 351 l 1
 792 113 l 1
 845 113 l 1
 832 60 l 1
 780 60 l 1
 765 -15 l 1
 696 -15 l 1
723 113 m 1
 750 241 l 1
 610 113 l 1
 723 113 l 1
EndSplineSet
EndChar
StartChar: onehalf
Encoding: 284 189 248
Width: 833
VWidth: 2048
Flags: W
HStem: -15 59<637 814> 293 58<673.107 786.23> 708 20G<311 387 784.561 882>
VStem: 790 82<226.297 286.759>
Fore
106 -28 m 1
 803 728 l 1
 882 728 l 1
 183 -28 l 1
 106 -28 l 1
237 357 m 1
 294 628 l 1
 258 604 219 586 174 573 c 1
 187 635 l 1
 239 651 289 681 333 725 c 1
 387 725 l 1
 309 357 l 1
 237 357 l 1
872 277 m 0
 872 174 739 117 637 44 c 1
 826 44 l 1
 814 -15 l 1
 509 -15 l 1
 530 83 774 174 788 241 c 0
 789 246 790 251 790 256 c 0
 790 281 771 293 733 293 c 0
 695 293 668 276 647 239 c 1
 575 245 l 1
 608 316 665 351 746 351 c 0
 830 351 872 327 872 277 c 0
EndSplineSet
EndChar
StartChar: threequarters
Encoding: 285 190 249
Width: 833
VWidth: 2048
Flags: W
HStem: 60 53<610 712 792 833> 349 57<196.789 314.331> 526 50<268 336.853> 671 54<248.814 353.206>
VStem: 341 75<432.256 519.122> 356 80<594.268 666.804>
Fore
117 -28 m 1xf0
 816 728 l 1
 892 728 l 1
 193 -28 l 1
 117 -28 l 1xf0
416 483 m 0xf8
 416 390 313 349 241 349 c 0
 155 349 114 384 114 452 c 2
 114 454 l 1
 185 461 l 1
 188 425 210 406 248 406 c 0
 330 406 341 465 341 487 c 0xf8
 341 514 319 526 278 526 c 0
 246 524 l 1
 268 576 l 1
 341 576 356 613 356 638 c 0
 356 660 340 671 307 671 c 0
 272 671 245 655 227 621 c 1
 160 633 l 1
 194 694 248 725 318 725 c 0
 397 725 436 701 436 656 c 0xf4
 436 616 414 574 349 555 c 1
 394 543 416 520 416 483 c 0xf8
696 -15 m 1
 712 60 l 1
 523 60 l 1
 536 121 l 1
 783 351 l 1
 843 351 l 1
 792 113 l 1
 844 113 l 1
 833 60 l 1
 781 60 l 1
 765 -15 l 1
 696 -15 l 1
723 113 m 1
 750 241 l 1
 610 113 l 1
 723 113 l 1
EndSplineSet
EndChar
StartChar: questiondown
Encoding: 286 191 250
Width: 610
VWidth: 2048
Flags: W
HStem: -210 74<204.648 358.547> 418 100<368 446>
VStem: 69 93<-96.0149 28.9738>
Fore
467 518 m 1
 446 418 l 1
 347 418 l 1
 368 518 l 1
 467 518 l 1
264 109 m 0
 168 38 162 -5 162 -34 c 0
 162 -96 213 -136 278 -136 c 0
 357 -136 415 -89 451 8 c 1
 539 -3 l 1
 490 -141 398 -210 263 -210 c 0
 200 -210 151 -193 115 -159 c 0
 85 -132 69 -98 69 -56 c 0
 69 96 244 166 305 244 c 0
 318 265 331 297 341 343 c 1
 426 343 l 1
 420 317 l 2
 397 206 340 167 264 109 c 0
EndSplineSet
EndChar
StartChar: AE
Encoding: 293 198 257
Width: 999
VWidth: 2048
Flags: W
HStem: 0 84<592 946> 207 83<302 523> 326 86<661 976> 632 84<541 613 708 1067>
Fore
0 0 m 1
 497 716 l 1
 1084 716 l 1
 1067 632 l 1
 708 632 l 1
 661 412 l 1
 995 412 l 1
 976 326 l 1
 642 326 l 1
 592 84 l 1
 964 84 l 1
 946 0 l 1
 478 0 l 1
 523 207 l 1
 245 207 l 1
 103 0 l 1
 0 0 l 1
302 290 m 1
 540 290 l 1
 613 632 l 1
 541 632 l 1
 302 290 l 1
EndSplineSet
EndChar
StartChar: Eth
Encoding: 303 208 267
Width: 721
VWidth: 2048
Flags: W
HStem: 0 84<190 476.573> 325 66<81 146 255 438> 632 84<306 584.968>
VStem: 661 99<376.256 540.162>
CounterMasks: 1 e0
Fore
77 0 m 1
 146 325 l 1
 67 325 l 1
 81 391 l 1
 160 391 l 1
 229 716 l 1
 475 716 l 2
 624 716 704 687 743 575 c 0
 754 546 760 512 760 474 c 0
 760 440 755 403 747 362 c 0
 696 121 558 0 336 0 c 2
 77 0 l 1
661 465 m 0
 661 605 578 632 456 632 c 2
 306 632 l 1
 255 391 l 1
 452 391 l 1
 438 325 l 1
 241 325 l 1
 190 84 l 1
 343 84 l 2
 465 84 526 116 583 196 c 0
 641 286 661 401 661 465 c 0
EndSplineSet
EndChar
StartChar: multiply
Encoding: 310 215 274
Width: 583
VWidth: 2048
Flags: W
HStem: 141 426<259 477>
VStem: 121 491<199 507>
Fore
121 199 m 1
 308 354 l 1
 187 507 l 1
 259 567 l 1
 379 414 l 1
 566 566 l 1
 612 507 l 1
 426 354 l 1
 547 201 l 1
 477 141 l 1
 354 294 l 1
 169 141 l 1
 121 199 l 1
EndSplineSet
EndChar
StartChar: Oslash
Encoding: 311 216 275
Width: 777
VWidth: 2048
Flags: W
HStem: -12 81<307.857 511.748> 647 81<419.574 621.551>
VStem: 112 100<201.171 398.096> 719 98<307.514 509.234>
Fore
112 274 m 0
 112 441.428 243.845 728 546 728 c 0
 627 728 693 702 748 650 c 1
 851 742 l 1
 889 702 l 1
 783 605 l 1
 806 558 817 506 817 451 c 0
 817 326.238 767.231 189.007 662 95 c 0
 586 23 494 -12 388 -12 c 0
 311 -12 244 12 184 63 c 1
 83 -29 l 1
 43 12 l 1
 150 109 l 1
 126 162 112 218 112 274 c 0
529 647 m 0
 298.04 647 212 415.673 212 273 c 0
 212 239 216 207 225 176 c 1
 676 584 l 1
 635 627 586 647 529 647 c 0
705 535 m 1
 256 127 l 1
 296 89 345 69 403 69 c 0
 483 69 550 98 605 155 c 0
 685.424 233.906 719 347.725 719 441 c 0
 719 474 714 506 705 535 c 1
EndSplineSet
EndChar
StartChar: Thorn
Encoding: 317 222 281
Width: 666
VWidth: 2048
Flags: W
HStem: 0 21G<77 176.247> 146 84<221 517.079> 486 84<293 570.125> 696 20G<224.754 324>
VStem: 607 101<348.759 452.246>
Fore
469 570 m 2
 609 570 708 539 708 421 c 0
 708 404 706 384 701 363 c 0
 670 218 564 146 387 146 c 2
 203 146 l 1
 172 0 l 1
 77 0 l 1
 229 716 l 1
 324 716 l 1
 293 570 l 1
 469 570 l 2
406 230 m 2
 583 230 607 343 607 396 c 0
 607 452 570 486 459 486 c 2
 275 486 l 1
 221 230 l 1
 406 230 l 2
EndSplineSet
EndChar
StartChar: germandbls
Encoding: 318 223 282
Width: 610
VWidth: 2048
Flags: W
HStem: -12 72<361.704 476.462> 656 72<344.03 485.771>
VStem: 378 95<341.521 419.135> 504 88<542.229 636.88> 522 93<104.468 204.668>
Fore
378 357 m 0xe8
 378 434 504 523 504 594 c 0
 504 631 469 656 421 656 c 0
 325 656 288 591 265 484 c 2
 162 0 l 1
 75 0 l 1
 179 487 l 2
 213 648 299 728 439 728 c 0
 527 728 592 685 592 615 c 0xf0
 592 524 473 431 473 384 c 0
 473 338 590 260 603 235 c 0
 612 221 615 205 615 187 c 0
 615 87 524 -12 399 -12 c 0
 317 -12 268 28 247 106 c 1
 330 141 l 1
 344 87 373 60 413 60 c 0
 481 60 522 119 522 158 c 0
 522 229 378 268 378 357 c 0xe8
EndSplineSet
EndChar
StartChar: ae
Encoding: 325 230 289
Width: 889
VWidth: 2048
Flags: W
HStem: -12 70<168.601 317.955 558.877 711.682> 238 72<540 825> 458 72<272.21 448.406 631.812 791.056>
VStem: 58 96<72.7228 174.885> 827 88<310.564 421.825>
Fore
207 -12 m 0
 115 -12 58 33 58 104 c 0
 58 224 172 284 326 303 c 0
 376 310 418 317 455 326 c 1
 460 343 465 371 465 389 c 0
 465 440 436 458 368 458 c 0
 286 458 233 425 209 357 c 1
 126 368 l 1
 170 477 257 530 386 530 c 0
 478 530 533 507 550 460 c 1
 602 507 662 530 731 530 c 0
 804 530 856 506 885 455 c 0
 905 421 915 382 915 340 c 0
 915 302 907 268 899 238 c 1
 525 238 l 1
 520 214 517 192 517 173 c 0
 517 98 556 61 635 61 c 0
 706 61 758 97 792 170 c 1
 882 159 l 1
 820 44 731 -12 615 -12 c 0
 535 -12 478 20 443 86 c 1
 364 20 287 -12 207 -12 c 0
540 310 m 1
 825 310 l 1
 826 322 827 334 827 344 c 0
 827 420 790 458 715 458 c 0
 634 458 559 401 540 310 c 1
443 261 m 1
 287 226 154 222 154 116 c 0
 154 78 182 58 239 58 c 0
 313 58 381 96 408 146 c 0
 420 167 431 204 443 261 c 1
EndSplineSet
EndChar
StartChar: eth
Encoding: 335 240 299
Width: 554
VWidth: 2048
Flags: W
HStem: -12 72<214.679 364.594> 451 67<290.18 440.402> 696 20G<302 419.5 526.061 578.306>
VStem: 80 92<104.02 298.185> 486 95<215.554 402.313>
Fore
273 -12 m 0
 119 -12 80 88 80 173 c 0
 80 255 110 362 182 437 c 0
 233 492 296 518 366 518 c 0
 400 518 434 509 464 490 c 1
 452 529 437 564 415 595 c 1
 270 532 l 1
 259 582 l 1
 386 636 l 1
 362 665 334 691 302 716 c 1
 408 716 l 1
 431 697 446 681 458 667 c 1
 573 716 l 1
 586 667 l 1
 494 625 l 1
 552 536 581 446 581 353 c 0
 581 151 458 -12 273 -12 c 0
287 60 m 0
 413 60 486 201 486 319 c 0
 486 376 463 451 368 451 c 0
 233 451 172 287 172 185 c 0
 172 129 195 60 287 60 c 0
EndSplineSet
EndChar
StartChar: divide
Encoding: 342 247 306
Width: 548
VWidth: 2048
Flags: W
HStem: 156 100<277 357> 313 81<123 576> 451 99<340 418>
VStem: 104 491<313 394>
Fore
319 451 m 1
 340 550 l 1
 440 550 l 1
 418 451 l 1
 319 451 l 1
576 313 m 1
 104 313 l 1
 123 394 l 1
 595 394 l 1
 576 313 l 1
258 156 m 1
 277 256 l 1
 377 256 l 1
 357 156 l 1
 258 156 l 1
EndSplineSet
EndChar
StartChar: oslash
Encoding: 343 248 307
Width: 610
VWidth: 2048
Flags: W
HStem: -12 73<249.986 401.017> 458 72<327.502 475.382>
VStem: 109 95<143.103 299.085> 524 92<210.889 370.581>
Fore
616 337 m 0
 616 234 554 -12 305 -12 c 0
 253 -12 210 2 176 28 c 1
 112 -38 l 1
 74 -3 l 1
 139 64 l 1
 120 95 109 130 109 175 c 0
 109 255 141 372 219 449 c 0
 273 503 340 530 420 530 c 0
 469 530 513 517 555 487 c 1
 616 550 l 1
 656 517 l 1
 590 449 l 1
 607 418 616 380 616 337 c 0
408 458 m 0
 274 458 204 308 204 190 c 0
 204 170 205 153 210 136 c 1
 492 423 l 1
 468 446 438 458 408 458 c 0
319 61 m 0
 453 61 524 206 524 326 c 0
 524 345 523 362 518 377 c 1
 239 92 l 1
 261 71 288 61 319 61 c 0
EndSplineSet
EndChar
StartChar: thorn
Encoding: 349 254 313
Width: 554
VWidth: 2048
Flags: W
HStem: -12 73<230.027 372.159> 461 69<318.097 451.107> 696 20G<213.738 307>
VStem: 490 92<220.386 420.295>
Fore
582 345 m 0
 582 201 482 -12 287 -12 c 0
 236 -12 195 11 166 54 c 1
 112 -199 l 1
 23 -199 l 1
 218 716 l 1
 307 716 l 1
 253 464 l 1
 302 509 354 530 409 530 c 0
 548 530 582 427 582 345 c 0
386 461 m 0
 268 461 192 304 192 189 c 0
 192 76 258 61 299 61 c 0
 425 61 490 220 490 333 c 0
 490 395 469 461 386 461 c 0
EndSplineSet
EndChar
StartChar: dotlessi
Encoding: 351 305 315
Width: 277
VWidth: 2048
Flags: W
HStem: 0 21G<97 189.286> 498 20G<202.753 296>
VStem: 97 199<0 518>
Fore
97 0 m 1
 207 518 l 1
 296 518 l 1
 185 0 l 1
 97 0 l 1
EndSplineSet
EndChar
StartChar: OE
Encoding: 352 338 316
Width: 999
VWidth: 2048
Flags: W
HStem: -12 76<288.106 450.461> 0 84<655 969> 328 86<723 998> 632 84<771 1088> 651 77<399.861 566.485>
VStem: 124 100<135.082 343.469>
Fore
124 231 m 0xa4
 124 371 201 728 507 728 c 0xac
 593 728 650 691 679 619 c 1
 699 716 l 1
 1105 716 l 1
 1088 632 l 1
 771 632 l 1
 723 414 l 1
 1016 414 l 1
 998 328 l 1
 705 328 l 1
 655 84 l 1
 987 84 l 1
 969 0 l 1
 547 0 l 1x74
 569 103 l 1
 510 26 435 -12 349 -12 c 0
 169 -12 124 119 124 231 c 0xa4
633 472 m 0
 633 555 604 651 489 651 c 0
 362 651 279 552 236 351 c 0
 227 313 224 277 224 245 c 0
 224 157 252 64 365 64 c 0
 565 64 633 359 633 472 c 0
EndSplineSet
EndChar
StartChar: oe
Encoding: 353 339 317
Width: 944
VWidth: 2048
Flags: W
HStem: -12 73<221.066 373.755 617.517 771.474> 236 72<593 880> 458 72<301.971 451.154 689.328 839.471>
VStem: 84 94<104.685 295.779> 498 71<187 323> 884 85<310.949 413.994>
Fore
569 187 m 0
 569 138 594 61 693 61 c 0
 760 61 811 97 848 169 c 1
 933 156 l 1
 880 44 792 -12 674 -12 c 0
 587 -12 527 20 497 86 c 1
 434 20 362 -12 282 -12 c 0
 123 -12 84 95 84 176 c 0
 84 273 147 530 399 530 c 0
 484 530 541 498 570 431 c 1
 630 498 700 530 782 530 c 0
 932 530 969 428 969 333 c 0
 969 303 966 271 958 236 c 1
 575 236 l 1
 572 219 569 202 569 187 c 0
380 458 m 0
 255 458 178 317 178 192 c 0
 178 105 219 61 296 61 c 0
 424 61 498 215 498 323 c 0
 498 384 474 458 380 458 c 0
884 348 m 0
 884 408 842 458 771 458 c 0
 691 458 610 397 593 308 c 1
 880 308 l 1
 883 322 884 336 884 348 c 0
EndSplineSet
EndChar
StartChar: florin
Encoding: 357 402 321
Width: 554
VWidth: 2048
Flags: W
HStem: -210 77<48.2025 133.47> 451 67<287 357 475 547> 647 83<525.555 610.886>
Fore
-18 -198 m 1
 14 -123 l 1
 49 -129 74 -133 86 -133 c 0
 120 -133 146 -109 164 -58 c 2
 357 451 l 1
 259 451 l 1
 287 518 l 1
 385 518 l 1
 411 584 l 2
 441 666 483 730 579 730 c 0
 607 730 639 723 681 710 c 1
 647 636 l 1
 618 644 593 647 576 647 c 0
 522 647 510 605 495 569 c 2
 475 518 l 1
 575 518 l 1
 547 451 l 1
 448 451 l 1
 242 -83 l 2
 208 -169 158 -210 87 -210 c 0
 54 -210 18 -205 -18 -198 c 1
EndSplineSet
EndChar
StartChar: circumflex
Encoding: 358 710 322
Width: 332
VWidth: 2048
Flags: W
HStem: 700 20G<251.435 376.594>
VStem: 136 309<582 582>
Fore
310 667 m 1
 238 582 l 1
 136 582 l 1
 271 720 l 1
 365 720 l 1
 445 582 l 1
 346 582 l 1
 310 667 l 1
EndSplineSet
EndChar
StartChar: caron
Encoding: 359 711 323
Width: 332
VWidth: 2048
Flags: W
HStem: 700 20G<173 282.78 364.439 481>
VStem: 173 308<720 720>
Fore
310 638 m 1
 382 720 l 1
 481 720 l 1
 343 582 l 1
 250 582 l 1
 173 720 l 1
 274 720 l 1
 310 638 l 1
EndSplineSet
EndChar
StartChar: ring
Encoding: 361 730 324
Width: 332
VWidth: 2048
Flags: W
HStem: 563 36<255.394 340.866> 705 35<269.858 358.513>
VStem: 217 36<602.929 672.999> 361 35<621.064 701.249>
Fore
396 670 m 0
 396 622 352 563 287 563 c 0
 242 563 217 591 217 631 c 0
 217 690 263 740 324 740 c 0
 375 740 396 706 396 670 c 0
319 705 m 0
 260 705 253 654 253 635 c 0
 253 612 267 599 296 599 c 0
 322 599 361 627 361 668 c 0
 361 693 346 705 319 705 c 0
EndSplineSet
EndChar
StartChar: tilde
Encoding: 362 732 325
Width: 332
VWidth: 2048
Flags: W
HStem: 598 69<314.381 407.477> 642 65<204.712 291.926>
VStem: 130 350<707 708 596 708>
Fore
362 598 m 0xa0
 311 598 270 642 242 642 c 0
 218 642 201 627 195 596 c 1
 130 596 l 1
 146 670 187 707 253 707 c 0x60
 299 707 339 667 372 667 c 0
 392 667 408 681 417 708 c 1
 480 708 l 1
 464 635 425 598 362 598 c 0xa0
EndSplineSet
EndChar
StartChar: quotesinglbase
Encoding: 365 8218 326
Width: 222
VWidth: 2048
Flags: W
VStem: 31 145<-98 101>
Fore
61 0 m 1
 83 101 l 1
 176 101 l 1
 159 21 l 2
 143 -58 104 -109 46 -132 c 1
 31 -98 l 1
 72 -83 95 -51 106 0 c 1
 61 0 l 1
EndSplineSet
EndChar
StartChar: quotedblbase
Encoding: 366 8222 327
Width: 332
VWidth: 2048
Flags: W
VStem: 12 298<-98 101>
Fore
43 0 m 1
 64 101 l 1
 158 101 l 1
 141 21 l 2
 124 -58 87 -109 29 -132 c 1
 12 -98 l 1
 54 -83 78 -51 89 0 c 1
 43 0 l 1
193 0 m 1
 215 101 l 1
 310 101 l 1
 293 21 l 2
 276 -57 238 -109 179 -132 c 1
 166 -98 l 1
 205 -83 228 -51 239 0 c 1
 193 0 l 1
EndSplineSet
EndChar
StartChar: dagger
Encoding: 367 8224 328
Width: 554
VWidth: 2048
Flags: W
HStem: 423 78<143 320 426 605>
VStem: 126 496<423 501>
Fore
195 -169 m 1
 320 423 l 1
 126 423 l 1
 143 501 l 1
 337 501 l 1
 379 700 l 1
 468 700 l 1
 426 501 l 1
 622 501 l 1
 605 423 l 1
 409 423 l 1
 284 -169 l 1
 195 -169 l 1
EndSplineSet
EndChar
StartChar: daggerdbl
Encoding: 368 8225 329
Width: 554
VWidth: 2048
Flags: W
HStem: 12 78<55 235 340 520> 445 78<146 326 431 612>
Fore
196 -169 m 1
 235 12 l 1
 38 12 l 1
 55 90 l 1
 251 90 l 1
 326 445 l 1
 130 445 l 1
 146 523 l 1
 342 523 l 1
 382 707 l 1
 471 707 l 1
 431 523 l 1
 627 523 l 1
 612 445 l 1
 415 445 l 1
 340 90 l 1
 536 90 l 1
 520 12 l 1
 323 12 l 1
 285 -169 l 1
 196 -169 l 1
EndSplineSet
EndChar
StartChar: perthousand
Encoding: 369 8240 330
Width: 999
VWidth: 2048
Flags: W
HStem: -26 60<481.323 567.166 811.203 896.905> 288 61<527.874 613.044 855.559 942.582> 346 62<206.436 293.114> 662 60<252.823 337.63>
VStem: 123 73<417.458 541.033> 347 75<567.368 654.057> 398 74<42.9076 167.799> 623 74<159.78 280.645> 728 73<43.0645 170.278> 952 75<159.78 280.645>
Fore
150 -26 m 1x99c0
 604 728 l 1
 668 728 l 1
 215 -26 l 1
 150 -26 l 1x99c0
132 536 m 0
 158 661 217 722 311 722 c 0
 384 722 422 684 422 609 c 0
 422 588 419 566 414 540 c 0
 386 411 325 346 233 346 c 0xbdc0
 159 346 123 384 123 460 c 0
 123 482 126 508 132 536 c 0
300 662 m 0
 217 662 196 510 196 474 c 0
 196 430 213 408 248 408 c 0
 291 408 320 449 338 533 c 0
 344 559 347 581 347 599 c 0
 347 641 331 662 300 662 c 0
407 164 m 0
 433 288 492 349 586 349 c 0
 660 349 697 312 697 237 c 0
 697 217 694 193 688 166 c 0
 661 38 601 -26 507 -26 c 0
 435 -26 398 12 398 89 c 0xdbc0
 398 111 401 136 407 164 c 0
574 288 m 0
 493 288 472 134 472 99 c 0
 472 56 489 34 522 34 c 0
 603 34 623 189 623 224 c 0
 623 267 606 288 574 288 c 0
737 164 m 0
 763 288 822 349 916 349 c 0
 990 349 1027 312 1027 237 c 0
 1027 217 1024 193 1018 166 c 0
 991 38 931 -26 837 -26 c 0
 765 -26 728 12 728 89 c 0
 728 111 731 136 737 164 c 0
904 288 m 0
 821 288 801 136 801 101 c 0
 801 57 818 34 852 34 c 0
 932 34 952 189 952 224 c 0
 952 267 935 288 904 288 c 0
EndSplineSet
EndChar
StartChar: guilsinglleft
Encoding: 370 8249 331
Width: 332
VWidth: 2048
Flags: W
HStem: 35 445<279 302>
VStem: 100 274<258 480>
Fore
198 258 m 1
 279 35 l 1
 207 35 l 1
 100 258 l 1
 302 480 l 1
 374 480 l 1
 198 258 l 1
EndSplineSet
EndChar
StartChar: guilsinglright
Encoding: 371 8250 332
Width: 332
VWidth: 2048
Flags: W
HStem: 35 445<143 166>
VStem: 71 268<35 262>
Fore
247 259 m 1
 166 480 l 1
 238 480 l 1
 339 262 l 1
 143 35 l 1
 71 35 l 1
 247 259 l 1
EndSplineSet
EndChar
StartChar: trademark
Encoding: 372 8482 333
Width: 999
VWidth: 2048
Flags: W
HStem: 658 58<262 379 445 575>
Fore
307 319 m 1
 379 658 l 1
 250 658 l 1
 262 716 l 1
 587 716 l 1
 575 658 l 1
 445 658 l 1
 372 319 l 1
 307 319 l 1
547 319 m 1
 632 716 l 1
 728 716 l 1
 762 399 l 1
 927 716 l 1
 1022 716 l 1
 938 319 l 1
 878 319 l 1
 949 651 l 1
 776 319 l 1
 714 319 l 1
 681 658 l 1
 609 319 l 1
 547 319 l 1
EndSplineSet
EndChar
StartChar: uniF71D
Encoding: 376 63261 335
Width: 340
VWidth: 2048
Flags: W
HStem: -138 135<18 58 230 293> -87 84<69 230>
VStem: -11 333<-138 -3>
Fore
-11 -138 m 1xa0
 18 -3 l 1xa0
 322 -3 l 1x60
 293 -138 l 1
 219 -138 l 1xa0
 230 -87 l 1
 69 -87 l 1x60
 58 -138 l 1
 -11 -138 l 1xa0
EndSplineSet
EndChar
StartChar: uni0E10.descless
Encoding: 128 63232 337
Width: 530
Flags: W
HStem: -3 61<300.245 371.166> 158 49<184.869 238.419> 299 50<195.709 274.171> 506 55<423.13 592.153> 530 59<273.019 484.699>
VStem: 128 54<209.864 285.711> 225 73<59.782 97.7191> 277 56<233.679 296.607> 426 70<303.594 313 320 322.523 322.523 334.523 328.523 384.252>
Fore
128 230 m 0xee80
 128 287 176 349 250 349 c 0
 311 349 333 315 333 275 c 0xed80
 333 266 332 256 330 247 c 2
 300 107 l 2
 299 102 298 97 298 92 c 0
 298 74 307 58 332 58 c 0
 366 58 377 86 382 109 c 2
 426 313 l 2
 427 320 428 326 428 332 c 0
 428 379 387 409 327 426 c 0
 245 449 177 455 137 455 c 1
 182 516 246 589 370 589 c 0xee80
 429 589 482 561 533 561 c 0
 561 561 588 575 590 575 c 1
 597 521 l 1
 595 521 562 506 534 506 c 0xf680
 465 506 430 530 360 530 c 0
 290 530 256 497 256 497 c 1
 258 497 388 489 462 429 c 0
 485 410 499 383 499 349 c 0
 499 340 498 330 496 320 c 2
 448 95 l 2
 436 37 379 -3 313 -3 c 0
 260 -3 225 26 225 70 c 0
 225 76 226 82 227 89 c 2
 243 164 l 1
 243 164 227 158 205 158 c 0
 162 158 128 185 128 230 c 0xee80
240 299 m 0
 203 299 182 268 182 242 c 0
 182 223 193 207 220 207 c 0
 256 207 277 238 277 264 c 0
 277 283 266 299 240 299 c 0
EndSplineSet
EndChar
StartChar: dottedcircle
Encoding: 221 9676 339
Width: 643
Flags: W
HStem: 5 36<323.547 347.967> 41 39<182.445 207.954> 133 37<101.635 126.965> 146 36<557.82 589.992> 276 37<622.422 641.055> 282 37<96.8298 121.965> 411 37<609.059 640.643> 415 39<158.071 195.649> 500 38<533.069 557.999> 543 36<436.435 460.992>
VStem: 85 37<288.147 313.221> 90 37<138.718 164.757> 158 38<429.771 453.961> 169 39<48.666 73.3333> 279 38<513.786 538.282> 312 36<5.00658 40.9941> 424 37<543.033 572.853> 450 37<58.6667 89.9194> 553 37<146.033 177.18> 609 38<411.137 435.282> 615 40<276.18 312.845>
Fore
158 431 m 0xc1c820
 158 441 169 454 181 454 c 0
 190 454 196 448 196 440 c 0
 196 430 186 415 172 415 c 0
 163 415 158 423 158 431 c 0xc1c820
279 523 m 0xc0c220
 279 536 292 544 301 544 c 0
 311 544 317 538 317 529 c 0
 317 517 303 507 293 507 c 0
 285 507 279 515 279 523 c 0xc0c220
169 58 m 0xc0c420
 169 71 184 80 193 80 c 0
 201 80 208 73 208 64 c 0
 208 53 194 41 185 41 c 0
 176 41 169 49 169 58 c 0xc0c420
90 148 m 0xe0d020
 90 166 107 170 113 170 c 0
 122 170 127 164 127 156 c 0
 127 142 115 133 105 133 c 0
 95 133 90 139 90 148 c 0xe0d020
450 68 m 0xc0c060
 450 81 466 90 473 90 c 0
 482 90 487 83 487 75 c 0
 487 61 474 52 465 52 c 0
 457 52 450 59 450 68 c 0xc0c060
553 160 m 0
 553 174 564 182 575 182 c 0
 585 182 590 177 590 168 c 0
 590 155 579 146 567 146 c 0xd0c020
 558 146 553 151 553 160 c 0
609 425 m 0xc2c030
 609 434 618 448 631 448 c 0
 640 448 647 442 647 434 c 0
 647 423 637 411 623 411 c 0
 614 411 609 416 609 425 c 0xc2c030
533 515 m 0
 533 524 543 538 555 538 c 0
 565 538 571 531 571 522 c 0
 571 509 557 500 547 500 c 0
 539 500 533 507 533 515 c 0
615 291 m 0xc8c028
 615 300 627 313 639 313 c 0
 648 313 655 307 655 299 c 0
 655 285 640 276 631 276 c 0
 623 276 615 283 615 291 c 0xc8c028
85 297 m 0xc4e020
 85 310 97 319 108 319 c 0
 117 319 122 313 122 305 c 0
 122 292 110 282 100 282 c 0
 90 282 85 289 85 297 c 0xc4e020
312 19 m 0xc0c120
 312 33 324 41 334 41 c 0
 343 41 348 36 348 28 c 0
 348 14 338 5 326 5 c 0
 318 5 312 10 312 19 c 0xc0c120
424 557 m 0xc0c0a0
 424 570 438 579 446 579 c 0
 456 579 461 572 461 564 c 0
 461 552 450 543 438 543 c 0
 430 543 424 548 424 557 c 0xc0c0a0
EndSplineSet
EndChar
StartChar: uni0E47.high
Encoding: 222 63263 341
Width: 0
Flags: W
HStem: 994.046 33.5258<-32.1563 1.06906> 1049.47 40.3678<-160.256 -95.3215> 1063.15 34.8942<-30.9383 2.70403> 1126.78 37.631<-101.346 48.4298> 1135.68 36.9468<-157.386 0.0906019>
VStem: -226.207 46.5256<1063.15 1114.09> 3.0002 33.5258<1029.45 1060.36> 63.894 50.6308<1169.59 1206.83>
AnchorPoint: "AboveMark" -113 988 mark 0
Back
-129 1064 m 0x6180
 -181 1064 -190 1009 -194 993 c 1x8180
 -223 1006 -252 1028 -252 1074 c 0
 -252 1122 -223 1216 -99 1216 c 0x06
 -52 1216 -34 1206 39 1206 c 0x0a
 71 1206 98 1223 105 1255 c 1
 105 1258 l 1
 168 1258 l 1x82
 160 1234 138 1160 20 1160 c 0x0a
 -25 1160 -58 1171 -101 1171 c 0
 -174 1171 -195 1128 -195 1094 c 0
 -195 1090 -194 1086 -194 1081 c 1x15
 -172 1105 -148 1114 -124 1114 c 0x21
 -95 1114 -67 1100 -47 1079 c 1
 -35 1109 -7 1124 19 1124 c 0x11
 47 1124 71 1108 71 1075 c 0
 71 1029 33 996 -7 996 c 0
 -69 996 -83 1064 -129 1064 c 0x6180
3 1037 m 0
 25 1037 30 1057 30 1066 c 0
 30 1075 25 1081 12 1081 c 0
 -4 1081 -14 1067 -14 1054 c 0
 -14 1045 -9 1037 3 1037 c 0
EndSplineSet
Refer: 195 3655 N 0.6842 0 0 0.6842 16 537 2
EndChar
